M48
INCH,TZ
T1C0.0256
T2C0.0669
T3C0.1181
T4C0.1201
T5C0.1575
%
G90
G05
T1
X92346Y-66047
T2
X17669Y-83039
X21669Y-83039
X92472Y-75559
X96472Y-75559
X25150Y-90520
X29150Y-90520
X84992Y-90520
X88992Y-90520
X77512Y-75559
X81512Y-75559
X62551Y-83039
X66551Y-83039
X62551Y-90520
X66551Y-90520
X70031Y-83039
X74031Y-83039
X40110Y-83039
X44110Y-83039
X62551Y-68079
X66551Y-68079
X51331Y-90520
X55331Y-90520
X47591Y-75559
X51591Y-75559
X99953Y-68079
X103953Y-68079
X66291Y-90520
X70291Y-90520
X17669Y-75559
X21669Y-75559
X32630Y-75559
X36630Y-75559
X99953Y-90520
X103953Y-90520
X25150Y-68079
X29150Y-68079
X47591Y-90520
X51591Y-90520
X84992Y-75559
X88992Y-75559
X17669Y-90520
X21669Y-90520
X77512Y-90520
X81512Y-90520
X40110Y-68079
X44110Y-68079
X40110Y-90520
X44110Y-90520
X84992Y-83039
X88992Y-83039
X55071Y-83039
X59071Y-83039
X32630Y-83039
X36630Y-83039
X70031Y-68079
X74031Y-68079
X99953Y-83039
X103953Y-83039
X55071Y-68079
X59071Y-68079
X62551Y-75559
X66551Y-75559
X77512Y-68079
X81512Y-68079
X40110Y-75559
X44110Y-75559
X55071Y-90520
X59071Y-90520
X17669Y-68079
X21669Y-68079
X32630Y-90520
X36630Y-90520
X92472Y-90520
X96472Y-90520
X70031Y-75559
X74031Y-75559
X70031Y-90520
X74031Y-90520
X99953Y-75559
X103953Y-75559
X77512Y-83039
X81512Y-83039
X47591Y-83039
X51591Y-83039
X25150Y-83039
X29150Y-83039
X84992Y-68079
X88992Y-68079
X92472Y-83039
X96472Y-83039
X92472Y-68079
X96472Y-68079
X55071Y-75559
X59071Y-75559
X47591Y-68079
X51591Y-68079
X25150Y-75559
X29150Y-75559
X32630Y-68079
X36630Y-68079
T3
X33130Y-84039
X35630Y-85039
X70531Y-69079
X73031Y-70079
X100453Y-84039
X102953Y-85039
X55571Y-69079
X58071Y-70079
X63051Y-76559
X65551Y-77559
X78012Y-69079
X80512Y-70079
X40610Y-76559
X43110Y-77559
X55571Y-91520
X58071Y-92520
X18169Y-69079
X20669Y-70079
X33130Y-91520
X35630Y-92520
X92972Y-91520
X95472Y-92520
X70531Y-76559
X73031Y-77559
X70531Y-91520
X73031Y-92520
X100453Y-76559
X102953Y-77559
X78012Y-84039
X80512Y-85039
X48091Y-84039
X50591Y-85039
X25650Y-84039
X28150Y-85039
X85492Y-69079
X87992Y-70079
X92972Y-84039
X95472Y-85039
X92972Y-69079
X95472Y-70079
X55571Y-76559
X58071Y-77559
X48091Y-69079
X50591Y-70079
X25650Y-76559
X28150Y-77559
X33130Y-69079
X35630Y-70079
X18169Y-84039
X20669Y-85039
X92972Y-76559
X95472Y-77559
X25650Y-91520
X28150Y-92520
X85492Y-91520
X87992Y-92520
X78012Y-76559
X80512Y-77559
X63051Y-84039
X65551Y-85039
X63051Y-91520
X65551Y-92520
X70531Y-84039
X73031Y-85039
X40610Y-84039
X43110Y-85039
X63051Y-69079
X65551Y-70079
X52331Y-88520
X54831Y-89520
X48091Y-76559
X50591Y-77559
X100453Y-69079
X102953Y-70079
X67291Y-88520
X69791Y-89520
X18169Y-76559
X20669Y-77559
X33130Y-76559
X35630Y-77559
X100453Y-91520
X102953Y-92520
X25650Y-69079
X28150Y-70079
X48091Y-91520
X50591Y-92520
X85492Y-76559
X87992Y-77559
X18169Y-91520
X20669Y-92520
X78012Y-91520
X80512Y-92520
X40610Y-69079
X43110Y-70079
X40610Y-91520
X43110Y-92520
X85492Y-84039
X87992Y-85039
X55571Y-84039
X58071Y-85039
T4
X48646Y-87764
X58016Y-87764
X63606Y-87764
X72976Y-87764
T5
X101953Y-83039
X57071Y-68079
X64551Y-75559
X79512Y-68079
X42110Y-75559
X57071Y-90520
X19669Y-68079
X34630Y-90520
X94472Y-90520
X72031Y-75559
X72031Y-90520
X101953Y-75559
X79512Y-83039
X49591Y-83039
X27150Y-83039
X86992Y-68079
X94472Y-83039
X94472Y-68079
X57071Y-75559
X49591Y-68079
X27150Y-75559
X34630Y-68079
X19669Y-83039
X94472Y-75559
X27150Y-90520
X86992Y-90520
X79512Y-75559
X64551Y-83039
X64551Y-90520
X72031Y-83039
X42110Y-83039
X64551Y-68079
X48646Y-93764
X53331Y-90520
X58016Y-93764
X49591Y-75559
X101953Y-68079
X63606Y-93764
X68291Y-90520
X72976Y-93764
X19669Y-75559
X34630Y-75559
X101953Y-90520
X27150Y-68079
X49591Y-90520
X86992Y-75559
X19669Y-90520
X79512Y-90520
X42110Y-68079
X42110Y-90520
X86992Y-83039
X57071Y-83039
X34630Y-83039
X72031Y-68079
T1
G00X89571Y-66047
M15
G01X89453Y-66047
M16
G05
T0
M30
