M48
INCH,TZ
T1C0.0118
T2C0.0130
T3C0.0197
T4C0.0866
%
G90
G05
T1
X16339Y-64961
X16339Y-66142
X16339Y-73622
X16339Y-81102
X16339Y-88583
X16339Y-93602
X16634Y-64665
X16634Y-93898
X18110Y-64665
X18110Y-79429
X22047Y-93996
X22228Y-70835
X22228Y-76839
X22228Y-78315
X22228Y-84319
X22228Y-85795
X22228Y-91799
X24803Y-64665
X24803Y-79429
X29528Y-93996
X29709Y-70835
X29709Y-76839
X29709Y-78315
X29709Y-84319
X29709Y-85795
X29709Y-91799
X32283Y-64665
X32283Y-79429
X37008Y-93996
X37189Y-70835
X37189Y-76839
X37189Y-78315
X37189Y-84319
X37189Y-85795
X37189Y-91799
X39764Y-64665
X39764Y-79429
X44488Y-93996
X44669Y-70835
X44669Y-76839
X44669Y-78315
X44669Y-84319
X44669Y-85795
X44669Y-91799
X47244Y-64665
X47244Y-79429
X51067Y-85894
X51067Y-87764
X51559Y-85894
X51969Y-93996
X52150Y-70835
X52150Y-76839
X52150Y-78315
X52150Y-84319
X52150Y-91799
X54724Y-64665
X54724Y-79429
X59449Y-93996
X59630Y-70835
X59630Y-76839
X59630Y-78315
X59630Y-84319
X59630Y-85992
X59630Y-91799
X62205Y-64665
X62205Y-79429
X65748Y-86220
X66043Y-87795
X66043Y-86516
X66732Y-91732
X66929Y-93996
X67110Y-70835
X67110Y-76839
X67110Y-78315
X67110Y-84319
X69685Y-64665
X69685Y-79429
X72047Y-87303
X72146Y-87598
X72819Y-73787
X72819Y-74280
X74409Y-93996
X74591Y-70835
X74591Y-76839
X74591Y-78315
X74591Y-84319
X77165Y-64665
X77165Y-79429
X80610Y-89173
X81299Y-89173
X81299Y-89764
X81496Y-78839
X81594Y-72539
X81693Y-73524
X81693Y-74016
X81693Y-74508
X81791Y-72343
X81791Y-78839
X81890Y-93996
X81988Y-89173
X81988Y-89764
X82071Y-78315
X82071Y-84319
X82087Y-70866
X82087Y-76772
X82382Y-72244
X82382Y-78543
X82579Y-72047
X82677Y-77953
X82776Y-71752
X82874Y-77559
X82972Y-71457
X83169Y-77362
X83366Y-70079
X83465Y-78346
X83465Y-79626
X83957Y-75197
X84236Y-74575
X84350Y-75591
X84350Y-78051
X84630Y-65913
X84630Y-74575
X84646Y-64665
X85122Y-71622
X85417Y-71130
X85630Y-79626
X85909Y-71130
X86122Y-65059
X86614Y-65059
X86713Y-78051
X86992Y-73000
X87386Y-73000
X87402Y-71555
X87583Y-72803
X87598Y-71358
X87697Y-79626
X88386Y-64665
X88681Y-65551
X88764Y-70638
X88878Y-65846
X89256Y-72803
X89354Y-72114
X89370Y-93996
X89551Y-78315
X89551Y-84319
X89551Y-85795
X89551Y-91799
X89650Y-71917
X90142Y-74969
X90157Y-76772
X90339Y-65323
X90339Y-66602
X90535Y-66012
X90634Y-71720
X90836Y-66017
X90929Y-65323
X90929Y-67488
X91126Y-66012
X91142Y-75394
X91142Y-87894
X91224Y-65323
X91437Y-75492
X91520Y-65323
X91634Y-75295
X91634Y-87795
X91717Y-66012
X91732Y-80413
X91815Y-71720
X91929Y-75295
X92028Y-78543
X92126Y-79429
X92504Y-72409
X92504Y-74378
X92618Y-66535
X92618Y-72736
X92913Y-66142
X93504Y-64665
X94374Y-71228
X94374Y-71622
X94374Y-72213
X94374Y-73787
X94390Y-64665
X94980Y-64665
X95358Y-73787
X95571Y-70965
X95571Y-73622
X95949Y-72311
X96343Y-76740
X96752Y-88484
X96850Y-93996
X97028Y-84319
X97031Y-78315
X97031Y-85795
X97031Y-91799
X97047Y-70866
X97441Y-73031
X97539Y-80020
X99606Y-64665
X99606Y-79429
X101280Y-80413
X101476Y-73031
X103937Y-88780
X104232Y-93406
X104429Y-93996
X104512Y-70835
X104528Y-78346
X104528Y-85827
X104528Y-91732
X104921Y-64665
X105020Y-93996
X105315Y-64961
X105315Y-70079
X105315Y-77559
X105315Y-85039
X105315Y-92520
X105315Y-93701
T2
X97661Y-71543
X97661Y-72055
X98213Y-71189
X98213Y-72449
X98764Y-71543
X98764Y-72055
X97661Y-86504
X97661Y-87016
X98213Y-86150
X98213Y-87409
X98764Y-86504
X98764Y-87016
X22858Y-71543
X22858Y-72055
X23409Y-71189
X23409Y-72449
X23961Y-71543
X23961Y-72055
X90142Y-72606
X90142Y-73000
X90142Y-73394
X90142Y-73787
X90142Y-74181
X90535Y-72606
X90535Y-73000
X90535Y-73394
X90535Y-73787
X90535Y-74181
X90929Y-72606
X90929Y-73000
X90929Y-73394
X90929Y-73787
X90929Y-74181
X91323Y-72606
X91323Y-73000
X91323Y-73394
X91323Y-73787
X91323Y-74181
X91717Y-72606
X91717Y-73000
X91717Y-73394
X91717Y-73787
X91717Y-74181
X22858Y-86504
X22858Y-87016
X23409Y-86150
X23409Y-87409
X23961Y-86504
X23961Y-87016
X60260Y-79024
X60260Y-79535
X60811Y-78669
X60811Y-79929
X61362Y-79024
X61362Y-79535
T4
X23409Y-71819
X23409Y-86780
X60811Y-79299
X98213Y-71819
X98213Y-86780
T3
G00X89161Y-63331
M15
G01X89161Y-63094
M16
G05
G00X89303Y-65673
M15
G01X89303Y-65437
M16
G05
G00X92555Y-65673
M15
G01X92555Y-65437
M16
G05
G00X92697Y-63331
M15
G01X92697Y-63094
M16
G05
T0
M30
