G04 #@! TF.GenerationSoftware,KiCad,Pcbnew,(5.1.4)-1*
G04 #@! TF.CreationDate,2022-02-23T22:30:13-05:00*
G04 #@! TF.ProjectId,ortho-40percent,6f727468-6f2d-4343-9070-657263656e74,rev?*
G04 #@! TF.SameCoordinates,Original*
G04 #@! TF.FileFunction,Profile,NP*
%FSLAX46Y46*%
G04 Gerber Fmt 4.6, Leading zero omitted, Abs format (unit mm)*
G04 Created by KiCad (PCBNEW (5.1.4)-1) date 2022-02-23 22:30:13*
%MOMM*%
%LPD*%
G04 APERTURE LIST*
%ADD10C,0.050000*%
G04 APERTURE END LIST*
D10*
X250310000Y-182420000D02*
G75*
G03X250310000Y-182420000I-850000J0D01*
G01*
X155310000Y-201420000D02*
G75*
G03X155310000Y-201420000I-850000J0D01*
G01*
X250310000Y-220420000D02*
G75*
G03X250310000Y-220420000I-850000J0D01*
G01*
X60310000Y-182420000D02*
G75*
G03X60310000Y-182420000I-850000J0D01*
G01*
X237560000Y-162920000D02*
G75*
G02X236460000Y-161820000I0J1100000D01*
G01*
X225460000Y-161820000D02*
G75*
G02X224360000Y-162920000I-1100000J0D01*
G01*
X225460000Y-160020000D02*
G75*
G02X226560000Y-158920000I1100000J0D01*
G01*
X235360000Y-158920000D02*
G75*
G02X236460000Y-160020000I0J-1100000D01*
G01*
X224360000Y-162920000D02*
X41060000Y-162920000D01*
X237560000Y-162920000D02*
X267860000Y-162920000D01*
X236460000Y-160020000D02*
X236460000Y-161820000D01*
X226560000Y-158920000D02*
X235360000Y-158920000D01*
X225460000Y-161820000D02*
X225460000Y-160020000D01*
X267860000Y-162920000D02*
G75*
G02X268960000Y-164020000I0J-1100000D01*
G01*
X268960000Y-238820000D02*
G75*
G02X267860000Y-239920000I-1100000J0D01*
G01*
X41060000Y-239920000D02*
G75*
G02X39960000Y-238820000I0J1100000D01*
G01*
X39960000Y-164020000D02*
G75*
G02X41060000Y-162920000I1100000J0D01*
G01*
X60350000Y-220500000D02*
G75*
G03X60350000Y-220500000I-850000J0D01*
G01*
X39960000Y-238820000D02*
X39960000Y-164020000D01*
X41060000Y-239920000D02*
X267860000Y-239920000D01*
X268960000Y-164020000D02*
X268960000Y-238820000D01*
M02*
