G04 #@! TF.GenerationSoftware,KiCad,Pcbnew,(5.1.4)-1*
G04 #@! TF.CreationDate,2022-02-23T22:30:13-05:00*
G04 #@! TF.ProjectId,ortho-40percent,6f727468-6f2d-4343-9070-657263656e74,rev?*
G04 #@! TF.SameCoordinates,Original*
G04 #@! TF.FileFunction,Other,Fab,Top*
%FSLAX46Y46*%
G04 Gerber Fmt 4.6, Leading zero omitted, Abs format (unit mm)*
G04 Created by KiCad (PCBNEW (5.1.4)-1) date 2022-02-23 22:30:13*
%MOMM*%
%LPD*%
G04 APERTURE LIST*
%ADD10C,0.150000*%
%ADD11C,0.100000*%
%ADD12C,0.030000*%
%ADD13C,0.075000*%
G04 APERTURE END LIST*
D10*
X42658571Y-245502380D02*
X42087142Y-245502380D01*
X42372857Y-245502380D02*
X42372857Y-244502380D01*
X42277619Y-244645238D01*
X42182380Y-244740476D01*
X42087142Y-244788095D01*
X43039523Y-244597619D02*
X43087142Y-244550000D01*
X43182380Y-244502380D01*
X43420476Y-244502380D01*
X43515714Y-244550000D01*
X43563333Y-244597619D01*
X43610952Y-244692857D01*
X43610952Y-244788095D01*
X43563333Y-244930952D01*
X42991904Y-245502380D01*
X43610952Y-245502380D01*
X44039523Y-245407142D02*
X44087142Y-245454761D01*
X44039523Y-245502380D01*
X43991904Y-245454761D01*
X44039523Y-245407142D01*
X44039523Y-245502380D01*
X44991904Y-244502380D02*
X44515714Y-244502380D01*
X44468095Y-244978571D01*
X44515714Y-244930952D01*
X44610952Y-244883333D01*
X44849047Y-244883333D01*
X44944285Y-244930952D01*
X44991904Y-244978571D01*
X45039523Y-245073809D01*
X45039523Y-245311904D01*
X44991904Y-245407142D01*
X44944285Y-245454761D01*
X44849047Y-245502380D01*
X44610952Y-245502380D01*
X44515714Y-245454761D01*
X44468095Y-245407142D01*
X45896666Y-244835714D02*
X45896666Y-245502380D01*
X45658571Y-244454761D02*
X45420476Y-245169047D01*
X46039523Y-245169047D01*
X46610952Y-244502380D02*
X46706190Y-244502380D01*
X46801428Y-244550000D01*
X46849047Y-244597619D01*
X46896666Y-244692857D01*
X46944285Y-244883333D01*
X46944285Y-245121428D01*
X46896666Y-245311904D01*
X46849047Y-245407142D01*
X46801428Y-245454761D01*
X46706190Y-245502380D01*
X46610952Y-245502380D01*
X46515714Y-245454761D01*
X46468095Y-245407142D01*
X46420476Y-245311904D01*
X46372857Y-245121428D01*
X46372857Y-244883333D01*
X46420476Y-244692857D01*
X46468095Y-244597619D01*
X46515714Y-244550000D01*
X46610952Y-244502380D01*
X48134761Y-245502380D02*
X48134761Y-244835714D01*
X48134761Y-244930952D02*
X48182380Y-244883333D01*
X48277619Y-244835714D01*
X48420476Y-244835714D01*
X48515714Y-244883333D01*
X48563333Y-244978571D01*
X48563333Y-245502380D01*
X48563333Y-244978571D02*
X48610952Y-244883333D01*
X48706190Y-244835714D01*
X48849047Y-244835714D01*
X48944285Y-244883333D01*
X48991904Y-244978571D01*
X48991904Y-245502380D01*
X49468095Y-245502380D02*
X49468095Y-244835714D01*
X49468095Y-244930952D02*
X49515714Y-244883333D01*
X49610952Y-244835714D01*
X49753809Y-244835714D01*
X49849047Y-244883333D01*
X49896666Y-244978571D01*
X49896666Y-245502380D01*
X49896666Y-244978571D02*
X49944285Y-244883333D01*
X50039523Y-244835714D01*
X50182380Y-244835714D01*
X50277619Y-244883333D01*
X50325238Y-244978571D01*
X50325238Y-245502380D01*
X39960000Y-243750000D02*
X52500000Y-243750000D01*
X39960000Y-243750000D02*
X39960000Y-244336421D01*
X52500000Y-243750000D02*
X52500000Y-244336421D01*
X52500000Y-243750000D02*
X51373496Y-244336421D01*
X52500000Y-243750000D02*
X51373496Y-243163579D01*
X39960000Y-243750000D02*
X41086504Y-244336421D01*
X39960000Y-243750000D02*
X41086504Y-243163579D01*
X52500000Y-235000000D02*
X52500000Y-243750000D01*
X149840952Y-248347619D02*
X149888571Y-248300000D01*
X149983809Y-248252380D01*
X150221904Y-248252380D01*
X150317142Y-248300000D01*
X150364761Y-248347619D01*
X150412380Y-248442857D01*
X150412380Y-248538095D01*
X150364761Y-248680952D01*
X149793333Y-249252380D01*
X150412380Y-249252380D01*
X150793333Y-248347619D02*
X150840952Y-248300000D01*
X150936190Y-248252380D01*
X151174285Y-248252380D01*
X151269523Y-248300000D01*
X151317142Y-248347619D01*
X151364761Y-248442857D01*
X151364761Y-248538095D01*
X151317142Y-248680952D01*
X150745714Y-249252380D01*
X151364761Y-249252380D01*
X151840952Y-249252380D02*
X152031428Y-249252380D01*
X152126666Y-249204761D01*
X152174285Y-249157142D01*
X152269523Y-249014285D01*
X152317142Y-248823809D01*
X152317142Y-248442857D01*
X152269523Y-248347619D01*
X152221904Y-248300000D01*
X152126666Y-248252380D01*
X151936190Y-248252380D01*
X151840952Y-248300000D01*
X151793333Y-248347619D01*
X151745714Y-248442857D01*
X151745714Y-248680952D01*
X151793333Y-248776190D01*
X151840952Y-248823809D01*
X151936190Y-248871428D01*
X152126666Y-248871428D01*
X152221904Y-248823809D01*
X152269523Y-248776190D01*
X152317142Y-248680952D01*
X152745714Y-249157142D02*
X152793333Y-249204761D01*
X152745714Y-249252380D01*
X152698095Y-249204761D01*
X152745714Y-249157142D01*
X152745714Y-249252380D01*
X153412380Y-248252380D02*
X153507619Y-248252380D01*
X153602857Y-248300000D01*
X153650476Y-248347619D01*
X153698095Y-248442857D01*
X153745714Y-248633333D01*
X153745714Y-248871428D01*
X153698095Y-249061904D01*
X153650476Y-249157142D01*
X153602857Y-249204761D01*
X153507619Y-249252380D01*
X153412380Y-249252380D01*
X153317142Y-249204761D01*
X153269523Y-249157142D01*
X153221904Y-249061904D01*
X153174285Y-248871428D01*
X153174285Y-248633333D01*
X153221904Y-248442857D01*
X153269523Y-248347619D01*
X153317142Y-248300000D01*
X153412380Y-248252380D01*
X154364761Y-248252380D02*
X154460000Y-248252380D01*
X154555238Y-248300000D01*
X154602857Y-248347619D01*
X154650476Y-248442857D01*
X154698095Y-248633333D01*
X154698095Y-248871428D01*
X154650476Y-249061904D01*
X154602857Y-249157142D01*
X154555238Y-249204761D01*
X154460000Y-249252380D01*
X154364761Y-249252380D01*
X154269523Y-249204761D01*
X154221904Y-249157142D01*
X154174285Y-249061904D01*
X154126666Y-248871428D01*
X154126666Y-248633333D01*
X154174285Y-248442857D01*
X154221904Y-248347619D01*
X154269523Y-248300000D01*
X154364761Y-248252380D01*
X155317142Y-248252380D02*
X155412380Y-248252380D01*
X155507619Y-248300000D01*
X155555238Y-248347619D01*
X155602857Y-248442857D01*
X155650476Y-248633333D01*
X155650476Y-248871428D01*
X155602857Y-249061904D01*
X155555238Y-249157142D01*
X155507619Y-249204761D01*
X155412380Y-249252380D01*
X155317142Y-249252380D01*
X155221904Y-249204761D01*
X155174285Y-249157142D01*
X155126666Y-249061904D01*
X155079047Y-248871428D01*
X155079047Y-248633333D01*
X155126666Y-248442857D01*
X155174285Y-248347619D01*
X155221904Y-248300000D01*
X155317142Y-248252380D01*
X156840952Y-249252380D02*
X156840952Y-248585714D01*
X156840952Y-248680952D02*
X156888571Y-248633333D01*
X156983809Y-248585714D01*
X157126666Y-248585714D01*
X157221904Y-248633333D01*
X157269523Y-248728571D01*
X157269523Y-249252380D01*
X157269523Y-248728571D02*
X157317142Y-248633333D01*
X157412380Y-248585714D01*
X157555238Y-248585714D01*
X157650476Y-248633333D01*
X157698095Y-248728571D01*
X157698095Y-249252380D01*
X158174285Y-249252380D02*
X158174285Y-248585714D01*
X158174285Y-248680952D02*
X158221904Y-248633333D01*
X158317142Y-248585714D01*
X158460000Y-248585714D01*
X158555238Y-248633333D01*
X158602857Y-248728571D01*
X158602857Y-249252380D01*
X158602857Y-248728571D02*
X158650476Y-248633333D01*
X158745714Y-248585714D01*
X158888571Y-248585714D01*
X158983809Y-248633333D01*
X159031428Y-248728571D01*
X159031428Y-249252380D01*
X39960000Y-247499999D02*
X268960000Y-247499999D01*
X39960000Y-238820000D02*
X39960000Y-248086420D01*
X268960000Y-238820000D02*
X268960000Y-248086420D01*
X268960000Y-247499999D02*
X267833496Y-248086420D01*
X268960000Y-247499999D02*
X267833496Y-246913578D01*
X39960000Y-247499999D02*
X41086504Y-248086420D01*
X39960000Y-247499999D02*
X41086504Y-246913578D01*
X30152380Y-205610476D02*
X30152380Y-204943809D01*
X31152380Y-205372380D01*
X30152380Y-204658095D02*
X30152380Y-203991428D01*
X31152380Y-204420000D01*
X31057142Y-203610476D02*
X31104761Y-203562857D01*
X31152380Y-203610476D01*
X31104761Y-203658095D01*
X31057142Y-203610476D01*
X31152380Y-203610476D01*
X30152380Y-202943809D02*
X30152380Y-202848571D01*
X30200000Y-202753333D01*
X30247619Y-202705714D01*
X30342857Y-202658095D01*
X30533333Y-202610476D01*
X30771428Y-202610476D01*
X30961904Y-202658095D01*
X31057142Y-202705714D01*
X31104761Y-202753333D01*
X31152380Y-202848571D01*
X31152380Y-202943809D01*
X31104761Y-203039047D01*
X31057142Y-203086666D01*
X30961904Y-203134285D01*
X30771428Y-203181904D01*
X30533333Y-203181904D01*
X30342857Y-203134285D01*
X30247619Y-203086666D01*
X30200000Y-203039047D01*
X30152380Y-202943809D01*
X30152380Y-201991428D02*
X30152380Y-201896190D01*
X30200000Y-201800952D01*
X30247619Y-201753333D01*
X30342857Y-201705714D01*
X30533333Y-201658095D01*
X30771428Y-201658095D01*
X30961904Y-201705714D01*
X31057142Y-201753333D01*
X31104761Y-201800952D01*
X31152380Y-201896190D01*
X31152380Y-201991428D01*
X31104761Y-202086666D01*
X31057142Y-202134285D01*
X30961904Y-202181904D01*
X30771428Y-202229523D01*
X30533333Y-202229523D01*
X30342857Y-202181904D01*
X30247619Y-202134285D01*
X30200000Y-202086666D01*
X30152380Y-201991428D01*
X30152380Y-201039047D02*
X30152380Y-200943809D01*
X30200000Y-200848571D01*
X30247619Y-200800952D01*
X30342857Y-200753333D01*
X30533333Y-200705714D01*
X30771428Y-200705714D01*
X30961904Y-200753333D01*
X31057142Y-200800952D01*
X31104761Y-200848571D01*
X31152380Y-200943809D01*
X31152380Y-201039047D01*
X31104761Y-201134285D01*
X31057142Y-201181904D01*
X30961904Y-201229523D01*
X30771428Y-201277142D01*
X30533333Y-201277142D01*
X30342857Y-201229523D01*
X30247619Y-201181904D01*
X30200000Y-201134285D01*
X30152380Y-201039047D01*
X31152380Y-199515238D02*
X30485714Y-199515238D01*
X30580952Y-199515238D02*
X30533333Y-199467619D01*
X30485714Y-199372380D01*
X30485714Y-199229523D01*
X30533333Y-199134285D01*
X30628571Y-199086666D01*
X31152380Y-199086666D01*
X30628571Y-199086666D02*
X30533333Y-199039047D01*
X30485714Y-198943809D01*
X30485714Y-198800952D01*
X30533333Y-198705714D01*
X30628571Y-198658095D01*
X31152380Y-198658095D01*
X31152380Y-198181904D02*
X30485714Y-198181904D01*
X30580952Y-198181904D02*
X30533333Y-198134285D01*
X30485714Y-198039047D01*
X30485714Y-197896190D01*
X30533333Y-197800952D01*
X30628571Y-197753333D01*
X31152380Y-197753333D01*
X30628571Y-197753333D02*
X30533333Y-197705714D01*
X30485714Y-197610476D01*
X30485714Y-197467619D01*
X30533333Y-197372380D01*
X30628571Y-197324761D01*
X31152380Y-197324761D01*
X32000000Y-239920000D02*
X32000000Y-162920000D01*
X41060000Y-239920000D02*
X31413579Y-239920000D01*
X41060000Y-162920000D02*
X31413579Y-162920000D01*
X32000000Y-162920000D02*
X32586421Y-164046504D01*
X32000000Y-162920000D02*
X31413579Y-164046504D01*
X32000000Y-239920000D02*
X32586421Y-238793496D01*
X32000000Y-239920000D02*
X31413579Y-238793496D01*
D11*
X234760000Y-205220000D02*
X233160000Y-205220000D01*
X233110000Y-207345000D02*
X234810000Y-207345000D01*
X233110000Y-204495000D02*
X233110000Y-207345000D01*
X234810000Y-204495000D02*
X234810000Y-207345000D01*
X233110000Y-204495000D02*
X234810000Y-204495000D01*
X235550000Y-168670000D02*
X235550000Y-158170000D01*
X235550000Y-158170000D02*
X226370000Y-158170000D01*
X226370000Y-168670000D02*
X226370000Y-158170000D01*
X235550000Y-168670000D02*
X226370000Y-168670000D01*
X190560000Y-186220000D02*
X189260000Y-187520000D01*
X185360000Y-186220000D02*
X186660000Y-187520000D01*
X190560000Y-183620000D02*
X189260000Y-182320000D01*
X185360000Y-183620000D02*
X186660000Y-182320000D01*
X190560000Y-186220000D02*
X190560000Y-183620000D01*
X186660000Y-187520000D02*
X189260000Y-187520000D01*
X186660000Y-182320000D02*
X189260000Y-182320000D01*
X185360000Y-186220000D02*
X185360000Y-183620000D01*
X188960000Y-184920000D02*
G75*
G03X188960000Y-184920000I-1000000J0D01*
G01*
X220060000Y-182720000D02*
X220060000Y-181120000D01*
X220560000Y-181120000D02*
X217360000Y-181120000D01*
X220560000Y-182720000D02*
X220560000Y-181120000D01*
X217360000Y-182720000D02*
X217360000Y-181120000D01*
X220560000Y-182720000D02*
X217360000Y-182720000D01*
X46760000Y-224220000D02*
X45160000Y-224220000D01*
X45110000Y-226345000D02*
X46810000Y-226345000D01*
X45110000Y-223495000D02*
X45110000Y-226345000D01*
X46810000Y-223495000D02*
X46810000Y-226345000D01*
X45110000Y-223495000D02*
X46810000Y-223495000D01*
X63760000Y-224220000D02*
X62160000Y-224220000D01*
X62110000Y-226345000D02*
X63810000Y-226345000D01*
X62110000Y-223495000D02*
X62110000Y-226345000D01*
X63810000Y-223495000D02*
X63810000Y-226345000D01*
X62110000Y-223495000D02*
X63810000Y-223495000D01*
X82760000Y-224220000D02*
X81160000Y-224220000D01*
X81110000Y-226345000D02*
X82810000Y-226345000D01*
X81110000Y-223495000D02*
X81110000Y-226345000D01*
X82810000Y-223495000D02*
X82810000Y-226345000D01*
X81110000Y-223495000D02*
X82810000Y-223495000D01*
X101760000Y-224220000D02*
X100160000Y-224220000D01*
X100110000Y-226345000D02*
X101810000Y-226345000D01*
X100110000Y-223495000D02*
X100110000Y-226345000D01*
X101810000Y-223495000D02*
X101810000Y-226345000D01*
X100110000Y-223495000D02*
X101810000Y-223495000D01*
X120760000Y-224220000D02*
X119160000Y-224220000D01*
X119110000Y-226345000D02*
X120810000Y-226345000D01*
X119110000Y-223495000D02*
X119110000Y-226345000D01*
X120810000Y-223495000D02*
X120810000Y-226345000D01*
X119110000Y-223495000D02*
X120810000Y-223495000D01*
X155260000Y-224220000D02*
X153660000Y-224220000D01*
X153610000Y-226345000D02*
X155310000Y-226345000D01*
X153610000Y-223495000D02*
X153610000Y-226345000D01*
X155310000Y-223495000D02*
X155310000Y-226345000D01*
X153610000Y-223495000D02*
X155310000Y-223495000D01*
X158760000Y-224220000D02*
X157160000Y-224220000D01*
X157110000Y-226345000D02*
X158810000Y-226345000D01*
X157110000Y-223495000D02*
X157110000Y-226345000D01*
X158810000Y-223495000D02*
X158810000Y-226345000D01*
X157110000Y-223495000D02*
X158810000Y-223495000D01*
X193260000Y-224220000D02*
X191660000Y-224220000D01*
X191610000Y-226345000D02*
X193310000Y-226345000D01*
X191610000Y-223495000D02*
X191610000Y-226345000D01*
X193310000Y-223495000D02*
X193310000Y-226345000D01*
X191610000Y-223495000D02*
X193310000Y-223495000D01*
X196760000Y-224220000D02*
X195160000Y-224220000D01*
X195110000Y-226345000D02*
X196810000Y-226345000D01*
X195110000Y-223495000D02*
X195110000Y-226345000D01*
X196810000Y-223495000D02*
X196810000Y-226345000D01*
X195110000Y-223495000D02*
X196810000Y-223495000D01*
X215760000Y-224220000D02*
X214160000Y-224220000D01*
X214110000Y-226345000D02*
X215810000Y-226345000D01*
X214110000Y-223495000D02*
X214110000Y-226345000D01*
X215810000Y-223495000D02*
X215810000Y-226345000D01*
X214110000Y-223495000D02*
X215810000Y-223495000D01*
X234760000Y-224220000D02*
X233160000Y-224220000D01*
X233110000Y-226345000D02*
X234810000Y-226345000D01*
X233110000Y-223495000D02*
X233110000Y-226345000D01*
X234810000Y-223495000D02*
X234810000Y-226345000D01*
X233110000Y-223495000D02*
X234810000Y-223495000D01*
X253760000Y-224220000D02*
X252160000Y-224220000D01*
X252110000Y-226345000D02*
X253810000Y-226345000D01*
X252110000Y-223495000D02*
X252110000Y-226345000D01*
X253810000Y-223495000D02*
X253810000Y-226345000D01*
X252110000Y-223495000D02*
X253810000Y-223495000D01*
X46760000Y-205220000D02*
X45160000Y-205220000D01*
X45110000Y-207345000D02*
X46810000Y-207345000D01*
X45110000Y-204495000D02*
X45110000Y-207345000D01*
X46810000Y-204495000D02*
X46810000Y-207345000D01*
X45110000Y-204495000D02*
X46810000Y-204495000D01*
X63760000Y-205220000D02*
X62160000Y-205220000D01*
X62110000Y-207345000D02*
X63810000Y-207345000D01*
X62110000Y-204495000D02*
X62110000Y-207345000D01*
X63810000Y-204495000D02*
X63810000Y-207345000D01*
X62110000Y-204495000D02*
X63810000Y-204495000D01*
X82760000Y-205220000D02*
X81160000Y-205220000D01*
X81110000Y-207345000D02*
X82810000Y-207345000D01*
X81110000Y-204495000D02*
X81110000Y-207345000D01*
X82810000Y-204495000D02*
X82810000Y-207345000D01*
X81110000Y-204495000D02*
X82810000Y-204495000D01*
X101760000Y-205220000D02*
X100160000Y-205220000D01*
X100110000Y-207345000D02*
X101810000Y-207345000D01*
X100110000Y-204495000D02*
X100110000Y-207345000D01*
X101810000Y-204495000D02*
X101810000Y-207345000D01*
X100110000Y-204495000D02*
X101810000Y-204495000D01*
X120760000Y-205220000D02*
X119160000Y-205220000D01*
X119110000Y-207345000D02*
X120810000Y-207345000D01*
X119110000Y-204495000D02*
X119110000Y-207345000D01*
X120810000Y-204495000D02*
X120810000Y-207345000D01*
X119110000Y-204495000D02*
X120810000Y-204495000D01*
X139760000Y-205220000D02*
X138160000Y-205220000D01*
X138110000Y-207345000D02*
X139810000Y-207345000D01*
X138110000Y-204495000D02*
X138110000Y-207345000D01*
X139810000Y-204495000D02*
X139810000Y-207345000D01*
X138110000Y-204495000D02*
X139810000Y-204495000D01*
X158760000Y-205220000D02*
X157160000Y-205220000D01*
X157110000Y-207345000D02*
X158810000Y-207345000D01*
X157110000Y-204495000D02*
X157110000Y-207345000D01*
X158810000Y-204495000D02*
X158810000Y-207345000D01*
X157110000Y-204495000D02*
X158810000Y-204495000D01*
X177760000Y-205220000D02*
X176160000Y-205220000D01*
X176110000Y-207345000D02*
X177810000Y-207345000D01*
X176110000Y-204495000D02*
X176110000Y-207345000D01*
X177810000Y-204495000D02*
X177810000Y-207345000D01*
X176110000Y-204495000D02*
X177810000Y-204495000D01*
X196760000Y-205220000D02*
X195160000Y-205220000D01*
X195110000Y-207345000D02*
X196810000Y-207345000D01*
X195110000Y-204495000D02*
X195110000Y-207345000D01*
X196810000Y-204495000D02*
X196810000Y-207345000D01*
X195110000Y-204495000D02*
X196810000Y-204495000D01*
X215760000Y-205220000D02*
X214160000Y-205220000D01*
X214110000Y-207345000D02*
X215810000Y-207345000D01*
X214110000Y-204495000D02*
X214110000Y-207345000D01*
X215810000Y-204495000D02*
X215810000Y-207345000D01*
X214110000Y-204495000D02*
X215810000Y-204495000D01*
X253760000Y-205220000D02*
X252160000Y-205220000D01*
X252110000Y-207345000D02*
X253810000Y-207345000D01*
X252110000Y-204495000D02*
X252110000Y-207345000D01*
X253810000Y-204495000D02*
X253810000Y-207345000D01*
X252110000Y-204495000D02*
X253810000Y-204495000D01*
X46760000Y-186220000D02*
X45160000Y-186220000D01*
X45110000Y-188345000D02*
X46810000Y-188345000D01*
X45110000Y-185495000D02*
X45110000Y-188345000D01*
X46810000Y-185495000D02*
X46810000Y-188345000D01*
X45110000Y-185495000D02*
X46810000Y-185495000D01*
X63760000Y-186220000D02*
X62160000Y-186220000D01*
X62110000Y-188345000D02*
X63810000Y-188345000D01*
X62110000Y-185495000D02*
X62110000Y-188345000D01*
X63810000Y-185495000D02*
X63810000Y-188345000D01*
X62110000Y-185495000D02*
X63810000Y-185495000D01*
X82760000Y-186220000D02*
X81160000Y-186220000D01*
X81110000Y-188345000D02*
X82810000Y-188345000D01*
X81110000Y-185495000D02*
X81110000Y-188345000D01*
X82810000Y-185495000D02*
X82810000Y-188345000D01*
X81110000Y-185495000D02*
X82810000Y-185495000D01*
X101760000Y-186220000D02*
X100160000Y-186220000D01*
X100110000Y-188345000D02*
X101810000Y-188345000D01*
X100110000Y-185495000D02*
X100110000Y-188345000D01*
X101810000Y-185495000D02*
X101810000Y-188345000D01*
X100110000Y-185495000D02*
X101810000Y-185495000D01*
X120760000Y-186220000D02*
X119160000Y-186220000D01*
X119110000Y-188345000D02*
X120810000Y-188345000D01*
X119110000Y-185495000D02*
X119110000Y-188345000D01*
X120810000Y-185495000D02*
X120810000Y-188345000D01*
X119110000Y-185495000D02*
X120810000Y-185495000D01*
X139760000Y-186220000D02*
X138160000Y-186220000D01*
X138110000Y-188345000D02*
X139810000Y-188345000D01*
X138110000Y-185495000D02*
X138110000Y-188345000D01*
X139810000Y-185495000D02*
X139810000Y-188345000D01*
X138110000Y-185495000D02*
X139810000Y-185495000D01*
X158760000Y-186220000D02*
X157160000Y-186220000D01*
X157110000Y-188345000D02*
X158810000Y-188345000D01*
X157110000Y-185495000D02*
X157110000Y-188345000D01*
X158810000Y-185495000D02*
X158810000Y-188345000D01*
X157110000Y-185495000D02*
X158810000Y-185495000D01*
X177760000Y-186220000D02*
X176160000Y-186220000D01*
X176110000Y-188345000D02*
X177810000Y-188345000D01*
X176110000Y-185495000D02*
X176110000Y-188345000D01*
X177810000Y-185495000D02*
X177810000Y-188345000D01*
X176110000Y-185495000D02*
X177810000Y-185495000D01*
X196760000Y-186220000D02*
X195160000Y-186220000D01*
X195110000Y-188345000D02*
X196810000Y-188345000D01*
X195110000Y-185495000D02*
X195110000Y-188345000D01*
X196810000Y-185495000D02*
X196810000Y-188345000D01*
X195110000Y-185495000D02*
X196810000Y-185495000D01*
X211260000Y-186220000D02*
X209660000Y-186220000D01*
X209610000Y-188345000D02*
X211310000Y-188345000D01*
X209610000Y-185495000D02*
X209610000Y-188345000D01*
X211310000Y-185495000D02*
X211310000Y-188345000D01*
X209610000Y-185495000D02*
X211310000Y-185495000D01*
X246760000Y-186220000D02*
X245160000Y-186220000D01*
X245110000Y-188345000D02*
X246810000Y-188345000D01*
X245110000Y-185495000D02*
X245110000Y-188345000D01*
X246810000Y-185495000D02*
X246810000Y-188345000D01*
X245110000Y-185495000D02*
X246810000Y-185495000D01*
X253760000Y-186220000D02*
X252160000Y-186220000D01*
X252110000Y-188345000D02*
X253810000Y-188345000D01*
X252110000Y-185495000D02*
X252110000Y-188345000D01*
X253810000Y-185495000D02*
X253810000Y-188345000D01*
X252110000Y-185495000D02*
X253810000Y-185495000D01*
X46760000Y-167220000D02*
X45160000Y-167220000D01*
X45110000Y-169345000D02*
X46810000Y-169345000D01*
X45110000Y-166495000D02*
X45110000Y-169345000D01*
X46810000Y-166495000D02*
X46810000Y-169345000D01*
X45110000Y-166495000D02*
X46810000Y-166495000D01*
X63760000Y-167220000D02*
X62160000Y-167220000D01*
X62110000Y-169345000D02*
X63810000Y-169345000D01*
X62110000Y-166495000D02*
X62110000Y-169345000D01*
X63810000Y-166495000D02*
X63810000Y-169345000D01*
X62110000Y-166495000D02*
X63810000Y-166495000D01*
X82760000Y-167220000D02*
X81160000Y-167220000D01*
X81110000Y-169345000D02*
X82810000Y-169345000D01*
X81110000Y-166495000D02*
X81110000Y-169345000D01*
X82810000Y-166495000D02*
X82810000Y-169345000D01*
X81110000Y-166495000D02*
X82810000Y-166495000D01*
X101760000Y-167220000D02*
X100160000Y-167220000D01*
X100110000Y-169345000D02*
X101810000Y-169345000D01*
X100110000Y-166495000D02*
X100110000Y-169345000D01*
X101810000Y-166495000D02*
X101810000Y-169345000D01*
X100110000Y-166495000D02*
X101810000Y-166495000D01*
X120760000Y-167220000D02*
X119160000Y-167220000D01*
X119110000Y-169345000D02*
X120810000Y-169345000D01*
X119110000Y-166495000D02*
X119110000Y-169345000D01*
X120810000Y-166495000D02*
X120810000Y-169345000D01*
X119110000Y-166495000D02*
X120810000Y-166495000D01*
X139760000Y-167220000D02*
X138160000Y-167220000D01*
X138110000Y-169345000D02*
X139810000Y-169345000D01*
X138110000Y-166495000D02*
X138110000Y-169345000D01*
X139810000Y-166495000D02*
X139810000Y-169345000D01*
X138110000Y-166495000D02*
X139810000Y-166495000D01*
X158760000Y-167220000D02*
X157160000Y-167220000D01*
X157110000Y-169345000D02*
X158810000Y-169345000D01*
X157110000Y-166495000D02*
X157110000Y-169345000D01*
X158810000Y-166495000D02*
X158810000Y-169345000D01*
X157110000Y-166495000D02*
X158810000Y-166495000D01*
X177760000Y-167220000D02*
X176160000Y-167220000D01*
X176110000Y-169345000D02*
X177810000Y-169345000D01*
X176110000Y-166495000D02*
X176110000Y-169345000D01*
X177810000Y-166495000D02*
X177810000Y-169345000D01*
X176110000Y-166495000D02*
X177810000Y-166495000D01*
X196760000Y-167220000D02*
X195160000Y-167220000D01*
X195110000Y-169345000D02*
X196810000Y-169345000D01*
X195110000Y-166495000D02*
X195110000Y-169345000D01*
X196810000Y-166495000D02*
X196810000Y-169345000D01*
X195110000Y-166495000D02*
X196810000Y-166495000D01*
X215760000Y-167220000D02*
X214160000Y-167220000D01*
X214110000Y-169345000D02*
X215810000Y-169345000D01*
X214110000Y-166495000D02*
X214110000Y-169345000D01*
X215810000Y-166495000D02*
X215810000Y-169345000D01*
X214110000Y-166495000D02*
X215810000Y-166495000D01*
X257260000Y-186220000D02*
X255660000Y-186220000D01*
X255610000Y-188345000D02*
X257310000Y-188345000D01*
X255610000Y-185495000D02*
X255610000Y-188345000D01*
X257310000Y-185495000D02*
X257310000Y-188345000D01*
X255610000Y-185495000D02*
X257310000Y-185495000D01*
X253760000Y-167220000D02*
X252160000Y-167220000D01*
X252110000Y-169345000D02*
X253810000Y-169345000D01*
X252110000Y-166495000D02*
X252110000Y-169345000D01*
X253810000Y-166495000D02*
X253810000Y-169345000D01*
X252110000Y-166495000D02*
X253810000Y-166495000D01*
X151760000Y-224220000D02*
X150160000Y-224220000D01*
X150110000Y-226345000D02*
X151810000Y-226345000D01*
X150110000Y-223495000D02*
X150110000Y-226345000D01*
X151810000Y-223495000D02*
X151810000Y-226345000D01*
X150110000Y-223495000D02*
X151810000Y-223495000D01*
X189760000Y-224220000D02*
X188160000Y-224220000D01*
X188110000Y-226345000D02*
X189810000Y-226345000D01*
X188110000Y-223495000D02*
X188110000Y-226345000D01*
X189810000Y-223495000D02*
X189810000Y-226345000D01*
X188110000Y-223495000D02*
X189810000Y-223495000D01*
X222785000Y-166295000D02*
X221135000Y-166295000D01*
X221135000Y-166295000D02*
X221135000Y-169545000D01*
X222785000Y-169545000D02*
X221135000Y-169545000D01*
X222785000Y-166295000D02*
X222785000Y-169545000D01*
X239660000Y-169020000D02*
X241260000Y-169020000D01*
X241260000Y-169020000D02*
X241260000Y-165820000D01*
X239660000Y-165820000D02*
X241260000Y-165820000D01*
X239660000Y-169020000D02*
X239660000Y-165820000D01*
X238160000Y-167370000D02*
X238160000Y-169470000D01*
X236760000Y-167370000D02*
X236760000Y-169470000D01*
X238160000Y-169470000D02*
X236760000Y-169470000D01*
X238160000Y-167370000D02*
X236760000Y-167370000D01*
X225160000Y-167370000D02*
X225160000Y-169470000D01*
X223760000Y-167370000D02*
X223760000Y-169470000D01*
X225160000Y-169470000D02*
X223760000Y-169470000D01*
X225160000Y-167370000D02*
X223760000Y-167370000D01*
X231760000Y-180470000D02*
X231760000Y-178370000D01*
X233160000Y-180470000D02*
X233160000Y-178370000D01*
X231760000Y-178370000D02*
X233160000Y-178370000D01*
X231760000Y-180470000D02*
X233160000Y-180470000D01*
X229760000Y-180470000D02*
X229760000Y-178370000D01*
X231160000Y-180470000D02*
X231160000Y-178370000D01*
X229760000Y-178370000D02*
X231160000Y-178370000D01*
X229760000Y-180470000D02*
X231160000Y-180470000D01*
X213760000Y-183970000D02*
X213760000Y-181870000D01*
X215160000Y-183970000D02*
X215160000Y-181870000D01*
X213760000Y-181870000D02*
X215160000Y-181870000D01*
X213760000Y-183970000D02*
X215160000Y-183970000D01*
X241660000Y-186370000D02*
X241660000Y-188470000D01*
X240260000Y-186370000D02*
X240260000Y-188470000D01*
X241660000Y-188470000D02*
X240260000Y-188470000D01*
X241660000Y-186370000D02*
X240260000Y-186370000D01*
X229710000Y-170420000D02*
X230210000Y-170920000D01*
X230210000Y-170920000D02*
X232210000Y-170920000D01*
X232210000Y-170920000D02*
X232210000Y-169920000D01*
X229710000Y-169920000D02*
X232210000Y-169920000D01*
X229710000Y-170420000D02*
X229710000Y-169920000D01*
X217010000Y-185320000D02*
G75*
G02X216710000Y-185620000I-300000J0D01*
G01*
X219210000Y-185620000D02*
G75*
G02X218910000Y-185320000I0J300000D01*
G01*
X218910000Y-188520000D02*
G75*
G02X219210000Y-188220000I300000J0D01*
G01*
X216710000Y-188220000D02*
G75*
G02X217010000Y-188520000I0J-300000D01*
G01*
X218910000Y-188520000D02*
X217010000Y-188520000D01*
X216710000Y-188220000D02*
X216710000Y-185620000D01*
X218910000Y-185320000D02*
X217010000Y-185320000D01*
X219210000Y-188220000D02*
X219210000Y-185620000D01*
X220535000Y-188945000D02*
X220535000Y-185895000D01*
X222385000Y-188945000D02*
X220535000Y-188945000D01*
X222385000Y-185895000D02*
X220535000Y-185895000D01*
X222385000Y-188945000D02*
X222385000Y-185895000D01*
X215385000Y-185895000D02*
X215385000Y-188945000D01*
X213535000Y-185895000D02*
X215385000Y-185895000D01*
X213535000Y-188945000D02*
X215385000Y-188945000D01*
X213535000Y-185895000D02*
X213535000Y-188945000D01*
X225985000Y-182845000D02*
X222935000Y-182845000D01*
X225985000Y-180995000D02*
X225985000Y-182845000D01*
X222935000Y-180995000D02*
X222935000Y-182845000D01*
X225985000Y-180995000D02*
X222935000Y-180995000D01*
X235935000Y-180495000D02*
X238985000Y-180495000D01*
X235935000Y-182345000D02*
X235935000Y-180495000D01*
X238985000Y-182345000D02*
X238985000Y-180495000D01*
X235935000Y-182345000D02*
X238985000Y-182345000D01*
X225985000Y-185845000D02*
X222935000Y-185845000D01*
X225985000Y-183995000D02*
X225985000Y-185845000D01*
X222935000Y-183995000D02*
X222935000Y-185845000D01*
X225985000Y-183995000D02*
X222935000Y-183995000D01*
X235935000Y-186995000D02*
X238985000Y-186995000D01*
X235935000Y-188845000D02*
X235935000Y-186995000D01*
X238985000Y-188845000D02*
X238985000Y-186995000D01*
X235935000Y-188845000D02*
X238985000Y-188845000D01*
X229385000Y-191395000D02*
X229385000Y-194445000D01*
X227535000Y-191395000D02*
X229385000Y-191395000D01*
X227535000Y-194445000D02*
X229385000Y-194445000D01*
X227535000Y-191395000D02*
X227535000Y-194445000D01*
X235935000Y-182995000D02*
X238985000Y-182995000D01*
X235935000Y-184845000D02*
X235935000Y-182995000D01*
X238985000Y-184845000D02*
X238985000Y-182995000D01*
X235935000Y-184845000D02*
X238985000Y-184845000D01*
X47438624Y-230905136D02*
G75*
G03X50174858Y-232675086I2736234J1230050D01*
G01*
X47438624Y-230905136D02*
G75*
G03X47225000Y-230785000I-213624J-129864D01*
G01*
X54775000Y-232925000D02*
G75*
G03X54525000Y-232675000I-250000J0D01*
G01*
X43875000Y-233675000D02*
G75*
G03X46875000Y-236675000I3000000J0D01*
G01*
X54525000Y-232675000D02*
X50174858Y-232675086D01*
X47225000Y-230785000D02*
X43875000Y-230785000D01*
X43875000Y-233675000D02*
X43875000Y-230785000D01*
X54775000Y-236675000D02*
X54775000Y-232925000D01*
X46875000Y-236675000D02*
X54775000Y-236675000D01*
X66438624Y-230905136D02*
G75*
G03X69174858Y-232675086I2736234J1230050D01*
G01*
X66438624Y-230905136D02*
G75*
G03X66225000Y-230785000I-213624J-129864D01*
G01*
X73775000Y-232925000D02*
G75*
G03X73525000Y-232675000I-250000J0D01*
G01*
X62875000Y-233675000D02*
G75*
G03X65875000Y-236675000I3000000J0D01*
G01*
X73525000Y-232675000D02*
X69174858Y-232675086D01*
X66225000Y-230785000D02*
X62875000Y-230785000D01*
X62875000Y-233675000D02*
X62875000Y-230785000D01*
X73775000Y-236675000D02*
X73775000Y-232925000D01*
X65875000Y-236675000D02*
X73775000Y-236675000D01*
X85438624Y-230905136D02*
G75*
G03X88174858Y-232675086I2736234J1230050D01*
G01*
X85438624Y-230905136D02*
G75*
G03X85225000Y-230785000I-213624J-129864D01*
G01*
X92775000Y-232925000D02*
G75*
G03X92525000Y-232675000I-250000J0D01*
G01*
X81875000Y-233675000D02*
G75*
G03X84875000Y-236675000I3000000J0D01*
G01*
X92525000Y-232675000D02*
X88174858Y-232675086D01*
X85225000Y-230785000D02*
X81875000Y-230785000D01*
X81875000Y-233675000D02*
X81875000Y-230785000D01*
X92775000Y-236675000D02*
X92775000Y-232925000D01*
X84875000Y-236675000D02*
X92775000Y-236675000D01*
X104438624Y-230905136D02*
G75*
G03X107174858Y-232675086I2736234J1230050D01*
G01*
X104438624Y-230905136D02*
G75*
G03X104225000Y-230785000I-213624J-129864D01*
G01*
X111775000Y-232925000D02*
G75*
G03X111525000Y-232675000I-250000J0D01*
G01*
X100875000Y-233675000D02*
G75*
G03X103875000Y-236675000I3000000J0D01*
G01*
X111525000Y-232675000D02*
X107174858Y-232675086D01*
X104225000Y-230785000D02*
X100875000Y-230785000D01*
X100875000Y-233675000D02*
X100875000Y-230785000D01*
X111775000Y-236675000D02*
X111775000Y-232925000D01*
X103875000Y-236675000D02*
X111775000Y-236675000D01*
X123438624Y-230905136D02*
G75*
G03X126174858Y-232675086I2736234J1230050D01*
G01*
X123438624Y-230905136D02*
G75*
G03X123225000Y-230785000I-213624J-129864D01*
G01*
X130775000Y-232925000D02*
G75*
G03X130525000Y-232675000I-250000J0D01*
G01*
X119875000Y-233675000D02*
G75*
G03X122875000Y-236675000I3000000J0D01*
G01*
X130525000Y-232675000D02*
X126174858Y-232675086D01*
X123225000Y-230785000D02*
X119875000Y-230785000D01*
X119875000Y-233675000D02*
X119875000Y-230785000D01*
X130775000Y-236675000D02*
X130775000Y-232925000D01*
X122875000Y-236675000D02*
X130775000Y-236675000D01*
X142438624Y-230905136D02*
G75*
G03X145174858Y-232675086I2736234J1230050D01*
G01*
X142438624Y-230905136D02*
G75*
G03X142225000Y-230785000I-213624J-129864D01*
G01*
X149775000Y-232925000D02*
G75*
G03X149525000Y-232675000I-250000J0D01*
G01*
X138875000Y-233675000D02*
G75*
G03X141875000Y-236675000I3000000J0D01*
G01*
X149525000Y-232675000D02*
X145174858Y-232675086D01*
X142225000Y-230785000D02*
X138875000Y-230785000D01*
X138875000Y-233675000D02*
X138875000Y-230785000D01*
X149775000Y-236675000D02*
X149775000Y-232925000D01*
X141875000Y-236675000D02*
X149775000Y-236675000D01*
X161438624Y-230905136D02*
G75*
G03X164174858Y-232675086I2736234J1230050D01*
G01*
X161438624Y-230905136D02*
G75*
G03X161225000Y-230785000I-213624J-129864D01*
G01*
X168775000Y-232925000D02*
G75*
G03X168525000Y-232675000I-250000J0D01*
G01*
X157875000Y-233675000D02*
G75*
G03X160875000Y-236675000I3000000J0D01*
G01*
X168525000Y-232675000D02*
X164174858Y-232675086D01*
X161225000Y-230785000D02*
X157875000Y-230785000D01*
X157875000Y-233675000D02*
X157875000Y-230785000D01*
X168775000Y-236675000D02*
X168775000Y-232925000D01*
X160875000Y-236675000D02*
X168775000Y-236675000D01*
X180438624Y-230905136D02*
G75*
G03X183174858Y-232675086I2736234J1230050D01*
G01*
X180438624Y-230905136D02*
G75*
G03X180225000Y-230785000I-213624J-129864D01*
G01*
X187775000Y-232925000D02*
G75*
G03X187525000Y-232675000I-250000J0D01*
G01*
X176875000Y-233675000D02*
G75*
G03X179875000Y-236675000I3000000J0D01*
G01*
X187525000Y-232675000D02*
X183174858Y-232675086D01*
X180225000Y-230785000D02*
X176875000Y-230785000D01*
X176875000Y-233675000D02*
X176875000Y-230785000D01*
X187775000Y-236675000D02*
X187775000Y-232925000D01*
X179875000Y-236675000D02*
X187775000Y-236675000D01*
X199438624Y-230905136D02*
G75*
G03X202174858Y-232675086I2736234J1230050D01*
G01*
X199438624Y-230905136D02*
G75*
G03X199225000Y-230785000I-213624J-129864D01*
G01*
X206775000Y-232925000D02*
G75*
G03X206525000Y-232675000I-250000J0D01*
G01*
X195875000Y-233675000D02*
G75*
G03X198875000Y-236675000I3000000J0D01*
G01*
X206525000Y-232675000D02*
X202174858Y-232675086D01*
X199225000Y-230785000D02*
X195875000Y-230785000D01*
X195875000Y-233675000D02*
X195875000Y-230785000D01*
X206775000Y-236675000D02*
X206775000Y-232925000D01*
X198875000Y-236675000D02*
X206775000Y-236675000D01*
X218438624Y-230905136D02*
G75*
G03X221174858Y-232675086I2736234J1230050D01*
G01*
X218438624Y-230905136D02*
G75*
G03X218225000Y-230785000I-213624J-129864D01*
G01*
X225775000Y-232925000D02*
G75*
G03X225525000Y-232675000I-250000J0D01*
G01*
X214875000Y-233675000D02*
G75*
G03X217875000Y-236675000I3000000J0D01*
G01*
X225525000Y-232675000D02*
X221174858Y-232675086D01*
X218225000Y-230785000D02*
X214875000Y-230785000D01*
X214875000Y-233675000D02*
X214875000Y-230785000D01*
X225775000Y-236675000D02*
X225775000Y-232925000D01*
X217875000Y-236675000D02*
X225775000Y-236675000D01*
X237438624Y-230905136D02*
G75*
G03X240174858Y-232675086I2736234J1230050D01*
G01*
X237438624Y-230905136D02*
G75*
G03X237225000Y-230785000I-213624J-129864D01*
G01*
X244775000Y-232925000D02*
G75*
G03X244525000Y-232675000I-250000J0D01*
G01*
X233875000Y-233675000D02*
G75*
G03X236875000Y-236675000I3000000J0D01*
G01*
X244525000Y-232675000D02*
X240174858Y-232675086D01*
X237225000Y-230785000D02*
X233875000Y-230785000D01*
X233875000Y-233675000D02*
X233875000Y-230785000D01*
X244775000Y-236675000D02*
X244775000Y-232925000D01*
X236875000Y-236675000D02*
X244775000Y-236675000D01*
X256438624Y-230905136D02*
G75*
G03X259174858Y-232675086I2736234J1230050D01*
G01*
X256438624Y-230905136D02*
G75*
G03X256225000Y-230785000I-213624J-129864D01*
G01*
X263775000Y-232925000D02*
G75*
G03X263525000Y-232675000I-250000J0D01*
G01*
X252875000Y-233675000D02*
G75*
G03X255875000Y-236675000I3000000J0D01*
G01*
X263525000Y-232675000D02*
X259174858Y-232675086D01*
X256225000Y-230785000D02*
X252875000Y-230785000D01*
X252875000Y-233675000D02*
X252875000Y-230785000D01*
X263775000Y-236675000D02*
X263775000Y-232925000D01*
X255875000Y-236675000D02*
X263775000Y-236675000D01*
X47438624Y-211905136D02*
G75*
G03X50174858Y-213675086I2736234J1230050D01*
G01*
X47438624Y-211905136D02*
G75*
G03X47225000Y-211785000I-213624J-129864D01*
G01*
X54775000Y-213925000D02*
G75*
G03X54525000Y-213675000I-250000J0D01*
G01*
X43875000Y-214675000D02*
G75*
G03X46875000Y-217675000I3000000J0D01*
G01*
X54525000Y-213675000D02*
X50174858Y-213675086D01*
X47225000Y-211785000D02*
X43875000Y-211785000D01*
X43875000Y-214675000D02*
X43875000Y-211785000D01*
X54775000Y-217675000D02*
X54775000Y-213925000D01*
X46875000Y-217675000D02*
X54775000Y-217675000D01*
X66438624Y-211905136D02*
G75*
G03X69174858Y-213675086I2736234J1230050D01*
G01*
X66438624Y-211905136D02*
G75*
G03X66225000Y-211785000I-213624J-129864D01*
G01*
X73775000Y-213925000D02*
G75*
G03X73525000Y-213675000I-250000J0D01*
G01*
X62875000Y-214675000D02*
G75*
G03X65875000Y-217675000I3000000J0D01*
G01*
X73525000Y-213675000D02*
X69174858Y-213675086D01*
X66225000Y-211785000D02*
X62875000Y-211785000D01*
X62875000Y-214675000D02*
X62875000Y-211785000D01*
X73775000Y-217675000D02*
X73775000Y-213925000D01*
X65875000Y-217675000D02*
X73775000Y-217675000D01*
X85438624Y-211905136D02*
G75*
G03X88174858Y-213675086I2736234J1230050D01*
G01*
X85438624Y-211905136D02*
G75*
G03X85225000Y-211785000I-213624J-129864D01*
G01*
X92775000Y-213925000D02*
G75*
G03X92525000Y-213675000I-250000J0D01*
G01*
X81875000Y-214675000D02*
G75*
G03X84875000Y-217675000I3000000J0D01*
G01*
X92525000Y-213675000D02*
X88174858Y-213675086D01*
X85225000Y-211785000D02*
X81875000Y-211785000D01*
X81875000Y-214675000D02*
X81875000Y-211785000D01*
X92775000Y-217675000D02*
X92775000Y-213925000D01*
X84875000Y-217675000D02*
X92775000Y-217675000D01*
X104438624Y-211905136D02*
G75*
G03X107174858Y-213675086I2736234J1230050D01*
G01*
X104438624Y-211905136D02*
G75*
G03X104225000Y-211785000I-213624J-129864D01*
G01*
X111775000Y-213925000D02*
G75*
G03X111525000Y-213675000I-250000J0D01*
G01*
X100875000Y-214675000D02*
G75*
G03X103875000Y-217675000I3000000J0D01*
G01*
X111525000Y-213675000D02*
X107174858Y-213675086D01*
X104225000Y-211785000D02*
X100875000Y-211785000D01*
X100875000Y-214675000D02*
X100875000Y-211785000D01*
X111775000Y-217675000D02*
X111775000Y-213925000D01*
X103875000Y-217675000D02*
X111775000Y-217675000D01*
X123438624Y-211905136D02*
G75*
G03X126174858Y-213675086I2736234J1230050D01*
G01*
X123438624Y-211905136D02*
G75*
G03X123225000Y-211785000I-213624J-129864D01*
G01*
X130775000Y-213925000D02*
G75*
G03X130525000Y-213675000I-250000J0D01*
G01*
X119875000Y-214675000D02*
G75*
G03X122875000Y-217675000I3000000J0D01*
G01*
X130525000Y-213675000D02*
X126174858Y-213675086D01*
X123225000Y-211785000D02*
X119875000Y-211785000D01*
X119875000Y-214675000D02*
X119875000Y-211785000D01*
X130775000Y-217675000D02*
X130775000Y-213925000D01*
X122875000Y-217675000D02*
X130775000Y-217675000D01*
X142438624Y-211905136D02*
G75*
G03X145174858Y-213675086I2736234J1230050D01*
G01*
X142438624Y-211905136D02*
G75*
G03X142225000Y-211785000I-213624J-129864D01*
G01*
X149775000Y-213925000D02*
G75*
G03X149525000Y-213675000I-250000J0D01*
G01*
X138875000Y-214675000D02*
G75*
G03X141875000Y-217675000I3000000J0D01*
G01*
X149525000Y-213675000D02*
X145174858Y-213675086D01*
X142225000Y-211785000D02*
X138875000Y-211785000D01*
X138875000Y-214675000D02*
X138875000Y-211785000D01*
X149775000Y-217675000D02*
X149775000Y-213925000D01*
X141875000Y-217675000D02*
X149775000Y-217675000D01*
X161438624Y-211905136D02*
G75*
G03X164174858Y-213675086I2736234J1230050D01*
G01*
X161438624Y-211905136D02*
G75*
G03X161225000Y-211785000I-213624J-129864D01*
G01*
X168775000Y-213925000D02*
G75*
G03X168525000Y-213675000I-250000J0D01*
G01*
X157875000Y-214675000D02*
G75*
G03X160875000Y-217675000I3000000J0D01*
G01*
X168525000Y-213675000D02*
X164174858Y-213675086D01*
X161225000Y-211785000D02*
X157875000Y-211785000D01*
X157875000Y-214675000D02*
X157875000Y-211785000D01*
X168775000Y-217675000D02*
X168775000Y-213925000D01*
X160875000Y-217675000D02*
X168775000Y-217675000D01*
X180438624Y-211905136D02*
G75*
G03X183174858Y-213675086I2736234J1230050D01*
G01*
X180438624Y-211905136D02*
G75*
G03X180225000Y-211785000I-213624J-129864D01*
G01*
X187775000Y-213925000D02*
G75*
G03X187525000Y-213675000I-250000J0D01*
G01*
X176875000Y-214675000D02*
G75*
G03X179875000Y-217675000I3000000J0D01*
G01*
X187525000Y-213675000D02*
X183174858Y-213675086D01*
X180225000Y-211785000D02*
X176875000Y-211785000D01*
X176875000Y-214675000D02*
X176875000Y-211785000D01*
X187775000Y-217675000D02*
X187775000Y-213925000D01*
X179875000Y-217675000D02*
X187775000Y-217675000D01*
X199438624Y-211905136D02*
G75*
G03X202174858Y-213675086I2736234J1230050D01*
G01*
X199438624Y-211905136D02*
G75*
G03X199225000Y-211785000I-213624J-129864D01*
G01*
X206775000Y-213925000D02*
G75*
G03X206525000Y-213675000I-250000J0D01*
G01*
X195875000Y-214675000D02*
G75*
G03X198875000Y-217675000I3000000J0D01*
G01*
X206525000Y-213675000D02*
X202174858Y-213675086D01*
X199225000Y-211785000D02*
X195875000Y-211785000D01*
X195875000Y-214675000D02*
X195875000Y-211785000D01*
X206775000Y-217675000D02*
X206775000Y-213925000D01*
X198875000Y-217675000D02*
X206775000Y-217675000D01*
X218438624Y-211905136D02*
G75*
G03X221174858Y-213675086I2736234J1230050D01*
G01*
X218438624Y-211905136D02*
G75*
G03X218225000Y-211785000I-213624J-129864D01*
G01*
X225775000Y-213925000D02*
G75*
G03X225525000Y-213675000I-250000J0D01*
G01*
X214875000Y-214675000D02*
G75*
G03X217875000Y-217675000I3000000J0D01*
G01*
X225525000Y-213675000D02*
X221174858Y-213675086D01*
X218225000Y-211785000D02*
X214875000Y-211785000D01*
X214875000Y-214675000D02*
X214875000Y-211785000D01*
X225775000Y-217675000D02*
X225775000Y-213925000D01*
X217875000Y-217675000D02*
X225775000Y-217675000D01*
X237438624Y-211905136D02*
G75*
G03X240174858Y-213675086I2736234J1230050D01*
G01*
X237438624Y-211905136D02*
G75*
G03X237225000Y-211785000I-213624J-129864D01*
G01*
X244775000Y-213925000D02*
G75*
G03X244525000Y-213675000I-250000J0D01*
G01*
X233875000Y-214675000D02*
G75*
G03X236875000Y-217675000I3000000J0D01*
G01*
X244525000Y-213675000D02*
X240174858Y-213675086D01*
X237225000Y-211785000D02*
X233875000Y-211785000D01*
X233875000Y-214675000D02*
X233875000Y-211785000D01*
X244775000Y-217675000D02*
X244775000Y-213925000D01*
X236875000Y-217675000D02*
X244775000Y-217675000D01*
X256438624Y-211905136D02*
G75*
G03X259174858Y-213675086I2736234J1230050D01*
G01*
X256438624Y-211905136D02*
G75*
G03X256225000Y-211785000I-213624J-129864D01*
G01*
X263775000Y-213925000D02*
G75*
G03X263525000Y-213675000I-250000J0D01*
G01*
X252875000Y-214675000D02*
G75*
G03X255875000Y-217675000I3000000J0D01*
G01*
X263525000Y-213675000D02*
X259174858Y-213675086D01*
X256225000Y-211785000D02*
X252875000Y-211785000D01*
X252875000Y-214675000D02*
X252875000Y-211785000D01*
X263775000Y-217675000D02*
X263775000Y-213925000D01*
X255875000Y-217675000D02*
X263775000Y-217675000D01*
X47438624Y-192905136D02*
G75*
G03X50174858Y-194675086I2736234J1230050D01*
G01*
X47438624Y-192905136D02*
G75*
G03X47225000Y-192785000I-213624J-129864D01*
G01*
X54775000Y-194925000D02*
G75*
G03X54525000Y-194675000I-250000J0D01*
G01*
X43875000Y-195675000D02*
G75*
G03X46875000Y-198675000I3000000J0D01*
G01*
X54525000Y-194675000D02*
X50174858Y-194675086D01*
X47225000Y-192785000D02*
X43875000Y-192785000D01*
X43875000Y-195675000D02*
X43875000Y-192785000D01*
X54775000Y-198675000D02*
X54775000Y-194925000D01*
X46875000Y-198675000D02*
X54775000Y-198675000D01*
X66438624Y-192905136D02*
G75*
G03X69174858Y-194675086I2736234J1230050D01*
G01*
X66438624Y-192905136D02*
G75*
G03X66225000Y-192785000I-213624J-129864D01*
G01*
X73775000Y-194925000D02*
G75*
G03X73525000Y-194675000I-250000J0D01*
G01*
X62875000Y-195675000D02*
G75*
G03X65875000Y-198675000I3000000J0D01*
G01*
X73525000Y-194675000D02*
X69174858Y-194675086D01*
X66225000Y-192785000D02*
X62875000Y-192785000D01*
X62875000Y-195675000D02*
X62875000Y-192785000D01*
X73775000Y-198675000D02*
X73775000Y-194925000D01*
X65875000Y-198675000D02*
X73775000Y-198675000D01*
X85438624Y-192905136D02*
G75*
G03X88174858Y-194675086I2736234J1230050D01*
G01*
X85438624Y-192905136D02*
G75*
G03X85225000Y-192785000I-213624J-129864D01*
G01*
X92775000Y-194925000D02*
G75*
G03X92525000Y-194675000I-250000J0D01*
G01*
X81875000Y-195675000D02*
G75*
G03X84875000Y-198675000I3000000J0D01*
G01*
X92525000Y-194675000D02*
X88174858Y-194675086D01*
X85225000Y-192785000D02*
X81875000Y-192785000D01*
X81875000Y-195675000D02*
X81875000Y-192785000D01*
X92775000Y-198675000D02*
X92775000Y-194925000D01*
X84875000Y-198675000D02*
X92775000Y-198675000D01*
X104438624Y-192905136D02*
G75*
G03X107174858Y-194675086I2736234J1230050D01*
G01*
X104438624Y-192905136D02*
G75*
G03X104225000Y-192785000I-213624J-129864D01*
G01*
X111775000Y-194925000D02*
G75*
G03X111525000Y-194675000I-250000J0D01*
G01*
X100875000Y-195675000D02*
G75*
G03X103875000Y-198675000I3000000J0D01*
G01*
X111525000Y-194675000D02*
X107174858Y-194675086D01*
X104225000Y-192785000D02*
X100875000Y-192785000D01*
X100875000Y-195675000D02*
X100875000Y-192785000D01*
X111775000Y-198675000D02*
X111775000Y-194925000D01*
X103875000Y-198675000D02*
X111775000Y-198675000D01*
X123438624Y-192905136D02*
G75*
G03X126174858Y-194675086I2736234J1230050D01*
G01*
X123438624Y-192905136D02*
G75*
G03X123225000Y-192785000I-213624J-129864D01*
G01*
X130775000Y-194925000D02*
G75*
G03X130525000Y-194675000I-250000J0D01*
G01*
X119875000Y-195675000D02*
G75*
G03X122875000Y-198675000I3000000J0D01*
G01*
X130525000Y-194675000D02*
X126174858Y-194675086D01*
X123225000Y-192785000D02*
X119875000Y-192785000D01*
X119875000Y-195675000D02*
X119875000Y-192785000D01*
X130775000Y-198675000D02*
X130775000Y-194925000D01*
X122875000Y-198675000D02*
X130775000Y-198675000D01*
X142438624Y-192905136D02*
G75*
G03X145174858Y-194675086I2736234J1230050D01*
G01*
X142438624Y-192905136D02*
G75*
G03X142225000Y-192785000I-213624J-129864D01*
G01*
X149775000Y-194925000D02*
G75*
G03X149525000Y-194675000I-250000J0D01*
G01*
X138875000Y-195675000D02*
G75*
G03X141875000Y-198675000I3000000J0D01*
G01*
X149525000Y-194675000D02*
X145174858Y-194675086D01*
X142225000Y-192785000D02*
X138875000Y-192785000D01*
X138875000Y-195675000D02*
X138875000Y-192785000D01*
X149775000Y-198675000D02*
X149775000Y-194925000D01*
X141875000Y-198675000D02*
X149775000Y-198675000D01*
X161438624Y-192905136D02*
G75*
G03X164174858Y-194675086I2736234J1230050D01*
G01*
X161438624Y-192905136D02*
G75*
G03X161225000Y-192785000I-213624J-129864D01*
G01*
X168775000Y-194925000D02*
G75*
G03X168525000Y-194675000I-250000J0D01*
G01*
X157875000Y-195675000D02*
G75*
G03X160875000Y-198675000I3000000J0D01*
G01*
X168525000Y-194675000D02*
X164174858Y-194675086D01*
X161225000Y-192785000D02*
X157875000Y-192785000D01*
X157875000Y-195675000D02*
X157875000Y-192785000D01*
X168775000Y-198675000D02*
X168775000Y-194925000D01*
X160875000Y-198675000D02*
X168775000Y-198675000D01*
X180438624Y-192905136D02*
G75*
G03X183174858Y-194675086I2736234J1230050D01*
G01*
X180438624Y-192905136D02*
G75*
G03X180225000Y-192785000I-213624J-129864D01*
G01*
X187775000Y-194925000D02*
G75*
G03X187525000Y-194675000I-250000J0D01*
G01*
X176875000Y-195675000D02*
G75*
G03X179875000Y-198675000I3000000J0D01*
G01*
X187525000Y-194675000D02*
X183174858Y-194675086D01*
X180225000Y-192785000D02*
X176875000Y-192785000D01*
X176875000Y-195675000D02*
X176875000Y-192785000D01*
X187775000Y-198675000D02*
X187775000Y-194925000D01*
X179875000Y-198675000D02*
X187775000Y-198675000D01*
X199438624Y-192905136D02*
G75*
G03X202174858Y-194675086I2736234J1230050D01*
G01*
X199438624Y-192905136D02*
G75*
G03X199225000Y-192785000I-213624J-129864D01*
G01*
X206775000Y-194925000D02*
G75*
G03X206525000Y-194675000I-250000J0D01*
G01*
X195875000Y-195675000D02*
G75*
G03X198875000Y-198675000I3000000J0D01*
G01*
X206525000Y-194675000D02*
X202174858Y-194675086D01*
X199225000Y-192785000D02*
X195875000Y-192785000D01*
X195875000Y-195675000D02*
X195875000Y-192785000D01*
X206775000Y-198675000D02*
X206775000Y-194925000D01*
X198875000Y-198675000D02*
X206775000Y-198675000D01*
X218438624Y-192905136D02*
G75*
G03X221174858Y-194675086I2736234J1230050D01*
G01*
X218438624Y-192905136D02*
G75*
G03X218225000Y-192785000I-213624J-129864D01*
G01*
X225775000Y-194925000D02*
G75*
G03X225525000Y-194675000I-250000J0D01*
G01*
X214875000Y-195675000D02*
G75*
G03X217875000Y-198675000I3000000J0D01*
G01*
X225525000Y-194675000D02*
X221174858Y-194675086D01*
X218225000Y-192785000D02*
X214875000Y-192785000D01*
X214875000Y-195675000D02*
X214875000Y-192785000D01*
X225775000Y-198675000D02*
X225775000Y-194925000D01*
X217875000Y-198675000D02*
X225775000Y-198675000D01*
X237438624Y-192905136D02*
G75*
G03X240174858Y-194675086I2736234J1230050D01*
G01*
X237438624Y-192905136D02*
G75*
G03X237225000Y-192785000I-213624J-129864D01*
G01*
X244775000Y-194925000D02*
G75*
G03X244525000Y-194675000I-250000J0D01*
G01*
X233875000Y-195675000D02*
G75*
G03X236875000Y-198675000I3000000J0D01*
G01*
X244525000Y-194675000D02*
X240174858Y-194675086D01*
X237225000Y-192785000D02*
X233875000Y-192785000D01*
X233875000Y-195675000D02*
X233875000Y-192785000D01*
X244775000Y-198675000D02*
X244775000Y-194925000D01*
X236875000Y-198675000D02*
X244775000Y-198675000D01*
X256438624Y-192905136D02*
G75*
G03X259174858Y-194675086I2736234J1230050D01*
G01*
X256438624Y-192905136D02*
G75*
G03X256225000Y-192785000I-213624J-129864D01*
G01*
X263775000Y-194925000D02*
G75*
G03X263525000Y-194675000I-250000J0D01*
G01*
X252875000Y-195675000D02*
G75*
G03X255875000Y-198675000I3000000J0D01*
G01*
X263525000Y-194675000D02*
X259174858Y-194675086D01*
X256225000Y-192785000D02*
X252875000Y-192785000D01*
X252875000Y-195675000D02*
X252875000Y-192785000D01*
X263775000Y-198675000D02*
X263775000Y-194925000D01*
X255875000Y-198675000D02*
X263775000Y-198675000D01*
X47438624Y-173905136D02*
G75*
G03X50174858Y-175675086I2736234J1230050D01*
G01*
X47438624Y-173905136D02*
G75*
G03X47225000Y-173785000I-213624J-129864D01*
G01*
X54775000Y-175925000D02*
G75*
G03X54525000Y-175675000I-250000J0D01*
G01*
X43875000Y-176675000D02*
G75*
G03X46875000Y-179675000I3000000J0D01*
G01*
X54525000Y-175675000D02*
X50174858Y-175675086D01*
X47225000Y-173785000D02*
X43875000Y-173785000D01*
X43875000Y-176675000D02*
X43875000Y-173785000D01*
X54775000Y-179675000D02*
X54775000Y-175925000D01*
X46875000Y-179675000D02*
X54775000Y-179675000D01*
X66438624Y-173905136D02*
G75*
G03X69174858Y-175675086I2736234J1230050D01*
G01*
X66438624Y-173905136D02*
G75*
G03X66225000Y-173785000I-213624J-129864D01*
G01*
X73775000Y-175925000D02*
G75*
G03X73525000Y-175675000I-250000J0D01*
G01*
X62875000Y-176675000D02*
G75*
G03X65875000Y-179675000I3000000J0D01*
G01*
X73525000Y-175675000D02*
X69174858Y-175675086D01*
X66225000Y-173785000D02*
X62875000Y-173785000D01*
X62875000Y-176675000D02*
X62875000Y-173785000D01*
X73775000Y-179675000D02*
X73775000Y-175925000D01*
X65875000Y-179675000D02*
X73775000Y-179675000D01*
X85438624Y-173905136D02*
G75*
G03X88174858Y-175675086I2736234J1230050D01*
G01*
X85438624Y-173905136D02*
G75*
G03X85225000Y-173785000I-213624J-129864D01*
G01*
X92775000Y-175925000D02*
G75*
G03X92525000Y-175675000I-250000J0D01*
G01*
X81875000Y-176675000D02*
G75*
G03X84875000Y-179675000I3000000J0D01*
G01*
X92525000Y-175675000D02*
X88174858Y-175675086D01*
X85225000Y-173785000D02*
X81875000Y-173785000D01*
X81875000Y-176675000D02*
X81875000Y-173785000D01*
X92775000Y-179675000D02*
X92775000Y-175925000D01*
X84875000Y-179675000D02*
X92775000Y-179675000D01*
X104438624Y-173905136D02*
G75*
G03X107174858Y-175675086I2736234J1230050D01*
G01*
X104438624Y-173905136D02*
G75*
G03X104225000Y-173785000I-213624J-129864D01*
G01*
X111775000Y-175925000D02*
G75*
G03X111525000Y-175675000I-250000J0D01*
G01*
X100875000Y-176675000D02*
G75*
G03X103875000Y-179675000I3000000J0D01*
G01*
X111525000Y-175675000D02*
X107174858Y-175675086D01*
X104225000Y-173785000D02*
X100875000Y-173785000D01*
X100875000Y-176675000D02*
X100875000Y-173785000D01*
X111775000Y-179675000D02*
X111775000Y-175925000D01*
X103875000Y-179675000D02*
X111775000Y-179675000D01*
X123438624Y-173905136D02*
G75*
G03X126174858Y-175675086I2736234J1230050D01*
G01*
X123438624Y-173905136D02*
G75*
G03X123225000Y-173785000I-213624J-129864D01*
G01*
X130775000Y-175925000D02*
G75*
G03X130525000Y-175675000I-250000J0D01*
G01*
X119875000Y-176675000D02*
G75*
G03X122875000Y-179675000I3000000J0D01*
G01*
X130525000Y-175675000D02*
X126174858Y-175675086D01*
X123225000Y-173785000D02*
X119875000Y-173785000D01*
X119875000Y-176675000D02*
X119875000Y-173785000D01*
X130775000Y-179675000D02*
X130775000Y-175925000D01*
X122875000Y-179675000D02*
X130775000Y-179675000D01*
X142438624Y-173905136D02*
G75*
G03X145174858Y-175675086I2736234J1230050D01*
G01*
X142438624Y-173905136D02*
G75*
G03X142225000Y-173785000I-213624J-129864D01*
G01*
X149775000Y-175925000D02*
G75*
G03X149525000Y-175675000I-250000J0D01*
G01*
X138875000Y-176675000D02*
G75*
G03X141875000Y-179675000I3000000J0D01*
G01*
X149525000Y-175675000D02*
X145174858Y-175675086D01*
X142225000Y-173785000D02*
X138875000Y-173785000D01*
X138875000Y-176675000D02*
X138875000Y-173785000D01*
X149775000Y-179675000D02*
X149775000Y-175925000D01*
X141875000Y-179675000D02*
X149775000Y-179675000D01*
X161438624Y-173905136D02*
G75*
G03X164174858Y-175675086I2736234J1230050D01*
G01*
X161438624Y-173905136D02*
G75*
G03X161225000Y-173785000I-213624J-129864D01*
G01*
X168775000Y-175925000D02*
G75*
G03X168525000Y-175675000I-250000J0D01*
G01*
X157875000Y-176675000D02*
G75*
G03X160875000Y-179675000I3000000J0D01*
G01*
X168525000Y-175675000D02*
X164174858Y-175675086D01*
X161225000Y-173785000D02*
X157875000Y-173785000D01*
X157875000Y-176675000D02*
X157875000Y-173785000D01*
X168775000Y-179675000D02*
X168775000Y-175925000D01*
X160875000Y-179675000D02*
X168775000Y-179675000D01*
X180438624Y-173905136D02*
G75*
G03X183174858Y-175675086I2736234J1230050D01*
G01*
X180438624Y-173905136D02*
G75*
G03X180225000Y-173785000I-213624J-129864D01*
G01*
X187775000Y-175925000D02*
G75*
G03X187525000Y-175675000I-250000J0D01*
G01*
X176875000Y-176675000D02*
G75*
G03X179875000Y-179675000I3000000J0D01*
G01*
X187525000Y-175675000D02*
X183174858Y-175675086D01*
X180225000Y-173785000D02*
X176875000Y-173785000D01*
X176875000Y-176675000D02*
X176875000Y-173785000D01*
X187775000Y-179675000D02*
X187775000Y-175925000D01*
X179875000Y-179675000D02*
X187775000Y-179675000D01*
X199438624Y-173905136D02*
G75*
G03X202174858Y-175675086I2736234J1230050D01*
G01*
X199438624Y-173905136D02*
G75*
G03X199225000Y-173785000I-213624J-129864D01*
G01*
X206775000Y-175925000D02*
G75*
G03X206525000Y-175675000I-250000J0D01*
G01*
X195875000Y-176675000D02*
G75*
G03X198875000Y-179675000I3000000J0D01*
G01*
X206525000Y-175675000D02*
X202174858Y-175675086D01*
X199225000Y-173785000D02*
X195875000Y-173785000D01*
X195875000Y-176675000D02*
X195875000Y-173785000D01*
X206775000Y-179675000D02*
X206775000Y-175925000D01*
X198875000Y-179675000D02*
X206775000Y-179675000D01*
X218438624Y-173905136D02*
G75*
G03X221174858Y-175675086I2736234J1230050D01*
G01*
X218438624Y-173905136D02*
G75*
G03X218225000Y-173785000I-213624J-129864D01*
G01*
X225775000Y-175925000D02*
G75*
G03X225525000Y-175675000I-250000J0D01*
G01*
X214875000Y-176675000D02*
G75*
G03X217875000Y-179675000I3000000J0D01*
G01*
X225525000Y-175675000D02*
X221174858Y-175675086D01*
X218225000Y-173785000D02*
X214875000Y-173785000D01*
X214875000Y-176675000D02*
X214875000Y-173785000D01*
X225775000Y-179675000D02*
X225775000Y-175925000D01*
X217875000Y-179675000D02*
X225775000Y-179675000D01*
X237438624Y-173905136D02*
G75*
G03X240174858Y-175675086I2736234J1230050D01*
G01*
X237438624Y-173905136D02*
G75*
G03X237225000Y-173785000I-213624J-129864D01*
G01*
X244775000Y-175925000D02*
G75*
G03X244525000Y-175675000I-250000J0D01*
G01*
X233875000Y-176675000D02*
G75*
G03X236875000Y-179675000I3000000J0D01*
G01*
X244525000Y-175675000D02*
X240174858Y-175675086D01*
X237225000Y-173785000D02*
X233875000Y-173785000D01*
X233875000Y-176675000D02*
X233875000Y-173785000D01*
X244775000Y-179675000D02*
X244775000Y-175925000D01*
X236875000Y-179675000D02*
X244775000Y-179675000D01*
X256438624Y-173905136D02*
G75*
G03X259174858Y-175675086I2736234J1230050D01*
G01*
X256438624Y-173905136D02*
G75*
G03X256225000Y-173785000I-213624J-129864D01*
G01*
X263775000Y-175925000D02*
G75*
G03X263525000Y-175675000I-250000J0D01*
G01*
X252875000Y-176675000D02*
G75*
G03X255875000Y-179675000I3000000J0D01*
G01*
X263525000Y-175675000D02*
X259174858Y-175675086D01*
X256225000Y-173785000D02*
X252875000Y-173785000D01*
X252875000Y-176675000D02*
X252875000Y-173785000D01*
X263775000Y-179675000D02*
X263775000Y-175925000D01*
X255875000Y-179675000D02*
X263775000Y-179675000D01*
X218660000Y-169720000D02*
X220260000Y-169720000D01*
X220260000Y-169720000D02*
X220260000Y-166120000D01*
X218660000Y-166120000D02*
X220260000Y-166120000D01*
X218660000Y-169720000D02*
X218660000Y-166120000D01*
X218660000Y-167720000D02*
X220060000Y-167720000D01*
X219460000Y-168520000D02*
X218660000Y-167720000D01*
X220260000Y-167720000D02*
X220060000Y-167720000D01*
X219460000Y-168520000D02*
X220260000Y-167720000D01*
X141545000Y-226165000D02*
X141545000Y-229055000D01*
X138195000Y-229055000D02*
X141545000Y-229055000D01*
X138545000Y-223165000D02*
X130645000Y-223165000D01*
X130895000Y-227165000D02*
X135245142Y-227164914D01*
X130645000Y-223165000D02*
X130645000Y-226915000D01*
X130645000Y-226915000D02*
G75*
G03X130895000Y-227165000I250000J0D01*
G01*
X141545000Y-226165000D02*
G75*
G03X138545000Y-223165000I-3000000J0D01*
G01*
X137981376Y-228934864D02*
G75*
G03X138195000Y-229055000I213624J129864D01*
G01*
X137981376Y-228934864D02*
G75*
G03X135245142Y-227164914I-2736234J-1230050D01*
G01*
X179545000Y-226165000D02*
X179545000Y-229055000D01*
X176195000Y-229055000D02*
X179545000Y-229055000D01*
X176545000Y-223165000D02*
X168645000Y-223165000D01*
X168895000Y-227165000D02*
X173245142Y-227164914D01*
X168645000Y-223165000D02*
X168645000Y-226915000D01*
X168645000Y-226915000D02*
G75*
G03X168895000Y-227165000I250000J0D01*
G01*
X179545000Y-226165000D02*
G75*
G03X176545000Y-223165000I-3000000J0D01*
G01*
X175981376Y-228934864D02*
G75*
G03X176195000Y-229055000I213624J129864D01*
G01*
X175981376Y-228934864D02*
G75*
G03X173245142Y-227164914I-2736234J-1230050D01*
G01*
X232960000Y-182920000D02*
X234460000Y-184420000D01*
X227460000Y-182920000D02*
X227460000Y-189920000D01*
X227460000Y-182920000D02*
X232960000Y-182920000D01*
X227460000Y-189920000D02*
X234460000Y-189920000D01*
X234460000Y-184420000D02*
X234460000Y-189920000D01*
D10*
X232512380Y-206181904D02*
X231512380Y-206181904D01*
X231512380Y-205943809D01*
X231560000Y-205800952D01*
X231655238Y-205705714D01*
X231750476Y-205658095D01*
X231940952Y-205610476D01*
X232083809Y-205610476D01*
X232274285Y-205658095D01*
X232369523Y-205705714D01*
X232464761Y-205800952D01*
X232512380Y-205943809D01*
X232512380Y-206181904D01*
X234412380Y-207134285D02*
X233412380Y-207134285D01*
X233412380Y-206896190D01*
X233460000Y-206753333D01*
X233555238Y-206658095D01*
X233650476Y-206610476D01*
X233840952Y-206562857D01*
X233983809Y-206562857D01*
X234174285Y-206610476D01*
X234269523Y-206658095D01*
X234364761Y-206753333D01*
X234412380Y-206896190D01*
X234412380Y-207134285D01*
X233507619Y-206181904D02*
X233460000Y-206134285D01*
X233412380Y-206039047D01*
X233412380Y-205800952D01*
X233460000Y-205705714D01*
X233507619Y-205658095D01*
X233602857Y-205610476D01*
X233698095Y-205610476D01*
X233840952Y-205658095D01*
X234412380Y-206229523D01*
X234412380Y-205610476D01*
X233412380Y-205277142D02*
X233412380Y-204658095D01*
X233793333Y-204991428D01*
X233793333Y-204848571D01*
X233840952Y-204753333D01*
X233888571Y-204705714D01*
X233983809Y-204658095D01*
X234221904Y-204658095D01*
X234317142Y-204705714D01*
X234364761Y-204753333D01*
X234412380Y-204848571D01*
X234412380Y-205134285D01*
X234364761Y-205229523D01*
X234317142Y-205277142D01*
X222531428Y-158472380D02*
X222531428Y-159281904D01*
X222579047Y-159377142D01*
X222626666Y-159424761D01*
X222721904Y-159472380D01*
X222912380Y-159472380D01*
X223007619Y-159424761D01*
X223055238Y-159377142D01*
X223102857Y-159281904D01*
X223102857Y-158472380D01*
X223531428Y-159424761D02*
X223674285Y-159472380D01*
X223912380Y-159472380D01*
X224007619Y-159424761D01*
X224055238Y-159377142D01*
X224102857Y-159281904D01*
X224102857Y-159186666D01*
X224055238Y-159091428D01*
X224007619Y-159043809D01*
X223912380Y-158996190D01*
X223721904Y-158948571D01*
X223626666Y-158900952D01*
X223579047Y-158853333D01*
X223531428Y-158758095D01*
X223531428Y-158662857D01*
X223579047Y-158567619D01*
X223626666Y-158520000D01*
X223721904Y-158472380D01*
X223960000Y-158472380D01*
X224102857Y-158520000D01*
X224864761Y-158948571D02*
X225007619Y-158996190D01*
X225055238Y-159043809D01*
X225102857Y-159139047D01*
X225102857Y-159281904D01*
X225055238Y-159377142D01*
X225007619Y-159424761D01*
X224912380Y-159472380D01*
X224531428Y-159472380D01*
X224531428Y-158472380D01*
X224864761Y-158472380D01*
X224960000Y-158520000D01*
X225007619Y-158567619D01*
X225055238Y-158662857D01*
X225055238Y-158758095D01*
X225007619Y-158853333D01*
X224960000Y-158900952D01*
X224864761Y-158948571D01*
X224531428Y-158948571D01*
X225531428Y-159091428D02*
X226293333Y-159091428D01*
X227340952Y-159377142D02*
X227293333Y-159424761D01*
X227150476Y-159472380D01*
X227055238Y-159472380D01*
X226912380Y-159424761D01*
X226817142Y-159329523D01*
X226769523Y-159234285D01*
X226721904Y-159043809D01*
X226721904Y-158900952D01*
X226769523Y-158710476D01*
X226817142Y-158615238D01*
X226912380Y-158520000D01*
X227055238Y-158472380D01*
X227150476Y-158472380D01*
X227293333Y-158520000D01*
X227340952Y-158567619D01*
X227531428Y-159567619D02*
X228293333Y-159567619D01*
X229102857Y-159472380D02*
X228769523Y-158996190D01*
X228531428Y-159472380D02*
X228531428Y-158472380D01*
X228912380Y-158472380D01*
X229007619Y-158520000D01*
X229055238Y-158567619D01*
X229102857Y-158662857D01*
X229102857Y-158805714D01*
X229055238Y-158900952D01*
X229007619Y-158948571D01*
X228912380Y-158996190D01*
X228531428Y-158996190D01*
X229912380Y-159424761D02*
X229817142Y-159472380D01*
X229626666Y-159472380D01*
X229531428Y-159424761D01*
X229483809Y-159329523D01*
X229483809Y-158948571D01*
X229531428Y-158853333D01*
X229626666Y-158805714D01*
X229817142Y-158805714D01*
X229912380Y-158853333D01*
X229960000Y-158948571D01*
X229960000Y-159043809D01*
X229483809Y-159139047D01*
X230817142Y-159424761D02*
X230721904Y-159472380D01*
X230531428Y-159472380D01*
X230436190Y-159424761D01*
X230388571Y-159377142D01*
X230340952Y-159281904D01*
X230340952Y-158996190D01*
X230388571Y-158900952D01*
X230436190Y-158853333D01*
X230531428Y-158805714D01*
X230721904Y-158805714D01*
X230817142Y-158853333D01*
X231626666Y-159424761D02*
X231531428Y-159472380D01*
X231340952Y-159472380D01*
X231245714Y-159424761D01*
X231198095Y-159329523D01*
X231198095Y-158948571D01*
X231245714Y-158853333D01*
X231340952Y-158805714D01*
X231531428Y-158805714D01*
X231626666Y-158853333D01*
X231674285Y-158948571D01*
X231674285Y-159043809D01*
X231198095Y-159139047D01*
X232102857Y-158805714D02*
X232102857Y-159805714D01*
X232102857Y-158853333D02*
X232198095Y-158805714D01*
X232388571Y-158805714D01*
X232483809Y-158853333D01*
X232531428Y-158900952D01*
X232579047Y-158996190D01*
X232579047Y-159281904D01*
X232531428Y-159377142D01*
X232483809Y-159424761D01*
X232388571Y-159472380D01*
X232198095Y-159472380D01*
X232102857Y-159424761D01*
X232864761Y-158805714D02*
X233245714Y-158805714D01*
X233007619Y-158472380D02*
X233007619Y-159329523D01*
X233055238Y-159424761D01*
X233150476Y-159472380D01*
X233245714Y-159472380D01*
X234007619Y-159472380D02*
X234007619Y-158948571D01*
X233960000Y-158853333D01*
X233864761Y-158805714D01*
X233674285Y-158805714D01*
X233579047Y-158853333D01*
X234007619Y-159424761D02*
X233912380Y-159472380D01*
X233674285Y-159472380D01*
X233579047Y-159424761D01*
X233531428Y-159329523D01*
X233531428Y-159234285D01*
X233579047Y-159139047D01*
X233674285Y-159091428D01*
X233912380Y-159091428D01*
X234007619Y-159043809D01*
X234912380Y-159424761D02*
X234817142Y-159472380D01*
X234626666Y-159472380D01*
X234531428Y-159424761D01*
X234483809Y-159377142D01*
X234436190Y-159281904D01*
X234436190Y-158996190D01*
X234483809Y-158900952D01*
X234531428Y-158853333D01*
X234626666Y-158805714D01*
X234817142Y-158805714D01*
X234912380Y-158853333D01*
X235483809Y-159472380D02*
X235388571Y-159424761D01*
X235340952Y-159329523D01*
X235340952Y-158472380D01*
X236245714Y-159424761D02*
X236150476Y-159472380D01*
X235960000Y-159472380D01*
X235864761Y-159424761D01*
X235817142Y-159329523D01*
X235817142Y-158948571D01*
X235864761Y-158853333D01*
X235960000Y-158805714D01*
X236150476Y-158805714D01*
X236245714Y-158853333D01*
X236293333Y-158948571D01*
X236293333Y-159043809D01*
X235817142Y-159139047D01*
X236721904Y-159091428D02*
X237483809Y-159091428D01*
X237912380Y-158567619D02*
X237960000Y-158520000D01*
X238055238Y-158472380D01*
X238293333Y-158472380D01*
X238388571Y-158520000D01*
X238436190Y-158567619D01*
X238483809Y-158662857D01*
X238483809Y-158758095D01*
X238436190Y-158900952D01*
X237864761Y-159472380D01*
X238483809Y-159472380D01*
X239340952Y-158805714D02*
X239340952Y-159472380D01*
X239102857Y-158424761D02*
X238864761Y-159139047D01*
X239483809Y-159139047D01*
X230626666Y-162872380D02*
X230626666Y-163586666D01*
X230579047Y-163729523D01*
X230483809Y-163824761D01*
X230340952Y-163872380D01*
X230245714Y-163872380D01*
X231626666Y-163872380D02*
X231055238Y-163872380D01*
X231340952Y-163872380D02*
X231340952Y-162872380D01*
X231245714Y-163015238D01*
X231150476Y-163110476D01*
X231055238Y-163158095D01*
X190064761Y-189872380D02*
X190112380Y-189729523D01*
X190112380Y-189491428D01*
X190064761Y-189396190D01*
X190017142Y-189348571D01*
X189921904Y-189300952D01*
X189826666Y-189300952D01*
X189731428Y-189348571D01*
X189683809Y-189396190D01*
X189636190Y-189491428D01*
X189588571Y-189681904D01*
X189540952Y-189777142D01*
X189493333Y-189824761D01*
X189398095Y-189872380D01*
X189302857Y-189872380D01*
X189207619Y-189824761D01*
X189160000Y-189777142D01*
X189112380Y-189681904D01*
X189112380Y-189443809D01*
X189160000Y-189300952D01*
X189112380Y-188967619D02*
X190112380Y-188729523D01*
X189398095Y-188539047D01*
X190112380Y-188348571D01*
X189112380Y-188110476D01*
X190207619Y-187967619D02*
X190207619Y-187205714D01*
X190112380Y-186967619D02*
X189112380Y-186967619D01*
X190112380Y-186396190D01*
X189112380Y-186396190D01*
X189112380Y-185729523D02*
X189112380Y-185539047D01*
X189160000Y-185443809D01*
X189255238Y-185348571D01*
X189445714Y-185300952D01*
X189779047Y-185300952D01*
X189969523Y-185348571D01*
X190064761Y-185443809D01*
X190112380Y-185539047D01*
X190112380Y-185729523D01*
X190064761Y-185824761D01*
X189969523Y-185920000D01*
X189779047Y-185967619D01*
X189445714Y-185967619D01*
X189255238Y-185920000D01*
X189160000Y-185824761D01*
X189112380Y-185729523D01*
X190207619Y-185110476D02*
X190207619Y-184348571D01*
X189445714Y-183681904D02*
X190112380Y-183681904D01*
X189064761Y-183920000D02*
X189779047Y-184158095D01*
X189779047Y-183539047D01*
X189731428Y-183158095D02*
X189731428Y-182396190D01*
X190112380Y-181920000D02*
X189112380Y-181920000D01*
X189112380Y-181539047D01*
X189160000Y-181443809D01*
X189207619Y-181396190D01*
X189302857Y-181348571D01*
X189445714Y-181348571D01*
X189540952Y-181396190D01*
X189588571Y-181443809D01*
X189636190Y-181539047D01*
X189636190Y-181920000D01*
X190112380Y-180920000D02*
X189445714Y-180920000D01*
X189112380Y-180920000D02*
X189160000Y-180967619D01*
X189207619Y-180920000D01*
X189160000Y-180872380D01*
X189112380Y-180920000D01*
X189207619Y-180920000D01*
X189445714Y-180443809D02*
X190112380Y-180443809D01*
X189540952Y-180443809D02*
X189493333Y-180396190D01*
X189445714Y-180300952D01*
X189445714Y-180158095D01*
X189493333Y-180062857D01*
X189588571Y-180015238D01*
X190112380Y-180015238D01*
X188264761Y-186253333D02*
X188312380Y-186110476D01*
X188312380Y-185872380D01*
X188264761Y-185777142D01*
X188217142Y-185729523D01*
X188121904Y-185681904D01*
X188026666Y-185681904D01*
X187931428Y-185729523D01*
X187883809Y-185777142D01*
X187836190Y-185872380D01*
X187788571Y-186062857D01*
X187740952Y-186158095D01*
X187693333Y-186205714D01*
X187598095Y-186253333D01*
X187502857Y-186253333D01*
X187407619Y-186205714D01*
X187360000Y-186158095D01*
X187312380Y-186062857D01*
X187312380Y-185824761D01*
X187360000Y-185681904D01*
X187312380Y-185348571D02*
X188312380Y-185110476D01*
X187598095Y-184920000D01*
X188312380Y-184729523D01*
X187312380Y-184491428D01*
X188312380Y-183586666D02*
X188312380Y-184158095D01*
X188312380Y-183872380D02*
X187312380Y-183872380D01*
X187455238Y-183967619D01*
X187550476Y-184062857D01*
X187598095Y-184158095D01*
X215079047Y-180477142D02*
X215031428Y-180524761D01*
X214888571Y-180572380D01*
X214793333Y-180572380D01*
X214650476Y-180524761D01*
X214555238Y-180429523D01*
X214507619Y-180334285D01*
X214460000Y-180143809D01*
X214460000Y-180000952D01*
X214507619Y-179810476D01*
X214555238Y-179715238D01*
X214650476Y-179620000D01*
X214793333Y-179572380D01*
X214888571Y-179572380D01*
X215031428Y-179620000D01*
X215079047Y-179667619D01*
X215507619Y-180572380D02*
X215507619Y-179572380D01*
X215888571Y-179572380D01*
X215983809Y-179620000D01*
X216031428Y-179667619D01*
X216079047Y-179762857D01*
X216079047Y-179905714D01*
X216031428Y-180000952D01*
X215983809Y-180048571D01*
X215888571Y-180096190D01*
X215507619Y-180096190D01*
X216269523Y-180667619D02*
X217031428Y-180667619D01*
X217126666Y-179905714D02*
X217507619Y-179905714D01*
X217269523Y-179572380D02*
X217269523Y-180429523D01*
X217317142Y-180524761D01*
X217412380Y-180572380D01*
X217507619Y-180572380D01*
X218269523Y-180572380D02*
X218269523Y-180048571D01*
X218221904Y-179953333D01*
X218126666Y-179905714D01*
X217936190Y-179905714D01*
X217840952Y-179953333D01*
X218269523Y-180524761D02*
X218174285Y-180572380D01*
X217936190Y-180572380D01*
X217840952Y-180524761D01*
X217793333Y-180429523D01*
X217793333Y-180334285D01*
X217840952Y-180239047D01*
X217936190Y-180191428D01*
X218174285Y-180191428D01*
X218269523Y-180143809D01*
X218745714Y-179905714D02*
X218745714Y-180572380D01*
X218745714Y-180000952D02*
X218793333Y-179953333D01*
X218888571Y-179905714D01*
X219031428Y-179905714D01*
X219126666Y-179953333D01*
X219174285Y-180048571D01*
X219174285Y-180572380D01*
X219507619Y-179905714D02*
X219888571Y-179905714D01*
X219650476Y-179572380D02*
X219650476Y-180429523D01*
X219698095Y-180524761D01*
X219793333Y-180572380D01*
X219888571Y-180572380D01*
X220650476Y-180572380D02*
X220650476Y-180048571D01*
X220602857Y-179953333D01*
X220507619Y-179905714D01*
X220317142Y-179905714D01*
X220221904Y-179953333D01*
X220650476Y-180524761D02*
X220555238Y-180572380D01*
X220317142Y-180572380D01*
X220221904Y-180524761D01*
X220174285Y-180429523D01*
X220174285Y-180334285D01*
X220221904Y-180239047D01*
X220317142Y-180191428D01*
X220555238Y-180191428D01*
X220650476Y-180143809D01*
X221269523Y-180572380D02*
X221174285Y-180524761D01*
X221126666Y-180429523D01*
X221126666Y-179572380D01*
X222079047Y-179905714D02*
X222079047Y-180572380D01*
X221650476Y-179905714D02*
X221650476Y-180429523D01*
X221698095Y-180524761D01*
X221793333Y-180572380D01*
X221936190Y-180572380D01*
X222031428Y-180524761D01*
X222079047Y-180477142D01*
X222555238Y-180572380D02*
X222555238Y-179905714D01*
X222555238Y-180000952D02*
X222602857Y-179953333D01*
X222698095Y-179905714D01*
X222840952Y-179905714D01*
X222936190Y-179953333D01*
X222983809Y-180048571D01*
X222983809Y-180572380D01*
X222983809Y-180048571D02*
X223031428Y-179953333D01*
X223126666Y-179905714D01*
X223269523Y-179905714D01*
X223364761Y-179953333D01*
X223412380Y-180048571D01*
X223412380Y-180572380D01*
X218793333Y-182277142D02*
X218745714Y-182324761D01*
X218602857Y-182372380D01*
X218507619Y-182372380D01*
X218364761Y-182324761D01*
X218269523Y-182229523D01*
X218221904Y-182134285D01*
X218174285Y-181943809D01*
X218174285Y-181800952D01*
X218221904Y-181610476D01*
X218269523Y-181515238D01*
X218364761Y-181420000D01*
X218507619Y-181372380D01*
X218602857Y-181372380D01*
X218745714Y-181420000D01*
X218793333Y-181467619D01*
X219126666Y-181372380D02*
X219745714Y-181372380D01*
X219412380Y-181753333D01*
X219555238Y-181753333D01*
X219650476Y-181800952D01*
X219698095Y-181848571D01*
X219745714Y-181943809D01*
X219745714Y-182181904D01*
X219698095Y-182277142D01*
X219650476Y-182324761D01*
X219555238Y-182372380D01*
X219269523Y-182372380D01*
X219174285Y-182324761D01*
X219126666Y-182277142D01*
X44512380Y-225181904D02*
X43512380Y-225181904D01*
X43512380Y-224943809D01*
X43560000Y-224800952D01*
X43655238Y-224705714D01*
X43750476Y-224658095D01*
X43940952Y-224610476D01*
X44083809Y-224610476D01*
X44274285Y-224658095D01*
X44369523Y-224705714D01*
X44464761Y-224800952D01*
X44512380Y-224943809D01*
X44512380Y-225181904D01*
X46412380Y-225658095D02*
X45412380Y-225658095D01*
X45412380Y-225420000D01*
X45460000Y-225277142D01*
X45555238Y-225181904D01*
X45650476Y-225134285D01*
X45840952Y-225086666D01*
X45983809Y-225086666D01*
X46174285Y-225134285D01*
X46269523Y-225181904D01*
X46364761Y-225277142D01*
X46412380Y-225420000D01*
X46412380Y-225658095D01*
X46412380Y-224134285D02*
X46412380Y-224705714D01*
X46412380Y-224420000D02*
X45412380Y-224420000D01*
X45555238Y-224515238D01*
X45650476Y-224610476D01*
X45698095Y-224705714D01*
X61512380Y-225181904D02*
X60512380Y-225181904D01*
X60512380Y-224943809D01*
X60560000Y-224800952D01*
X60655238Y-224705714D01*
X60750476Y-224658095D01*
X60940952Y-224610476D01*
X61083809Y-224610476D01*
X61274285Y-224658095D01*
X61369523Y-224705714D01*
X61464761Y-224800952D01*
X61512380Y-224943809D01*
X61512380Y-225181904D01*
X63412380Y-225658095D02*
X62412380Y-225658095D01*
X62412380Y-225420000D01*
X62460000Y-225277142D01*
X62555238Y-225181904D01*
X62650476Y-225134285D01*
X62840952Y-225086666D01*
X62983809Y-225086666D01*
X63174285Y-225134285D01*
X63269523Y-225181904D01*
X63364761Y-225277142D01*
X63412380Y-225420000D01*
X63412380Y-225658095D01*
X62507619Y-224705714D02*
X62460000Y-224658095D01*
X62412380Y-224562857D01*
X62412380Y-224324761D01*
X62460000Y-224229523D01*
X62507619Y-224181904D01*
X62602857Y-224134285D01*
X62698095Y-224134285D01*
X62840952Y-224181904D01*
X63412380Y-224753333D01*
X63412380Y-224134285D01*
X80512380Y-225181904D02*
X79512380Y-225181904D01*
X79512380Y-224943809D01*
X79560000Y-224800952D01*
X79655238Y-224705714D01*
X79750476Y-224658095D01*
X79940952Y-224610476D01*
X80083809Y-224610476D01*
X80274285Y-224658095D01*
X80369523Y-224705714D01*
X80464761Y-224800952D01*
X80512380Y-224943809D01*
X80512380Y-225181904D01*
X82412380Y-225658095D02*
X81412380Y-225658095D01*
X81412380Y-225420000D01*
X81460000Y-225277142D01*
X81555238Y-225181904D01*
X81650476Y-225134285D01*
X81840952Y-225086666D01*
X81983809Y-225086666D01*
X82174285Y-225134285D01*
X82269523Y-225181904D01*
X82364761Y-225277142D01*
X82412380Y-225420000D01*
X82412380Y-225658095D01*
X81412380Y-224753333D02*
X81412380Y-224134285D01*
X81793333Y-224467619D01*
X81793333Y-224324761D01*
X81840952Y-224229523D01*
X81888571Y-224181904D01*
X81983809Y-224134285D01*
X82221904Y-224134285D01*
X82317142Y-224181904D01*
X82364761Y-224229523D01*
X82412380Y-224324761D01*
X82412380Y-224610476D01*
X82364761Y-224705714D01*
X82317142Y-224753333D01*
X99512380Y-225181904D02*
X98512380Y-225181904D01*
X98512380Y-224943809D01*
X98560000Y-224800952D01*
X98655238Y-224705714D01*
X98750476Y-224658095D01*
X98940952Y-224610476D01*
X99083809Y-224610476D01*
X99274285Y-224658095D01*
X99369523Y-224705714D01*
X99464761Y-224800952D01*
X99512380Y-224943809D01*
X99512380Y-225181904D01*
X101412380Y-225658095D02*
X100412380Y-225658095D01*
X100412380Y-225420000D01*
X100460000Y-225277142D01*
X100555238Y-225181904D01*
X100650476Y-225134285D01*
X100840952Y-225086666D01*
X100983809Y-225086666D01*
X101174285Y-225134285D01*
X101269523Y-225181904D01*
X101364761Y-225277142D01*
X101412380Y-225420000D01*
X101412380Y-225658095D01*
X100745714Y-224229523D02*
X101412380Y-224229523D01*
X100364761Y-224467619D02*
X101079047Y-224705714D01*
X101079047Y-224086666D01*
X118512380Y-225181904D02*
X117512380Y-225181904D01*
X117512380Y-224943809D01*
X117560000Y-224800952D01*
X117655238Y-224705714D01*
X117750476Y-224658095D01*
X117940952Y-224610476D01*
X118083809Y-224610476D01*
X118274285Y-224658095D01*
X118369523Y-224705714D01*
X118464761Y-224800952D01*
X118512380Y-224943809D01*
X118512380Y-225181904D01*
X120412380Y-225658095D02*
X119412380Y-225658095D01*
X119412380Y-225420000D01*
X119460000Y-225277142D01*
X119555238Y-225181904D01*
X119650476Y-225134285D01*
X119840952Y-225086666D01*
X119983809Y-225086666D01*
X120174285Y-225134285D01*
X120269523Y-225181904D01*
X120364761Y-225277142D01*
X120412380Y-225420000D01*
X120412380Y-225658095D01*
X119412380Y-224181904D02*
X119412380Y-224658095D01*
X119888571Y-224705714D01*
X119840952Y-224658095D01*
X119793333Y-224562857D01*
X119793333Y-224324761D01*
X119840952Y-224229523D01*
X119888571Y-224181904D01*
X119983809Y-224134285D01*
X120221904Y-224134285D01*
X120317142Y-224181904D01*
X120364761Y-224229523D01*
X120412380Y-224324761D01*
X120412380Y-224562857D01*
X120364761Y-224658095D01*
X120317142Y-224705714D01*
X153012380Y-225181904D02*
X152012380Y-225181904D01*
X152012380Y-224943809D01*
X152060000Y-224800952D01*
X152155238Y-224705714D01*
X152250476Y-224658095D01*
X152440952Y-224610476D01*
X152583809Y-224610476D01*
X152774285Y-224658095D01*
X152869523Y-224705714D01*
X152964761Y-224800952D01*
X153012380Y-224943809D01*
X153012380Y-225181904D01*
X154912380Y-225658095D02*
X153912380Y-225658095D01*
X153912380Y-225420000D01*
X153960000Y-225277142D01*
X154055238Y-225181904D01*
X154150476Y-225134285D01*
X154340952Y-225086666D01*
X154483809Y-225086666D01*
X154674285Y-225134285D01*
X154769523Y-225181904D01*
X154864761Y-225277142D01*
X154912380Y-225420000D01*
X154912380Y-225658095D01*
X153912380Y-224229523D02*
X153912380Y-224420000D01*
X153960000Y-224515238D01*
X154007619Y-224562857D01*
X154150476Y-224658095D01*
X154340952Y-224705714D01*
X154721904Y-224705714D01*
X154817142Y-224658095D01*
X154864761Y-224610476D01*
X154912380Y-224515238D01*
X154912380Y-224324761D01*
X154864761Y-224229523D01*
X154817142Y-224181904D01*
X154721904Y-224134285D01*
X154483809Y-224134285D01*
X154388571Y-224181904D01*
X154340952Y-224229523D01*
X154293333Y-224324761D01*
X154293333Y-224515238D01*
X154340952Y-224610476D01*
X154388571Y-224658095D01*
X154483809Y-224705714D01*
X156512380Y-225181904D02*
X155512380Y-225181904D01*
X155512380Y-224943809D01*
X155560000Y-224800952D01*
X155655238Y-224705714D01*
X155750476Y-224658095D01*
X155940952Y-224610476D01*
X156083809Y-224610476D01*
X156274285Y-224658095D01*
X156369523Y-224705714D01*
X156464761Y-224800952D01*
X156512380Y-224943809D01*
X156512380Y-225181904D01*
X158412380Y-225658095D02*
X157412380Y-225658095D01*
X157412380Y-225420000D01*
X157460000Y-225277142D01*
X157555238Y-225181904D01*
X157650476Y-225134285D01*
X157840952Y-225086666D01*
X157983809Y-225086666D01*
X158174285Y-225134285D01*
X158269523Y-225181904D01*
X158364761Y-225277142D01*
X158412380Y-225420000D01*
X158412380Y-225658095D01*
X157412380Y-224753333D02*
X157412380Y-224086666D01*
X158412380Y-224515238D01*
X191012380Y-225181904D02*
X190012380Y-225181904D01*
X190012380Y-224943809D01*
X190060000Y-224800952D01*
X190155238Y-224705714D01*
X190250476Y-224658095D01*
X190440952Y-224610476D01*
X190583809Y-224610476D01*
X190774285Y-224658095D01*
X190869523Y-224705714D01*
X190964761Y-224800952D01*
X191012380Y-224943809D01*
X191012380Y-225181904D01*
X192912380Y-225658095D02*
X191912380Y-225658095D01*
X191912380Y-225420000D01*
X191960000Y-225277142D01*
X192055238Y-225181904D01*
X192150476Y-225134285D01*
X192340952Y-225086666D01*
X192483809Y-225086666D01*
X192674285Y-225134285D01*
X192769523Y-225181904D01*
X192864761Y-225277142D01*
X192912380Y-225420000D01*
X192912380Y-225658095D01*
X192340952Y-224515238D02*
X192293333Y-224610476D01*
X192245714Y-224658095D01*
X192150476Y-224705714D01*
X192102857Y-224705714D01*
X192007619Y-224658095D01*
X191960000Y-224610476D01*
X191912380Y-224515238D01*
X191912380Y-224324761D01*
X191960000Y-224229523D01*
X192007619Y-224181904D01*
X192102857Y-224134285D01*
X192150476Y-224134285D01*
X192245714Y-224181904D01*
X192293333Y-224229523D01*
X192340952Y-224324761D01*
X192340952Y-224515238D01*
X192388571Y-224610476D01*
X192436190Y-224658095D01*
X192531428Y-224705714D01*
X192721904Y-224705714D01*
X192817142Y-224658095D01*
X192864761Y-224610476D01*
X192912380Y-224515238D01*
X192912380Y-224324761D01*
X192864761Y-224229523D01*
X192817142Y-224181904D01*
X192721904Y-224134285D01*
X192531428Y-224134285D01*
X192436190Y-224181904D01*
X192388571Y-224229523D01*
X192340952Y-224324761D01*
X194512380Y-225181904D02*
X193512380Y-225181904D01*
X193512380Y-224943809D01*
X193560000Y-224800952D01*
X193655238Y-224705714D01*
X193750476Y-224658095D01*
X193940952Y-224610476D01*
X194083809Y-224610476D01*
X194274285Y-224658095D01*
X194369523Y-224705714D01*
X194464761Y-224800952D01*
X194512380Y-224943809D01*
X194512380Y-225181904D01*
X196412380Y-225658095D02*
X195412380Y-225658095D01*
X195412380Y-225420000D01*
X195460000Y-225277142D01*
X195555238Y-225181904D01*
X195650476Y-225134285D01*
X195840952Y-225086666D01*
X195983809Y-225086666D01*
X196174285Y-225134285D01*
X196269523Y-225181904D01*
X196364761Y-225277142D01*
X196412380Y-225420000D01*
X196412380Y-225658095D01*
X196412380Y-224610476D02*
X196412380Y-224420000D01*
X196364761Y-224324761D01*
X196317142Y-224277142D01*
X196174285Y-224181904D01*
X195983809Y-224134285D01*
X195602857Y-224134285D01*
X195507619Y-224181904D01*
X195460000Y-224229523D01*
X195412380Y-224324761D01*
X195412380Y-224515238D01*
X195460000Y-224610476D01*
X195507619Y-224658095D01*
X195602857Y-224705714D01*
X195840952Y-224705714D01*
X195936190Y-224658095D01*
X195983809Y-224610476D01*
X196031428Y-224515238D01*
X196031428Y-224324761D01*
X195983809Y-224229523D01*
X195936190Y-224181904D01*
X195840952Y-224134285D01*
X213512380Y-225181904D02*
X212512380Y-225181904D01*
X212512380Y-224943809D01*
X212560000Y-224800952D01*
X212655238Y-224705714D01*
X212750476Y-224658095D01*
X212940952Y-224610476D01*
X213083809Y-224610476D01*
X213274285Y-224658095D01*
X213369523Y-224705714D01*
X213464761Y-224800952D01*
X213512380Y-224943809D01*
X213512380Y-225181904D01*
X215412380Y-226134285D02*
X214412380Y-226134285D01*
X214412380Y-225896190D01*
X214460000Y-225753333D01*
X214555238Y-225658095D01*
X214650476Y-225610476D01*
X214840952Y-225562857D01*
X214983809Y-225562857D01*
X215174285Y-225610476D01*
X215269523Y-225658095D01*
X215364761Y-225753333D01*
X215412380Y-225896190D01*
X215412380Y-226134285D01*
X215412380Y-224610476D02*
X215412380Y-225181904D01*
X215412380Y-224896190D02*
X214412380Y-224896190D01*
X214555238Y-224991428D01*
X214650476Y-225086666D01*
X214698095Y-225181904D01*
X214412380Y-223991428D02*
X214412380Y-223896190D01*
X214460000Y-223800952D01*
X214507619Y-223753333D01*
X214602857Y-223705714D01*
X214793333Y-223658095D01*
X215031428Y-223658095D01*
X215221904Y-223705714D01*
X215317142Y-223753333D01*
X215364761Y-223800952D01*
X215412380Y-223896190D01*
X215412380Y-223991428D01*
X215364761Y-224086666D01*
X215317142Y-224134285D01*
X215221904Y-224181904D01*
X215031428Y-224229523D01*
X214793333Y-224229523D01*
X214602857Y-224181904D01*
X214507619Y-224134285D01*
X214460000Y-224086666D01*
X214412380Y-223991428D01*
X232512380Y-225181904D02*
X231512380Y-225181904D01*
X231512380Y-224943809D01*
X231560000Y-224800952D01*
X231655238Y-224705714D01*
X231750476Y-224658095D01*
X231940952Y-224610476D01*
X232083809Y-224610476D01*
X232274285Y-224658095D01*
X232369523Y-224705714D01*
X232464761Y-224800952D01*
X232512380Y-224943809D01*
X232512380Y-225181904D01*
X234412380Y-226134285D02*
X233412380Y-226134285D01*
X233412380Y-225896190D01*
X233460000Y-225753333D01*
X233555238Y-225658095D01*
X233650476Y-225610476D01*
X233840952Y-225562857D01*
X233983809Y-225562857D01*
X234174285Y-225610476D01*
X234269523Y-225658095D01*
X234364761Y-225753333D01*
X234412380Y-225896190D01*
X234412380Y-226134285D01*
X234412380Y-224610476D02*
X234412380Y-225181904D01*
X234412380Y-224896190D02*
X233412380Y-224896190D01*
X233555238Y-224991428D01*
X233650476Y-225086666D01*
X233698095Y-225181904D01*
X234412380Y-223658095D02*
X234412380Y-224229523D01*
X234412380Y-223943809D02*
X233412380Y-223943809D01*
X233555238Y-224039047D01*
X233650476Y-224134285D01*
X233698095Y-224229523D01*
X251512380Y-225181904D02*
X250512380Y-225181904D01*
X250512380Y-224943809D01*
X250560000Y-224800952D01*
X250655238Y-224705714D01*
X250750476Y-224658095D01*
X250940952Y-224610476D01*
X251083809Y-224610476D01*
X251274285Y-224658095D01*
X251369523Y-224705714D01*
X251464761Y-224800952D01*
X251512380Y-224943809D01*
X251512380Y-225181904D01*
X253412380Y-226134285D02*
X252412380Y-226134285D01*
X252412380Y-225896190D01*
X252460000Y-225753333D01*
X252555238Y-225658095D01*
X252650476Y-225610476D01*
X252840952Y-225562857D01*
X252983809Y-225562857D01*
X253174285Y-225610476D01*
X253269523Y-225658095D01*
X253364761Y-225753333D01*
X253412380Y-225896190D01*
X253412380Y-226134285D01*
X253412380Y-224610476D02*
X253412380Y-225181904D01*
X253412380Y-224896190D02*
X252412380Y-224896190D01*
X252555238Y-224991428D01*
X252650476Y-225086666D01*
X252698095Y-225181904D01*
X252507619Y-224229523D02*
X252460000Y-224181904D01*
X252412380Y-224086666D01*
X252412380Y-223848571D01*
X252460000Y-223753333D01*
X252507619Y-223705714D01*
X252602857Y-223658095D01*
X252698095Y-223658095D01*
X252840952Y-223705714D01*
X253412380Y-224277142D01*
X253412380Y-223658095D01*
X44512380Y-206181904D02*
X43512380Y-206181904D01*
X43512380Y-205943809D01*
X43560000Y-205800952D01*
X43655238Y-205705714D01*
X43750476Y-205658095D01*
X43940952Y-205610476D01*
X44083809Y-205610476D01*
X44274285Y-205658095D01*
X44369523Y-205705714D01*
X44464761Y-205800952D01*
X44512380Y-205943809D01*
X44512380Y-206181904D01*
X46412380Y-207134285D02*
X45412380Y-207134285D01*
X45412380Y-206896190D01*
X45460000Y-206753333D01*
X45555238Y-206658095D01*
X45650476Y-206610476D01*
X45840952Y-206562857D01*
X45983809Y-206562857D01*
X46174285Y-206610476D01*
X46269523Y-206658095D01*
X46364761Y-206753333D01*
X46412380Y-206896190D01*
X46412380Y-207134285D01*
X46412380Y-205610476D02*
X46412380Y-206181904D01*
X46412380Y-205896190D02*
X45412380Y-205896190D01*
X45555238Y-205991428D01*
X45650476Y-206086666D01*
X45698095Y-206181904D01*
X45412380Y-205277142D02*
X45412380Y-204658095D01*
X45793333Y-204991428D01*
X45793333Y-204848571D01*
X45840952Y-204753333D01*
X45888571Y-204705714D01*
X45983809Y-204658095D01*
X46221904Y-204658095D01*
X46317142Y-204705714D01*
X46364761Y-204753333D01*
X46412380Y-204848571D01*
X46412380Y-205134285D01*
X46364761Y-205229523D01*
X46317142Y-205277142D01*
X61512380Y-206181904D02*
X60512380Y-206181904D01*
X60512380Y-205943809D01*
X60560000Y-205800952D01*
X60655238Y-205705714D01*
X60750476Y-205658095D01*
X60940952Y-205610476D01*
X61083809Y-205610476D01*
X61274285Y-205658095D01*
X61369523Y-205705714D01*
X61464761Y-205800952D01*
X61512380Y-205943809D01*
X61512380Y-206181904D01*
X63412380Y-207134285D02*
X62412380Y-207134285D01*
X62412380Y-206896190D01*
X62460000Y-206753333D01*
X62555238Y-206658095D01*
X62650476Y-206610476D01*
X62840952Y-206562857D01*
X62983809Y-206562857D01*
X63174285Y-206610476D01*
X63269523Y-206658095D01*
X63364761Y-206753333D01*
X63412380Y-206896190D01*
X63412380Y-207134285D01*
X63412380Y-205610476D02*
X63412380Y-206181904D01*
X63412380Y-205896190D02*
X62412380Y-205896190D01*
X62555238Y-205991428D01*
X62650476Y-206086666D01*
X62698095Y-206181904D01*
X62745714Y-204753333D02*
X63412380Y-204753333D01*
X62364761Y-204991428D02*
X63079047Y-205229523D01*
X63079047Y-204610476D01*
X80512380Y-206181904D02*
X79512380Y-206181904D01*
X79512380Y-205943809D01*
X79560000Y-205800952D01*
X79655238Y-205705714D01*
X79750476Y-205658095D01*
X79940952Y-205610476D01*
X80083809Y-205610476D01*
X80274285Y-205658095D01*
X80369523Y-205705714D01*
X80464761Y-205800952D01*
X80512380Y-205943809D01*
X80512380Y-206181904D01*
X82412380Y-207134285D02*
X81412380Y-207134285D01*
X81412380Y-206896190D01*
X81460000Y-206753333D01*
X81555238Y-206658095D01*
X81650476Y-206610476D01*
X81840952Y-206562857D01*
X81983809Y-206562857D01*
X82174285Y-206610476D01*
X82269523Y-206658095D01*
X82364761Y-206753333D01*
X82412380Y-206896190D01*
X82412380Y-207134285D01*
X82412380Y-205610476D02*
X82412380Y-206181904D01*
X82412380Y-205896190D02*
X81412380Y-205896190D01*
X81555238Y-205991428D01*
X81650476Y-206086666D01*
X81698095Y-206181904D01*
X81412380Y-204705714D02*
X81412380Y-205181904D01*
X81888571Y-205229523D01*
X81840952Y-205181904D01*
X81793333Y-205086666D01*
X81793333Y-204848571D01*
X81840952Y-204753333D01*
X81888571Y-204705714D01*
X81983809Y-204658095D01*
X82221904Y-204658095D01*
X82317142Y-204705714D01*
X82364761Y-204753333D01*
X82412380Y-204848571D01*
X82412380Y-205086666D01*
X82364761Y-205181904D01*
X82317142Y-205229523D01*
X99512380Y-206181904D02*
X98512380Y-206181904D01*
X98512380Y-205943809D01*
X98560000Y-205800952D01*
X98655238Y-205705714D01*
X98750476Y-205658095D01*
X98940952Y-205610476D01*
X99083809Y-205610476D01*
X99274285Y-205658095D01*
X99369523Y-205705714D01*
X99464761Y-205800952D01*
X99512380Y-205943809D01*
X99512380Y-206181904D01*
X101412380Y-207134285D02*
X100412380Y-207134285D01*
X100412380Y-206896190D01*
X100460000Y-206753333D01*
X100555238Y-206658095D01*
X100650476Y-206610476D01*
X100840952Y-206562857D01*
X100983809Y-206562857D01*
X101174285Y-206610476D01*
X101269523Y-206658095D01*
X101364761Y-206753333D01*
X101412380Y-206896190D01*
X101412380Y-207134285D01*
X101412380Y-205610476D02*
X101412380Y-206181904D01*
X101412380Y-205896190D02*
X100412380Y-205896190D01*
X100555238Y-205991428D01*
X100650476Y-206086666D01*
X100698095Y-206181904D01*
X100412380Y-204753333D02*
X100412380Y-204943809D01*
X100460000Y-205039047D01*
X100507619Y-205086666D01*
X100650476Y-205181904D01*
X100840952Y-205229523D01*
X101221904Y-205229523D01*
X101317142Y-205181904D01*
X101364761Y-205134285D01*
X101412380Y-205039047D01*
X101412380Y-204848571D01*
X101364761Y-204753333D01*
X101317142Y-204705714D01*
X101221904Y-204658095D01*
X100983809Y-204658095D01*
X100888571Y-204705714D01*
X100840952Y-204753333D01*
X100793333Y-204848571D01*
X100793333Y-205039047D01*
X100840952Y-205134285D01*
X100888571Y-205181904D01*
X100983809Y-205229523D01*
X118512380Y-206181904D02*
X117512380Y-206181904D01*
X117512380Y-205943809D01*
X117560000Y-205800952D01*
X117655238Y-205705714D01*
X117750476Y-205658095D01*
X117940952Y-205610476D01*
X118083809Y-205610476D01*
X118274285Y-205658095D01*
X118369523Y-205705714D01*
X118464761Y-205800952D01*
X118512380Y-205943809D01*
X118512380Y-206181904D01*
X120412380Y-207134285D02*
X119412380Y-207134285D01*
X119412380Y-206896190D01*
X119460000Y-206753333D01*
X119555238Y-206658095D01*
X119650476Y-206610476D01*
X119840952Y-206562857D01*
X119983809Y-206562857D01*
X120174285Y-206610476D01*
X120269523Y-206658095D01*
X120364761Y-206753333D01*
X120412380Y-206896190D01*
X120412380Y-207134285D01*
X120412380Y-205610476D02*
X120412380Y-206181904D01*
X120412380Y-205896190D02*
X119412380Y-205896190D01*
X119555238Y-205991428D01*
X119650476Y-206086666D01*
X119698095Y-206181904D01*
X119412380Y-205277142D02*
X119412380Y-204610476D01*
X120412380Y-205039047D01*
X137512380Y-206181904D02*
X136512380Y-206181904D01*
X136512380Y-205943809D01*
X136560000Y-205800952D01*
X136655238Y-205705714D01*
X136750476Y-205658095D01*
X136940952Y-205610476D01*
X137083809Y-205610476D01*
X137274285Y-205658095D01*
X137369523Y-205705714D01*
X137464761Y-205800952D01*
X137512380Y-205943809D01*
X137512380Y-206181904D01*
X139412380Y-207134285D02*
X138412380Y-207134285D01*
X138412380Y-206896190D01*
X138460000Y-206753333D01*
X138555238Y-206658095D01*
X138650476Y-206610476D01*
X138840952Y-206562857D01*
X138983809Y-206562857D01*
X139174285Y-206610476D01*
X139269523Y-206658095D01*
X139364761Y-206753333D01*
X139412380Y-206896190D01*
X139412380Y-207134285D01*
X139412380Y-205610476D02*
X139412380Y-206181904D01*
X139412380Y-205896190D02*
X138412380Y-205896190D01*
X138555238Y-205991428D01*
X138650476Y-206086666D01*
X138698095Y-206181904D01*
X138840952Y-205039047D02*
X138793333Y-205134285D01*
X138745714Y-205181904D01*
X138650476Y-205229523D01*
X138602857Y-205229523D01*
X138507619Y-205181904D01*
X138460000Y-205134285D01*
X138412380Y-205039047D01*
X138412380Y-204848571D01*
X138460000Y-204753333D01*
X138507619Y-204705714D01*
X138602857Y-204658095D01*
X138650476Y-204658095D01*
X138745714Y-204705714D01*
X138793333Y-204753333D01*
X138840952Y-204848571D01*
X138840952Y-205039047D01*
X138888571Y-205134285D01*
X138936190Y-205181904D01*
X139031428Y-205229523D01*
X139221904Y-205229523D01*
X139317142Y-205181904D01*
X139364761Y-205134285D01*
X139412380Y-205039047D01*
X139412380Y-204848571D01*
X139364761Y-204753333D01*
X139317142Y-204705714D01*
X139221904Y-204658095D01*
X139031428Y-204658095D01*
X138936190Y-204705714D01*
X138888571Y-204753333D01*
X138840952Y-204848571D01*
X156512380Y-206181904D02*
X155512380Y-206181904D01*
X155512380Y-205943809D01*
X155560000Y-205800952D01*
X155655238Y-205705714D01*
X155750476Y-205658095D01*
X155940952Y-205610476D01*
X156083809Y-205610476D01*
X156274285Y-205658095D01*
X156369523Y-205705714D01*
X156464761Y-205800952D01*
X156512380Y-205943809D01*
X156512380Y-206181904D01*
X158412380Y-207134285D02*
X157412380Y-207134285D01*
X157412380Y-206896190D01*
X157460000Y-206753333D01*
X157555238Y-206658095D01*
X157650476Y-206610476D01*
X157840952Y-206562857D01*
X157983809Y-206562857D01*
X158174285Y-206610476D01*
X158269523Y-206658095D01*
X158364761Y-206753333D01*
X158412380Y-206896190D01*
X158412380Y-207134285D01*
X158412380Y-205610476D02*
X158412380Y-206181904D01*
X158412380Y-205896190D02*
X157412380Y-205896190D01*
X157555238Y-205991428D01*
X157650476Y-206086666D01*
X157698095Y-206181904D01*
X158412380Y-205134285D02*
X158412380Y-204943809D01*
X158364761Y-204848571D01*
X158317142Y-204800952D01*
X158174285Y-204705714D01*
X157983809Y-204658095D01*
X157602857Y-204658095D01*
X157507619Y-204705714D01*
X157460000Y-204753333D01*
X157412380Y-204848571D01*
X157412380Y-205039047D01*
X157460000Y-205134285D01*
X157507619Y-205181904D01*
X157602857Y-205229523D01*
X157840952Y-205229523D01*
X157936190Y-205181904D01*
X157983809Y-205134285D01*
X158031428Y-205039047D01*
X158031428Y-204848571D01*
X157983809Y-204753333D01*
X157936190Y-204705714D01*
X157840952Y-204658095D01*
X175512380Y-206181904D02*
X174512380Y-206181904D01*
X174512380Y-205943809D01*
X174560000Y-205800952D01*
X174655238Y-205705714D01*
X174750476Y-205658095D01*
X174940952Y-205610476D01*
X175083809Y-205610476D01*
X175274285Y-205658095D01*
X175369523Y-205705714D01*
X175464761Y-205800952D01*
X175512380Y-205943809D01*
X175512380Y-206181904D01*
X177412380Y-207134285D02*
X176412380Y-207134285D01*
X176412380Y-206896190D01*
X176460000Y-206753333D01*
X176555238Y-206658095D01*
X176650476Y-206610476D01*
X176840952Y-206562857D01*
X176983809Y-206562857D01*
X177174285Y-206610476D01*
X177269523Y-206658095D01*
X177364761Y-206753333D01*
X177412380Y-206896190D01*
X177412380Y-207134285D01*
X176507619Y-206181904D02*
X176460000Y-206134285D01*
X176412380Y-206039047D01*
X176412380Y-205800952D01*
X176460000Y-205705714D01*
X176507619Y-205658095D01*
X176602857Y-205610476D01*
X176698095Y-205610476D01*
X176840952Y-205658095D01*
X177412380Y-206229523D01*
X177412380Y-205610476D01*
X176412380Y-204991428D02*
X176412380Y-204896190D01*
X176460000Y-204800952D01*
X176507619Y-204753333D01*
X176602857Y-204705714D01*
X176793333Y-204658095D01*
X177031428Y-204658095D01*
X177221904Y-204705714D01*
X177317142Y-204753333D01*
X177364761Y-204800952D01*
X177412380Y-204896190D01*
X177412380Y-204991428D01*
X177364761Y-205086666D01*
X177317142Y-205134285D01*
X177221904Y-205181904D01*
X177031428Y-205229523D01*
X176793333Y-205229523D01*
X176602857Y-205181904D01*
X176507619Y-205134285D01*
X176460000Y-205086666D01*
X176412380Y-204991428D01*
X194512380Y-206181904D02*
X193512380Y-206181904D01*
X193512380Y-205943809D01*
X193560000Y-205800952D01*
X193655238Y-205705714D01*
X193750476Y-205658095D01*
X193940952Y-205610476D01*
X194083809Y-205610476D01*
X194274285Y-205658095D01*
X194369523Y-205705714D01*
X194464761Y-205800952D01*
X194512380Y-205943809D01*
X194512380Y-206181904D01*
X196412380Y-207134285D02*
X195412380Y-207134285D01*
X195412380Y-206896190D01*
X195460000Y-206753333D01*
X195555238Y-206658095D01*
X195650476Y-206610476D01*
X195840952Y-206562857D01*
X195983809Y-206562857D01*
X196174285Y-206610476D01*
X196269523Y-206658095D01*
X196364761Y-206753333D01*
X196412380Y-206896190D01*
X196412380Y-207134285D01*
X195507619Y-206181904D02*
X195460000Y-206134285D01*
X195412380Y-206039047D01*
X195412380Y-205800952D01*
X195460000Y-205705714D01*
X195507619Y-205658095D01*
X195602857Y-205610476D01*
X195698095Y-205610476D01*
X195840952Y-205658095D01*
X196412380Y-206229523D01*
X196412380Y-205610476D01*
X196412380Y-204658095D02*
X196412380Y-205229523D01*
X196412380Y-204943809D02*
X195412380Y-204943809D01*
X195555238Y-205039047D01*
X195650476Y-205134285D01*
X195698095Y-205229523D01*
X213512380Y-206181904D02*
X212512380Y-206181904D01*
X212512380Y-205943809D01*
X212560000Y-205800952D01*
X212655238Y-205705714D01*
X212750476Y-205658095D01*
X212940952Y-205610476D01*
X213083809Y-205610476D01*
X213274285Y-205658095D01*
X213369523Y-205705714D01*
X213464761Y-205800952D01*
X213512380Y-205943809D01*
X213512380Y-206181904D01*
X215412380Y-207134285D02*
X214412380Y-207134285D01*
X214412380Y-206896190D01*
X214460000Y-206753333D01*
X214555238Y-206658095D01*
X214650476Y-206610476D01*
X214840952Y-206562857D01*
X214983809Y-206562857D01*
X215174285Y-206610476D01*
X215269523Y-206658095D01*
X215364761Y-206753333D01*
X215412380Y-206896190D01*
X215412380Y-207134285D01*
X214507619Y-206181904D02*
X214460000Y-206134285D01*
X214412380Y-206039047D01*
X214412380Y-205800952D01*
X214460000Y-205705714D01*
X214507619Y-205658095D01*
X214602857Y-205610476D01*
X214698095Y-205610476D01*
X214840952Y-205658095D01*
X215412380Y-206229523D01*
X215412380Y-205610476D01*
X214507619Y-205229523D02*
X214460000Y-205181904D01*
X214412380Y-205086666D01*
X214412380Y-204848571D01*
X214460000Y-204753333D01*
X214507619Y-204705714D01*
X214602857Y-204658095D01*
X214698095Y-204658095D01*
X214840952Y-204705714D01*
X215412380Y-205277142D01*
X215412380Y-204658095D01*
X251512380Y-206181904D02*
X250512380Y-206181904D01*
X250512380Y-205943809D01*
X250560000Y-205800952D01*
X250655238Y-205705714D01*
X250750476Y-205658095D01*
X250940952Y-205610476D01*
X251083809Y-205610476D01*
X251274285Y-205658095D01*
X251369523Y-205705714D01*
X251464761Y-205800952D01*
X251512380Y-205943809D01*
X251512380Y-206181904D01*
X253412380Y-207134285D02*
X252412380Y-207134285D01*
X252412380Y-206896190D01*
X252460000Y-206753333D01*
X252555238Y-206658095D01*
X252650476Y-206610476D01*
X252840952Y-206562857D01*
X252983809Y-206562857D01*
X253174285Y-206610476D01*
X253269523Y-206658095D01*
X253364761Y-206753333D01*
X253412380Y-206896190D01*
X253412380Y-207134285D01*
X252507619Y-206181904D02*
X252460000Y-206134285D01*
X252412380Y-206039047D01*
X252412380Y-205800952D01*
X252460000Y-205705714D01*
X252507619Y-205658095D01*
X252602857Y-205610476D01*
X252698095Y-205610476D01*
X252840952Y-205658095D01*
X253412380Y-206229523D01*
X253412380Y-205610476D01*
X252745714Y-204753333D02*
X253412380Y-204753333D01*
X252364761Y-204991428D02*
X253079047Y-205229523D01*
X253079047Y-204610476D01*
X44512380Y-187181904D02*
X43512380Y-187181904D01*
X43512380Y-186943809D01*
X43560000Y-186800952D01*
X43655238Y-186705714D01*
X43750476Y-186658095D01*
X43940952Y-186610476D01*
X44083809Y-186610476D01*
X44274285Y-186658095D01*
X44369523Y-186705714D01*
X44464761Y-186800952D01*
X44512380Y-186943809D01*
X44512380Y-187181904D01*
X46412380Y-188134285D02*
X45412380Y-188134285D01*
X45412380Y-187896190D01*
X45460000Y-187753333D01*
X45555238Y-187658095D01*
X45650476Y-187610476D01*
X45840952Y-187562857D01*
X45983809Y-187562857D01*
X46174285Y-187610476D01*
X46269523Y-187658095D01*
X46364761Y-187753333D01*
X46412380Y-187896190D01*
X46412380Y-188134285D01*
X45507619Y-187181904D02*
X45460000Y-187134285D01*
X45412380Y-187039047D01*
X45412380Y-186800952D01*
X45460000Y-186705714D01*
X45507619Y-186658095D01*
X45602857Y-186610476D01*
X45698095Y-186610476D01*
X45840952Y-186658095D01*
X46412380Y-187229523D01*
X46412380Y-186610476D01*
X45412380Y-185705714D02*
X45412380Y-186181904D01*
X45888571Y-186229523D01*
X45840952Y-186181904D01*
X45793333Y-186086666D01*
X45793333Y-185848571D01*
X45840952Y-185753333D01*
X45888571Y-185705714D01*
X45983809Y-185658095D01*
X46221904Y-185658095D01*
X46317142Y-185705714D01*
X46364761Y-185753333D01*
X46412380Y-185848571D01*
X46412380Y-186086666D01*
X46364761Y-186181904D01*
X46317142Y-186229523D01*
X61512380Y-187181904D02*
X60512380Y-187181904D01*
X60512380Y-186943809D01*
X60560000Y-186800952D01*
X60655238Y-186705714D01*
X60750476Y-186658095D01*
X60940952Y-186610476D01*
X61083809Y-186610476D01*
X61274285Y-186658095D01*
X61369523Y-186705714D01*
X61464761Y-186800952D01*
X61512380Y-186943809D01*
X61512380Y-187181904D01*
X63412380Y-188134285D02*
X62412380Y-188134285D01*
X62412380Y-187896190D01*
X62460000Y-187753333D01*
X62555238Y-187658095D01*
X62650476Y-187610476D01*
X62840952Y-187562857D01*
X62983809Y-187562857D01*
X63174285Y-187610476D01*
X63269523Y-187658095D01*
X63364761Y-187753333D01*
X63412380Y-187896190D01*
X63412380Y-188134285D01*
X62507619Y-187181904D02*
X62460000Y-187134285D01*
X62412380Y-187039047D01*
X62412380Y-186800952D01*
X62460000Y-186705714D01*
X62507619Y-186658095D01*
X62602857Y-186610476D01*
X62698095Y-186610476D01*
X62840952Y-186658095D01*
X63412380Y-187229523D01*
X63412380Y-186610476D01*
X62412380Y-185753333D02*
X62412380Y-185943809D01*
X62460000Y-186039047D01*
X62507619Y-186086666D01*
X62650476Y-186181904D01*
X62840952Y-186229523D01*
X63221904Y-186229523D01*
X63317142Y-186181904D01*
X63364761Y-186134285D01*
X63412380Y-186039047D01*
X63412380Y-185848571D01*
X63364761Y-185753333D01*
X63317142Y-185705714D01*
X63221904Y-185658095D01*
X62983809Y-185658095D01*
X62888571Y-185705714D01*
X62840952Y-185753333D01*
X62793333Y-185848571D01*
X62793333Y-186039047D01*
X62840952Y-186134285D01*
X62888571Y-186181904D01*
X62983809Y-186229523D01*
X80512380Y-187181904D02*
X79512380Y-187181904D01*
X79512380Y-186943809D01*
X79560000Y-186800952D01*
X79655238Y-186705714D01*
X79750476Y-186658095D01*
X79940952Y-186610476D01*
X80083809Y-186610476D01*
X80274285Y-186658095D01*
X80369523Y-186705714D01*
X80464761Y-186800952D01*
X80512380Y-186943809D01*
X80512380Y-187181904D01*
X82412380Y-188134285D02*
X81412380Y-188134285D01*
X81412380Y-187896190D01*
X81460000Y-187753333D01*
X81555238Y-187658095D01*
X81650476Y-187610476D01*
X81840952Y-187562857D01*
X81983809Y-187562857D01*
X82174285Y-187610476D01*
X82269523Y-187658095D01*
X82364761Y-187753333D01*
X82412380Y-187896190D01*
X82412380Y-188134285D01*
X81507619Y-187181904D02*
X81460000Y-187134285D01*
X81412380Y-187039047D01*
X81412380Y-186800952D01*
X81460000Y-186705714D01*
X81507619Y-186658095D01*
X81602857Y-186610476D01*
X81698095Y-186610476D01*
X81840952Y-186658095D01*
X82412380Y-187229523D01*
X82412380Y-186610476D01*
X81412380Y-186277142D02*
X81412380Y-185610476D01*
X82412380Y-186039047D01*
X99512380Y-187181904D02*
X98512380Y-187181904D01*
X98512380Y-186943809D01*
X98560000Y-186800952D01*
X98655238Y-186705714D01*
X98750476Y-186658095D01*
X98940952Y-186610476D01*
X99083809Y-186610476D01*
X99274285Y-186658095D01*
X99369523Y-186705714D01*
X99464761Y-186800952D01*
X99512380Y-186943809D01*
X99512380Y-187181904D01*
X101412380Y-188134285D02*
X100412380Y-188134285D01*
X100412380Y-187896190D01*
X100460000Y-187753333D01*
X100555238Y-187658095D01*
X100650476Y-187610476D01*
X100840952Y-187562857D01*
X100983809Y-187562857D01*
X101174285Y-187610476D01*
X101269523Y-187658095D01*
X101364761Y-187753333D01*
X101412380Y-187896190D01*
X101412380Y-188134285D01*
X100507619Y-187181904D02*
X100460000Y-187134285D01*
X100412380Y-187039047D01*
X100412380Y-186800952D01*
X100460000Y-186705714D01*
X100507619Y-186658095D01*
X100602857Y-186610476D01*
X100698095Y-186610476D01*
X100840952Y-186658095D01*
X101412380Y-187229523D01*
X101412380Y-186610476D01*
X100840952Y-186039047D02*
X100793333Y-186134285D01*
X100745714Y-186181904D01*
X100650476Y-186229523D01*
X100602857Y-186229523D01*
X100507619Y-186181904D01*
X100460000Y-186134285D01*
X100412380Y-186039047D01*
X100412380Y-185848571D01*
X100460000Y-185753333D01*
X100507619Y-185705714D01*
X100602857Y-185658095D01*
X100650476Y-185658095D01*
X100745714Y-185705714D01*
X100793333Y-185753333D01*
X100840952Y-185848571D01*
X100840952Y-186039047D01*
X100888571Y-186134285D01*
X100936190Y-186181904D01*
X101031428Y-186229523D01*
X101221904Y-186229523D01*
X101317142Y-186181904D01*
X101364761Y-186134285D01*
X101412380Y-186039047D01*
X101412380Y-185848571D01*
X101364761Y-185753333D01*
X101317142Y-185705714D01*
X101221904Y-185658095D01*
X101031428Y-185658095D01*
X100936190Y-185705714D01*
X100888571Y-185753333D01*
X100840952Y-185848571D01*
X118512380Y-187181904D02*
X117512380Y-187181904D01*
X117512380Y-186943809D01*
X117560000Y-186800952D01*
X117655238Y-186705714D01*
X117750476Y-186658095D01*
X117940952Y-186610476D01*
X118083809Y-186610476D01*
X118274285Y-186658095D01*
X118369523Y-186705714D01*
X118464761Y-186800952D01*
X118512380Y-186943809D01*
X118512380Y-187181904D01*
X120412380Y-188134285D02*
X119412380Y-188134285D01*
X119412380Y-187896190D01*
X119460000Y-187753333D01*
X119555238Y-187658095D01*
X119650476Y-187610476D01*
X119840952Y-187562857D01*
X119983809Y-187562857D01*
X120174285Y-187610476D01*
X120269523Y-187658095D01*
X120364761Y-187753333D01*
X120412380Y-187896190D01*
X120412380Y-188134285D01*
X119507619Y-187181904D02*
X119460000Y-187134285D01*
X119412380Y-187039047D01*
X119412380Y-186800952D01*
X119460000Y-186705714D01*
X119507619Y-186658095D01*
X119602857Y-186610476D01*
X119698095Y-186610476D01*
X119840952Y-186658095D01*
X120412380Y-187229523D01*
X120412380Y-186610476D01*
X120412380Y-186134285D02*
X120412380Y-185943809D01*
X120364761Y-185848571D01*
X120317142Y-185800952D01*
X120174285Y-185705714D01*
X119983809Y-185658095D01*
X119602857Y-185658095D01*
X119507619Y-185705714D01*
X119460000Y-185753333D01*
X119412380Y-185848571D01*
X119412380Y-186039047D01*
X119460000Y-186134285D01*
X119507619Y-186181904D01*
X119602857Y-186229523D01*
X119840952Y-186229523D01*
X119936190Y-186181904D01*
X119983809Y-186134285D01*
X120031428Y-186039047D01*
X120031428Y-185848571D01*
X119983809Y-185753333D01*
X119936190Y-185705714D01*
X119840952Y-185658095D01*
X137512380Y-187181904D02*
X136512380Y-187181904D01*
X136512380Y-186943809D01*
X136560000Y-186800952D01*
X136655238Y-186705714D01*
X136750476Y-186658095D01*
X136940952Y-186610476D01*
X137083809Y-186610476D01*
X137274285Y-186658095D01*
X137369523Y-186705714D01*
X137464761Y-186800952D01*
X137512380Y-186943809D01*
X137512380Y-187181904D01*
X139412380Y-188134285D02*
X138412380Y-188134285D01*
X138412380Y-187896190D01*
X138460000Y-187753333D01*
X138555238Y-187658095D01*
X138650476Y-187610476D01*
X138840952Y-187562857D01*
X138983809Y-187562857D01*
X139174285Y-187610476D01*
X139269523Y-187658095D01*
X139364761Y-187753333D01*
X139412380Y-187896190D01*
X139412380Y-188134285D01*
X138412380Y-187229523D02*
X138412380Y-186610476D01*
X138793333Y-186943809D01*
X138793333Y-186800952D01*
X138840952Y-186705714D01*
X138888571Y-186658095D01*
X138983809Y-186610476D01*
X139221904Y-186610476D01*
X139317142Y-186658095D01*
X139364761Y-186705714D01*
X139412380Y-186800952D01*
X139412380Y-187086666D01*
X139364761Y-187181904D01*
X139317142Y-187229523D01*
X138412380Y-185991428D02*
X138412380Y-185896190D01*
X138460000Y-185800952D01*
X138507619Y-185753333D01*
X138602857Y-185705714D01*
X138793333Y-185658095D01*
X139031428Y-185658095D01*
X139221904Y-185705714D01*
X139317142Y-185753333D01*
X139364761Y-185800952D01*
X139412380Y-185896190D01*
X139412380Y-185991428D01*
X139364761Y-186086666D01*
X139317142Y-186134285D01*
X139221904Y-186181904D01*
X139031428Y-186229523D01*
X138793333Y-186229523D01*
X138602857Y-186181904D01*
X138507619Y-186134285D01*
X138460000Y-186086666D01*
X138412380Y-185991428D01*
X156512380Y-187181904D02*
X155512380Y-187181904D01*
X155512380Y-186943809D01*
X155560000Y-186800952D01*
X155655238Y-186705714D01*
X155750476Y-186658095D01*
X155940952Y-186610476D01*
X156083809Y-186610476D01*
X156274285Y-186658095D01*
X156369523Y-186705714D01*
X156464761Y-186800952D01*
X156512380Y-186943809D01*
X156512380Y-187181904D01*
X158412380Y-188134285D02*
X157412380Y-188134285D01*
X157412380Y-187896190D01*
X157460000Y-187753333D01*
X157555238Y-187658095D01*
X157650476Y-187610476D01*
X157840952Y-187562857D01*
X157983809Y-187562857D01*
X158174285Y-187610476D01*
X158269523Y-187658095D01*
X158364761Y-187753333D01*
X158412380Y-187896190D01*
X158412380Y-188134285D01*
X157412380Y-187229523D02*
X157412380Y-186610476D01*
X157793333Y-186943809D01*
X157793333Y-186800952D01*
X157840952Y-186705714D01*
X157888571Y-186658095D01*
X157983809Y-186610476D01*
X158221904Y-186610476D01*
X158317142Y-186658095D01*
X158364761Y-186705714D01*
X158412380Y-186800952D01*
X158412380Y-187086666D01*
X158364761Y-187181904D01*
X158317142Y-187229523D01*
X158412380Y-185658095D02*
X158412380Y-186229523D01*
X158412380Y-185943809D02*
X157412380Y-185943809D01*
X157555238Y-186039047D01*
X157650476Y-186134285D01*
X157698095Y-186229523D01*
X175512380Y-187181904D02*
X174512380Y-187181904D01*
X174512380Y-186943809D01*
X174560000Y-186800952D01*
X174655238Y-186705714D01*
X174750476Y-186658095D01*
X174940952Y-186610476D01*
X175083809Y-186610476D01*
X175274285Y-186658095D01*
X175369523Y-186705714D01*
X175464761Y-186800952D01*
X175512380Y-186943809D01*
X175512380Y-187181904D01*
X177412380Y-188134285D02*
X176412380Y-188134285D01*
X176412380Y-187896190D01*
X176460000Y-187753333D01*
X176555238Y-187658095D01*
X176650476Y-187610476D01*
X176840952Y-187562857D01*
X176983809Y-187562857D01*
X177174285Y-187610476D01*
X177269523Y-187658095D01*
X177364761Y-187753333D01*
X177412380Y-187896190D01*
X177412380Y-188134285D01*
X176412380Y-187229523D02*
X176412380Y-186610476D01*
X176793333Y-186943809D01*
X176793333Y-186800952D01*
X176840952Y-186705714D01*
X176888571Y-186658095D01*
X176983809Y-186610476D01*
X177221904Y-186610476D01*
X177317142Y-186658095D01*
X177364761Y-186705714D01*
X177412380Y-186800952D01*
X177412380Y-187086666D01*
X177364761Y-187181904D01*
X177317142Y-187229523D01*
X176507619Y-186229523D02*
X176460000Y-186181904D01*
X176412380Y-186086666D01*
X176412380Y-185848571D01*
X176460000Y-185753333D01*
X176507619Y-185705714D01*
X176602857Y-185658095D01*
X176698095Y-185658095D01*
X176840952Y-185705714D01*
X177412380Y-186277142D01*
X177412380Y-185658095D01*
X194512380Y-187181904D02*
X193512380Y-187181904D01*
X193512380Y-186943809D01*
X193560000Y-186800952D01*
X193655238Y-186705714D01*
X193750476Y-186658095D01*
X193940952Y-186610476D01*
X194083809Y-186610476D01*
X194274285Y-186658095D01*
X194369523Y-186705714D01*
X194464761Y-186800952D01*
X194512380Y-186943809D01*
X194512380Y-187181904D01*
X196412380Y-188134285D02*
X195412380Y-188134285D01*
X195412380Y-187896190D01*
X195460000Y-187753333D01*
X195555238Y-187658095D01*
X195650476Y-187610476D01*
X195840952Y-187562857D01*
X195983809Y-187562857D01*
X196174285Y-187610476D01*
X196269523Y-187658095D01*
X196364761Y-187753333D01*
X196412380Y-187896190D01*
X196412380Y-188134285D01*
X195412380Y-187229523D02*
X195412380Y-186610476D01*
X195793333Y-186943809D01*
X195793333Y-186800952D01*
X195840952Y-186705714D01*
X195888571Y-186658095D01*
X195983809Y-186610476D01*
X196221904Y-186610476D01*
X196317142Y-186658095D01*
X196364761Y-186705714D01*
X196412380Y-186800952D01*
X196412380Y-187086666D01*
X196364761Y-187181904D01*
X196317142Y-187229523D01*
X195412380Y-186277142D02*
X195412380Y-185658095D01*
X195793333Y-185991428D01*
X195793333Y-185848571D01*
X195840952Y-185753333D01*
X195888571Y-185705714D01*
X195983809Y-185658095D01*
X196221904Y-185658095D01*
X196317142Y-185705714D01*
X196364761Y-185753333D01*
X196412380Y-185848571D01*
X196412380Y-186134285D01*
X196364761Y-186229523D01*
X196317142Y-186277142D01*
X209012380Y-187181904D02*
X208012380Y-187181904D01*
X208012380Y-186943809D01*
X208060000Y-186800952D01*
X208155238Y-186705714D01*
X208250476Y-186658095D01*
X208440952Y-186610476D01*
X208583809Y-186610476D01*
X208774285Y-186658095D01*
X208869523Y-186705714D01*
X208964761Y-186800952D01*
X209012380Y-186943809D01*
X209012380Y-187181904D01*
X210912380Y-188134285D02*
X209912380Y-188134285D01*
X209912380Y-187896190D01*
X209960000Y-187753333D01*
X210055238Y-187658095D01*
X210150476Y-187610476D01*
X210340952Y-187562857D01*
X210483809Y-187562857D01*
X210674285Y-187610476D01*
X210769523Y-187658095D01*
X210864761Y-187753333D01*
X210912380Y-187896190D01*
X210912380Y-188134285D01*
X209912380Y-187229523D02*
X209912380Y-186610476D01*
X210293333Y-186943809D01*
X210293333Y-186800952D01*
X210340952Y-186705714D01*
X210388571Y-186658095D01*
X210483809Y-186610476D01*
X210721904Y-186610476D01*
X210817142Y-186658095D01*
X210864761Y-186705714D01*
X210912380Y-186800952D01*
X210912380Y-187086666D01*
X210864761Y-187181904D01*
X210817142Y-187229523D01*
X210245714Y-185753333D02*
X210912380Y-185753333D01*
X209864761Y-185991428D02*
X210579047Y-186229523D01*
X210579047Y-185610476D01*
X244512380Y-187181904D02*
X243512380Y-187181904D01*
X243512380Y-186943809D01*
X243560000Y-186800952D01*
X243655238Y-186705714D01*
X243750476Y-186658095D01*
X243940952Y-186610476D01*
X244083809Y-186610476D01*
X244274285Y-186658095D01*
X244369523Y-186705714D01*
X244464761Y-186800952D01*
X244512380Y-186943809D01*
X244512380Y-187181904D01*
X246412380Y-188134285D02*
X245412380Y-188134285D01*
X245412380Y-187896190D01*
X245460000Y-187753333D01*
X245555238Y-187658095D01*
X245650476Y-187610476D01*
X245840952Y-187562857D01*
X245983809Y-187562857D01*
X246174285Y-187610476D01*
X246269523Y-187658095D01*
X246364761Y-187753333D01*
X246412380Y-187896190D01*
X246412380Y-188134285D01*
X245412380Y-187229523D02*
X245412380Y-186610476D01*
X245793333Y-186943809D01*
X245793333Y-186800952D01*
X245840952Y-186705714D01*
X245888571Y-186658095D01*
X245983809Y-186610476D01*
X246221904Y-186610476D01*
X246317142Y-186658095D01*
X246364761Y-186705714D01*
X246412380Y-186800952D01*
X246412380Y-187086666D01*
X246364761Y-187181904D01*
X246317142Y-187229523D01*
X245412380Y-185705714D02*
X245412380Y-186181904D01*
X245888571Y-186229523D01*
X245840952Y-186181904D01*
X245793333Y-186086666D01*
X245793333Y-185848571D01*
X245840952Y-185753333D01*
X245888571Y-185705714D01*
X245983809Y-185658095D01*
X246221904Y-185658095D01*
X246317142Y-185705714D01*
X246364761Y-185753333D01*
X246412380Y-185848571D01*
X246412380Y-186086666D01*
X246364761Y-186181904D01*
X246317142Y-186229523D01*
X251512380Y-187181904D02*
X250512380Y-187181904D01*
X250512380Y-186943809D01*
X250560000Y-186800952D01*
X250655238Y-186705714D01*
X250750476Y-186658095D01*
X250940952Y-186610476D01*
X251083809Y-186610476D01*
X251274285Y-186658095D01*
X251369523Y-186705714D01*
X251464761Y-186800952D01*
X251512380Y-186943809D01*
X251512380Y-187181904D01*
X253412380Y-188134285D02*
X252412380Y-188134285D01*
X252412380Y-187896190D01*
X252460000Y-187753333D01*
X252555238Y-187658095D01*
X252650476Y-187610476D01*
X252840952Y-187562857D01*
X252983809Y-187562857D01*
X253174285Y-187610476D01*
X253269523Y-187658095D01*
X253364761Y-187753333D01*
X253412380Y-187896190D01*
X253412380Y-188134285D01*
X252412380Y-187229523D02*
X252412380Y-186610476D01*
X252793333Y-186943809D01*
X252793333Y-186800952D01*
X252840952Y-186705714D01*
X252888571Y-186658095D01*
X252983809Y-186610476D01*
X253221904Y-186610476D01*
X253317142Y-186658095D01*
X253364761Y-186705714D01*
X253412380Y-186800952D01*
X253412380Y-187086666D01*
X253364761Y-187181904D01*
X253317142Y-187229523D01*
X252412380Y-185753333D02*
X252412380Y-185943809D01*
X252460000Y-186039047D01*
X252507619Y-186086666D01*
X252650476Y-186181904D01*
X252840952Y-186229523D01*
X253221904Y-186229523D01*
X253317142Y-186181904D01*
X253364761Y-186134285D01*
X253412380Y-186039047D01*
X253412380Y-185848571D01*
X253364761Y-185753333D01*
X253317142Y-185705714D01*
X253221904Y-185658095D01*
X252983809Y-185658095D01*
X252888571Y-185705714D01*
X252840952Y-185753333D01*
X252793333Y-185848571D01*
X252793333Y-186039047D01*
X252840952Y-186134285D01*
X252888571Y-186181904D01*
X252983809Y-186229523D01*
X44512380Y-168181904D02*
X43512380Y-168181904D01*
X43512380Y-167943809D01*
X43560000Y-167800952D01*
X43655238Y-167705714D01*
X43750476Y-167658095D01*
X43940952Y-167610476D01*
X44083809Y-167610476D01*
X44274285Y-167658095D01*
X44369523Y-167705714D01*
X44464761Y-167800952D01*
X44512380Y-167943809D01*
X44512380Y-168181904D01*
X46412380Y-169134285D02*
X45412380Y-169134285D01*
X45412380Y-168896190D01*
X45460000Y-168753333D01*
X45555238Y-168658095D01*
X45650476Y-168610476D01*
X45840952Y-168562857D01*
X45983809Y-168562857D01*
X46174285Y-168610476D01*
X46269523Y-168658095D01*
X46364761Y-168753333D01*
X46412380Y-168896190D01*
X46412380Y-169134285D01*
X45412380Y-168229523D02*
X45412380Y-167610476D01*
X45793333Y-167943809D01*
X45793333Y-167800952D01*
X45840952Y-167705714D01*
X45888571Y-167658095D01*
X45983809Y-167610476D01*
X46221904Y-167610476D01*
X46317142Y-167658095D01*
X46364761Y-167705714D01*
X46412380Y-167800952D01*
X46412380Y-168086666D01*
X46364761Y-168181904D01*
X46317142Y-168229523D01*
X45412380Y-167277142D02*
X45412380Y-166610476D01*
X46412380Y-167039047D01*
X61512380Y-168181904D02*
X60512380Y-168181904D01*
X60512380Y-167943809D01*
X60560000Y-167800952D01*
X60655238Y-167705714D01*
X60750476Y-167658095D01*
X60940952Y-167610476D01*
X61083809Y-167610476D01*
X61274285Y-167658095D01*
X61369523Y-167705714D01*
X61464761Y-167800952D01*
X61512380Y-167943809D01*
X61512380Y-168181904D01*
X63412380Y-169134285D02*
X62412380Y-169134285D01*
X62412380Y-168896190D01*
X62460000Y-168753333D01*
X62555238Y-168658095D01*
X62650476Y-168610476D01*
X62840952Y-168562857D01*
X62983809Y-168562857D01*
X63174285Y-168610476D01*
X63269523Y-168658095D01*
X63364761Y-168753333D01*
X63412380Y-168896190D01*
X63412380Y-169134285D01*
X62412380Y-168229523D02*
X62412380Y-167610476D01*
X62793333Y-167943809D01*
X62793333Y-167800952D01*
X62840952Y-167705714D01*
X62888571Y-167658095D01*
X62983809Y-167610476D01*
X63221904Y-167610476D01*
X63317142Y-167658095D01*
X63364761Y-167705714D01*
X63412380Y-167800952D01*
X63412380Y-168086666D01*
X63364761Y-168181904D01*
X63317142Y-168229523D01*
X62840952Y-167039047D02*
X62793333Y-167134285D01*
X62745714Y-167181904D01*
X62650476Y-167229523D01*
X62602857Y-167229523D01*
X62507619Y-167181904D01*
X62460000Y-167134285D01*
X62412380Y-167039047D01*
X62412380Y-166848571D01*
X62460000Y-166753333D01*
X62507619Y-166705714D01*
X62602857Y-166658095D01*
X62650476Y-166658095D01*
X62745714Y-166705714D01*
X62793333Y-166753333D01*
X62840952Y-166848571D01*
X62840952Y-167039047D01*
X62888571Y-167134285D01*
X62936190Y-167181904D01*
X63031428Y-167229523D01*
X63221904Y-167229523D01*
X63317142Y-167181904D01*
X63364761Y-167134285D01*
X63412380Y-167039047D01*
X63412380Y-166848571D01*
X63364761Y-166753333D01*
X63317142Y-166705714D01*
X63221904Y-166658095D01*
X63031428Y-166658095D01*
X62936190Y-166705714D01*
X62888571Y-166753333D01*
X62840952Y-166848571D01*
X80512380Y-168181904D02*
X79512380Y-168181904D01*
X79512380Y-167943809D01*
X79560000Y-167800952D01*
X79655238Y-167705714D01*
X79750476Y-167658095D01*
X79940952Y-167610476D01*
X80083809Y-167610476D01*
X80274285Y-167658095D01*
X80369523Y-167705714D01*
X80464761Y-167800952D01*
X80512380Y-167943809D01*
X80512380Y-168181904D01*
X82412380Y-169134285D02*
X81412380Y-169134285D01*
X81412380Y-168896190D01*
X81460000Y-168753333D01*
X81555238Y-168658095D01*
X81650476Y-168610476D01*
X81840952Y-168562857D01*
X81983809Y-168562857D01*
X82174285Y-168610476D01*
X82269523Y-168658095D01*
X82364761Y-168753333D01*
X82412380Y-168896190D01*
X82412380Y-169134285D01*
X81412380Y-168229523D02*
X81412380Y-167610476D01*
X81793333Y-167943809D01*
X81793333Y-167800952D01*
X81840952Y-167705714D01*
X81888571Y-167658095D01*
X81983809Y-167610476D01*
X82221904Y-167610476D01*
X82317142Y-167658095D01*
X82364761Y-167705714D01*
X82412380Y-167800952D01*
X82412380Y-168086666D01*
X82364761Y-168181904D01*
X82317142Y-168229523D01*
X82412380Y-167134285D02*
X82412380Y-166943809D01*
X82364761Y-166848571D01*
X82317142Y-166800952D01*
X82174285Y-166705714D01*
X81983809Y-166658095D01*
X81602857Y-166658095D01*
X81507619Y-166705714D01*
X81460000Y-166753333D01*
X81412380Y-166848571D01*
X81412380Y-167039047D01*
X81460000Y-167134285D01*
X81507619Y-167181904D01*
X81602857Y-167229523D01*
X81840952Y-167229523D01*
X81936190Y-167181904D01*
X81983809Y-167134285D01*
X82031428Y-167039047D01*
X82031428Y-166848571D01*
X81983809Y-166753333D01*
X81936190Y-166705714D01*
X81840952Y-166658095D01*
X99512380Y-168181904D02*
X98512380Y-168181904D01*
X98512380Y-167943809D01*
X98560000Y-167800952D01*
X98655238Y-167705714D01*
X98750476Y-167658095D01*
X98940952Y-167610476D01*
X99083809Y-167610476D01*
X99274285Y-167658095D01*
X99369523Y-167705714D01*
X99464761Y-167800952D01*
X99512380Y-167943809D01*
X99512380Y-168181904D01*
X101412380Y-169134285D02*
X100412380Y-169134285D01*
X100412380Y-168896190D01*
X100460000Y-168753333D01*
X100555238Y-168658095D01*
X100650476Y-168610476D01*
X100840952Y-168562857D01*
X100983809Y-168562857D01*
X101174285Y-168610476D01*
X101269523Y-168658095D01*
X101364761Y-168753333D01*
X101412380Y-168896190D01*
X101412380Y-169134285D01*
X100745714Y-167705714D02*
X101412380Y-167705714D01*
X100364761Y-167943809D02*
X101079047Y-168181904D01*
X101079047Y-167562857D01*
X100412380Y-166991428D02*
X100412380Y-166896190D01*
X100460000Y-166800952D01*
X100507619Y-166753333D01*
X100602857Y-166705714D01*
X100793333Y-166658095D01*
X101031428Y-166658095D01*
X101221904Y-166705714D01*
X101317142Y-166753333D01*
X101364761Y-166800952D01*
X101412380Y-166896190D01*
X101412380Y-166991428D01*
X101364761Y-167086666D01*
X101317142Y-167134285D01*
X101221904Y-167181904D01*
X101031428Y-167229523D01*
X100793333Y-167229523D01*
X100602857Y-167181904D01*
X100507619Y-167134285D01*
X100460000Y-167086666D01*
X100412380Y-166991428D01*
X118512380Y-168181904D02*
X117512380Y-168181904D01*
X117512380Y-167943809D01*
X117560000Y-167800952D01*
X117655238Y-167705714D01*
X117750476Y-167658095D01*
X117940952Y-167610476D01*
X118083809Y-167610476D01*
X118274285Y-167658095D01*
X118369523Y-167705714D01*
X118464761Y-167800952D01*
X118512380Y-167943809D01*
X118512380Y-168181904D01*
X120412380Y-169134285D02*
X119412380Y-169134285D01*
X119412380Y-168896190D01*
X119460000Y-168753333D01*
X119555238Y-168658095D01*
X119650476Y-168610476D01*
X119840952Y-168562857D01*
X119983809Y-168562857D01*
X120174285Y-168610476D01*
X120269523Y-168658095D01*
X120364761Y-168753333D01*
X120412380Y-168896190D01*
X120412380Y-169134285D01*
X119745714Y-167705714D02*
X120412380Y-167705714D01*
X119364761Y-167943809D02*
X120079047Y-168181904D01*
X120079047Y-167562857D01*
X120412380Y-166658095D02*
X120412380Y-167229523D01*
X120412380Y-166943809D02*
X119412380Y-166943809D01*
X119555238Y-167039047D01*
X119650476Y-167134285D01*
X119698095Y-167229523D01*
X137512380Y-168181904D02*
X136512380Y-168181904D01*
X136512380Y-167943809D01*
X136560000Y-167800952D01*
X136655238Y-167705714D01*
X136750476Y-167658095D01*
X136940952Y-167610476D01*
X137083809Y-167610476D01*
X137274285Y-167658095D01*
X137369523Y-167705714D01*
X137464761Y-167800952D01*
X137512380Y-167943809D01*
X137512380Y-168181904D01*
X139412380Y-169134285D02*
X138412380Y-169134285D01*
X138412380Y-168896190D01*
X138460000Y-168753333D01*
X138555238Y-168658095D01*
X138650476Y-168610476D01*
X138840952Y-168562857D01*
X138983809Y-168562857D01*
X139174285Y-168610476D01*
X139269523Y-168658095D01*
X139364761Y-168753333D01*
X139412380Y-168896190D01*
X139412380Y-169134285D01*
X138745714Y-167705714D02*
X139412380Y-167705714D01*
X138364761Y-167943809D02*
X139079047Y-168181904D01*
X139079047Y-167562857D01*
X138507619Y-167229523D02*
X138460000Y-167181904D01*
X138412380Y-167086666D01*
X138412380Y-166848571D01*
X138460000Y-166753333D01*
X138507619Y-166705714D01*
X138602857Y-166658095D01*
X138698095Y-166658095D01*
X138840952Y-166705714D01*
X139412380Y-167277142D01*
X139412380Y-166658095D01*
X156512380Y-168181904D02*
X155512380Y-168181904D01*
X155512380Y-167943809D01*
X155560000Y-167800952D01*
X155655238Y-167705714D01*
X155750476Y-167658095D01*
X155940952Y-167610476D01*
X156083809Y-167610476D01*
X156274285Y-167658095D01*
X156369523Y-167705714D01*
X156464761Y-167800952D01*
X156512380Y-167943809D01*
X156512380Y-168181904D01*
X158412380Y-169134285D02*
X157412380Y-169134285D01*
X157412380Y-168896190D01*
X157460000Y-168753333D01*
X157555238Y-168658095D01*
X157650476Y-168610476D01*
X157840952Y-168562857D01*
X157983809Y-168562857D01*
X158174285Y-168610476D01*
X158269523Y-168658095D01*
X158364761Y-168753333D01*
X158412380Y-168896190D01*
X158412380Y-169134285D01*
X157745714Y-167705714D02*
X158412380Y-167705714D01*
X157364761Y-167943809D02*
X158079047Y-168181904D01*
X158079047Y-167562857D01*
X157412380Y-167277142D02*
X157412380Y-166658095D01*
X157793333Y-166991428D01*
X157793333Y-166848571D01*
X157840952Y-166753333D01*
X157888571Y-166705714D01*
X157983809Y-166658095D01*
X158221904Y-166658095D01*
X158317142Y-166705714D01*
X158364761Y-166753333D01*
X158412380Y-166848571D01*
X158412380Y-167134285D01*
X158364761Y-167229523D01*
X158317142Y-167277142D01*
X175512380Y-168181904D02*
X174512380Y-168181904D01*
X174512380Y-167943809D01*
X174560000Y-167800952D01*
X174655238Y-167705714D01*
X174750476Y-167658095D01*
X174940952Y-167610476D01*
X175083809Y-167610476D01*
X175274285Y-167658095D01*
X175369523Y-167705714D01*
X175464761Y-167800952D01*
X175512380Y-167943809D01*
X175512380Y-168181904D01*
X177412380Y-169134285D02*
X176412380Y-169134285D01*
X176412380Y-168896190D01*
X176460000Y-168753333D01*
X176555238Y-168658095D01*
X176650476Y-168610476D01*
X176840952Y-168562857D01*
X176983809Y-168562857D01*
X177174285Y-168610476D01*
X177269523Y-168658095D01*
X177364761Y-168753333D01*
X177412380Y-168896190D01*
X177412380Y-169134285D01*
X176745714Y-167705714D02*
X177412380Y-167705714D01*
X176364761Y-167943809D02*
X177079047Y-168181904D01*
X177079047Y-167562857D01*
X176745714Y-166753333D02*
X177412380Y-166753333D01*
X176364761Y-166991428D02*
X177079047Y-167229523D01*
X177079047Y-166610476D01*
X194512380Y-168181904D02*
X193512380Y-168181904D01*
X193512380Y-167943809D01*
X193560000Y-167800952D01*
X193655238Y-167705714D01*
X193750476Y-167658095D01*
X193940952Y-167610476D01*
X194083809Y-167610476D01*
X194274285Y-167658095D01*
X194369523Y-167705714D01*
X194464761Y-167800952D01*
X194512380Y-167943809D01*
X194512380Y-168181904D01*
X196412380Y-169134285D02*
X195412380Y-169134285D01*
X195412380Y-168896190D01*
X195460000Y-168753333D01*
X195555238Y-168658095D01*
X195650476Y-168610476D01*
X195840952Y-168562857D01*
X195983809Y-168562857D01*
X196174285Y-168610476D01*
X196269523Y-168658095D01*
X196364761Y-168753333D01*
X196412380Y-168896190D01*
X196412380Y-169134285D01*
X195745714Y-167705714D02*
X196412380Y-167705714D01*
X195364761Y-167943809D02*
X196079047Y-168181904D01*
X196079047Y-167562857D01*
X195412380Y-166705714D02*
X195412380Y-167181904D01*
X195888571Y-167229523D01*
X195840952Y-167181904D01*
X195793333Y-167086666D01*
X195793333Y-166848571D01*
X195840952Y-166753333D01*
X195888571Y-166705714D01*
X195983809Y-166658095D01*
X196221904Y-166658095D01*
X196317142Y-166705714D01*
X196364761Y-166753333D01*
X196412380Y-166848571D01*
X196412380Y-167086666D01*
X196364761Y-167181904D01*
X196317142Y-167229523D01*
X213512380Y-168181904D02*
X212512380Y-168181904D01*
X212512380Y-167943809D01*
X212560000Y-167800952D01*
X212655238Y-167705714D01*
X212750476Y-167658095D01*
X212940952Y-167610476D01*
X213083809Y-167610476D01*
X213274285Y-167658095D01*
X213369523Y-167705714D01*
X213464761Y-167800952D01*
X213512380Y-167943809D01*
X213512380Y-168181904D01*
X215412380Y-169134285D02*
X214412380Y-169134285D01*
X214412380Y-168896190D01*
X214460000Y-168753333D01*
X214555238Y-168658095D01*
X214650476Y-168610476D01*
X214840952Y-168562857D01*
X214983809Y-168562857D01*
X215174285Y-168610476D01*
X215269523Y-168658095D01*
X215364761Y-168753333D01*
X215412380Y-168896190D01*
X215412380Y-169134285D01*
X214745714Y-167705714D02*
X215412380Y-167705714D01*
X214364761Y-167943809D02*
X215079047Y-168181904D01*
X215079047Y-167562857D01*
X214412380Y-166753333D02*
X214412380Y-166943809D01*
X214460000Y-167039047D01*
X214507619Y-167086666D01*
X214650476Y-167181904D01*
X214840952Y-167229523D01*
X215221904Y-167229523D01*
X215317142Y-167181904D01*
X215364761Y-167134285D01*
X215412380Y-167039047D01*
X215412380Y-166848571D01*
X215364761Y-166753333D01*
X215317142Y-166705714D01*
X215221904Y-166658095D01*
X214983809Y-166658095D01*
X214888571Y-166705714D01*
X214840952Y-166753333D01*
X214793333Y-166848571D01*
X214793333Y-167039047D01*
X214840952Y-167134285D01*
X214888571Y-167181904D01*
X214983809Y-167229523D01*
X255012380Y-187181904D02*
X254012380Y-187181904D01*
X254012380Y-186943809D01*
X254060000Y-186800952D01*
X254155238Y-186705714D01*
X254250476Y-186658095D01*
X254440952Y-186610476D01*
X254583809Y-186610476D01*
X254774285Y-186658095D01*
X254869523Y-186705714D01*
X254964761Y-186800952D01*
X255012380Y-186943809D01*
X255012380Y-187181904D01*
X256912380Y-188134285D02*
X255912380Y-188134285D01*
X255912380Y-187896190D01*
X255960000Y-187753333D01*
X256055238Y-187658095D01*
X256150476Y-187610476D01*
X256340952Y-187562857D01*
X256483809Y-187562857D01*
X256674285Y-187610476D01*
X256769523Y-187658095D01*
X256864761Y-187753333D01*
X256912380Y-187896190D01*
X256912380Y-188134285D01*
X256245714Y-186705714D02*
X256912380Y-186705714D01*
X255864761Y-186943809D02*
X256579047Y-187181904D01*
X256579047Y-186562857D01*
X255912380Y-186277142D02*
X255912380Y-185610476D01*
X256912380Y-186039047D01*
X251512380Y-168181904D02*
X250512380Y-168181904D01*
X250512380Y-167943809D01*
X250560000Y-167800952D01*
X250655238Y-167705714D01*
X250750476Y-167658095D01*
X250940952Y-167610476D01*
X251083809Y-167610476D01*
X251274285Y-167658095D01*
X251369523Y-167705714D01*
X251464761Y-167800952D01*
X251512380Y-167943809D01*
X251512380Y-168181904D01*
X253412380Y-169134285D02*
X252412380Y-169134285D01*
X252412380Y-168896190D01*
X252460000Y-168753333D01*
X252555238Y-168658095D01*
X252650476Y-168610476D01*
X252840952Y-168562857D01*
X252983809Y-168562857D01*
X253174285Y-168610476D01*
X253269523Y-168658095D01*
X253364761Y-168753333D01*
X253412380Y-168896190D01*
X253412380Y-169134285D01*
X252745714Y-167705714D02*
X253412380Y-167705714D01*
X252364761Y-167943809D02*
X253079047Y-168181904D01*
X253079047Y-167562857D01*
X252840952Y-167039047D02*
X252793333Y-167134285D01*
X252745714Y-167181904D01*
X252650476Y-167229523D01*
X252602857Y-167229523D01*
X252507619Y-167181904D01*
X252460000Y-167134285D01*
X252412380Y-167039047D01*
X252412380Y-166848571D01*
X252460000Y-166753333D01*
X252507619Y-166705714D01*
X252602857Y-166658095D01*
X252650476Y-166658095D01*
X252745714Y-166705714D01*
X252793333Y-166753333D01*
X252840952Y-166848571D01*
X252840952Y-167039047D01*
X252888571Y-167134285D01*
X252936190Y-167181904D01*
X253031428Y-167229523D01*
X253221904Y-167229523D01*
X253317142Y-167181904D01*
X253364761Y-167134285D01*
X253412380Y-167039047D01*
X253412380Y-166848571D01*
X253364761Y-166753333D01*
X253317142Y-166705714D01*
X253221904Y-166658095D01*
X253031428Y-166658095D01*
X252936190Y-166705714D01*
X252888571Y-166753333D01*
X252840952Y-166848571D01*
X149512380Y-225181904D02*
X148512380Y-225181904D01*
X148512380Y-224943809D01*
X148560000Y-224800952D01*
X148655238Y-224705714D01*
X148750476Y-224658095D01*
X148940952Y-224610476D01*
X149083809Y-224610476D01*
X149274285Y-224658095D01*
X149369523Y-224705714D01*
X149464761Y-224800952D01*
X149512380Y-224943809D01*
X149512380Y-225181904D01*
X151412380Y-226134285D02*
X150412380Y-226134285D01*
X150412380Y-225896190D01*
X150460000Y-225753333D01*
X150555238Y-225658095D01*
X150650476Y-225610476D01*
X150840952Y-225562857D01*
X150983809Y-225562857D01*
X151174285Y-225610476D01*
X151269523Y-225658095D01*
X151364761Y-225753333D01*
X151412380Y-225896190D01*
X151412380Y-226134285D01*
X150745714Y-224705714D02*
X151412380Y-224705714D01*
X150364761Y-224943809D02*
X151079047Y-225181904D01*
X151079047Y-224562857D01*
X151412380Y-224134285D02*
X151412380Y-223943809D01*
X151364761Y-223848571D01*
X151317142Y-223800952D01*
X151174285Y-223705714D01*
X150983809Y-223658095D01*
X150602857Y-223658095D01*
X150507619Y-223705714D01*
X150460000Y-223753333D01*
X150412380Y-223848571D01*
X150412380Y-224039047D01*
X150460000Y-224134285D01*
X150507619Y-224181904D01*
X150602857Y-224229523D01*
X150840952Y-224229523D01*
X150936190Y-224181904D01*
X150983809Y-224134285D01*
X151031428Y-224039047D01*
X151031428Y-223848571D01*
X150983809Y-223753333D01*
X150936190Y-223705714D01*
X150840952Y-223658095D01*
X187512380Y-225181904D02*
X186512380Y-225181904D01*
X186512380Y-224943809D01*
X186560000Y-224800952D01*
X186655238Y-224705714D01*
X186750476Y-224658095D01*
X186940952Y-224610476D01*
X187083809Y-224610476D01*
X187274285Y-224658095D01*
X187369523Y-224705714D01*
X187464761Y-224800952D01*
X187512380Y-224943809D01*
X187512380Y-225181904D01*
X189412380Y-226134285D02*
X188412380Y-226134285D01*
X188412380Y-225896190D01*
X188460000Y-225753333D01*
X188555238Y-225658095D01*
X188650476Y-225610476D01*
X188840952Y-225562857D01*
X188983809Y-225562857D01*
X189174285Y-225610476D01*
X189269523Y-225658095D01*
X189364761Y-225753333D01*
X189412380Y-225896190D01*
X189412380Y-226134285D01*
X188412380Y-224658095D02*
X188412380Y-225134285D01*
X188888571Y-225181904D01*
X188840952Y-225134285D01*
X188793333Y-225039047D01*
X188793333Y-224800952D01*
X188840952Y-224705714D01*
X188888571Y-224658095D01*
X188983809Y-224610476D01*
X189221904Y-224610476D01*
X189317142Y-224658095D01*
X189364761Y-224705714D01*
X189412380Y-224800952D01*
X189412380Y-225039047D01*
X189364761Y-225134285D01*
X189317142Y-225181904D01*
X188412380Y-223991428D02*
X188412380Y-223896190D01*
X188460000Y-223800952D01*
X188507619Y-223753333D01*
X188602857Y-223705714D01*
X188793333Y-223658095D01*
X189031428Y-223658095D01*
X189221904Y-223705714D01*
X189317142Y-223753333D01*
X189364761Y-223800952D01*
X189412380Y-223896190D01*
X189412380Y-223991428D01*
X189364761Y-224086666D01*
X189317142Y-224134285D01*
X189221904Y-224181904D01*
X189031428Y-224229523D01*
X188793333Y-224229523D01*
X188602857Y-224181904D01*
X188507619Y-224134285D01*
X188460000Y-224086666D01*
X188412380Y-223991428D01*
X219988571Y-167777142D02*
X219988571Y-168110476D01*
X220512380Y-168110476D02*
X219512380Y-168110476D01*
X219512380Y-167634285D01*
X221888571Y-168253333D02*
X221888571Y-168586666D01*
X222412380Y-168586666D02*
X221412380Y-168586666D01*
X221412380Y-168110476D01*
X222412380Y-167205714D02*
X222412380Y-167777142D01*
X222412380Y-167491428D02*
X221412380Y-167491428D01*
X221555238Y-167586666D01*
X221650476Y-167681904D01*
X221698095Y-167777142D01*
X242712380Y-167110476D02*
X242712380Y-167586666D01*
X241712380Y-167586666D01*
X240912380Y-167586666D02*
X240912380Y-168062857D01*
X239912380Y-168062857D01*
X240912380Y-166729523D02*
X240912380Y-167300952D01*
X240912380Y-167015238D02*
X239912380Y-167015238D01*
X240055238Y-167110476D01*
X240150476Y-167205714D01*
X240198095Y-167300952D01*
D12*
X236350476Y-168358095D02*
X236255238Y-168424761D01*
X236350476Y-168472380D02*
X236150476Y-168472380D01*
X236150476Y-168396190D01*
X236160000Y-168377142D01*
X236169523Y-168367619D01*
X236188571Y-168358095D01*
X236217142Y-168358095D01*
X236236190Y-168367619D01*
X236245714Y-168377142D01*
X236255238Y-168396190D01*
X236255238Y-168472380D01*
D13*
X237686190Y-168503333D02*
X237448095Y-168670000D01*
X237686190Y-168789047D02*
X237186190Y-168789047D01*
X237186190Y-168598571D01*
X237210000Y-168550952D01*
X237233809Y-168527142D01*
X237281428Y-168503333D01*
X237352857Y-168503333D01*
X237400476Y-168527142D01*
X237424285Y-168550952D01*
X237448095Y-168598571D01*
X237448095Y-168789047D01*
X237686190Y-168027142D02*
X237686190Y-168312857D01*
X237686190Y-168170000D02*
X237186190Y-168170000D01*
X237257619Y-168217619D01*
X237305238Y-168265238D01*
X237329047Y-168312857D01*
D12*
X223350476Y-168358095D02*
X223255238Y-168424761D01*
X223350476Y-168472380D02*
X223150476Y-168472380D01*
X223150476Y-168396190D01*
X223160000Y-168377142D01*
X223169523Y-168367619D01*
X223188571Y-168358095D01*
X223217142Y-168358095D01*
X223236190Y-168367619D01*
X223245714Y-168377142D01*
X223255238Y-168396190D01*
X223255238Y-168472380D01*
D13*
X224686190Y-168503333D02*
X224448095Y-168670000D01*
X224686190Y-168789047D02*
X224186190Y-168789047D01*
X224186190Y-168598571D01*
X224210000Y-168550952D01*
X224233809Y-168527142D01*
X224281428Y-168503333D01*
X224352857Y-168503333D01*
X224400476Y-168527142D01*
X224424285Y-168550952D01*
X224448095Y-168598571D01*
X224448095Y-168789047D01*
X224233809Y-168312857D02*
X224210000Y-168289047D01*
X224186190Y-168241428D01*
X224186190Y-168122380D01*
X224210000Y-168074761D01*
X224233809Y-168050952D01*
X224281428Y-168027142D01*
X224329047Y-168027142D01*
X224400476Y-168050952D01*
X224686190Y-168336666D01*
X224686190Y-168027142D01*
D12*
X233750476Y-179358095D02*
X233655238Y-179424761D01*
X233750476Y-179472380D02*
X233550476Y-179472380D01*
X233550476Y-179396190D01*
X233560000Y-179377142D01*
X233569523Y-179367619D01*
X233588571Y-179358095D01*
X233617142Y-179358095D01*
X233636190Y-179367619D01*
X233645714Y-179377142D01*
X233655238Y-179396190D01*
X233655238Y-179472380D01*
D13*
X232686190Y-179503333D02*
X232448095Y-179670000D01*
X232686190Y-179789047D02*
X232186190Y-179789047D01*
X232186190Y-179598571D01*
X232210000Y-179550952D01*
X232233809Y-179527142D01*
X232281428Y-179503333D01*
X232352857Y-179503333D01*
X232400476Y-179527142D01*
X232424285Y-179550952D01*
X232448095Y-179598571D01*
X232448095Y-179789047D01*
X232186190Y-179336666D02*
X232186190Y-179027142D01*
X232376666Y-179193809D01*
X232376666Y-179122380D01*
X232400476Y-179074761D01*
X232424285Y-179050952D01*
X232471904Y-179027142D01*
X232590952Y-179027142D01*
X232638571Y-179050952D01*
X232662380Y-179074761D01*
X232686190Y-179122380D01*
X232686190Y-179265238D01*
X232662380Y-179312857D01*
X232638571Y-179336666D01*
D12*
X231750476Y-179358095D02*
X231655238Y-179424761D01*
X231750476Y-179472380D02*
X231550476Y-179472380D01*
X231550476Y-179396190D01*
X231560000Y-179377142D01*
X231569523Y-179367619D01*
X231588571Y-179358095D01*
X231617142Y-179358095D01*
X231636190Y-179367619D01*
X231645714Y-179377142D01*
X231655238Y-179396190D01*
X231655238Y-179472380D01*
D13*
X230686190Y-179503333D02*
X230448095Y-179670000D01*
X230686190Y-179789047D02*
X230186190Y-179789047D01*
X230186190Y-179598571D01*
X230210000Y-179550952D01*
X230233809Y-179527142D01*
X230281428Y-179503333D01*
X230352857Y-179503333D01*
X230400476Y-179527142D01*
X230424285Y-179550952D01*
X230448095Y-179598571D01*
X230448095Y-179789047D01*
X230352857Y-179074761D02*
X230686190Y-179074761D01*
X230162380Y-179193809D02*
X230519523Y-179312857D01*
X230519523Y-179003333D01*
D12*
X215750476Y-182858095D02*
X215655238Y-182924761D01*
X215750476Y-182972380D02*
X215550476Y-182972380D01*
X215550476Y-182896190D01*
X215560000Y-182877142D01*
X215569523Y-182867619D01*
X215588571Y-182858095D01*
X215617142Y-182858095D01*
X215636190Y-182867619D01*
X215645714Y-182877142D01*
X215655238Y-182896190D01*
X215655238Y-182972380D01*
D13*
X214686190Y-183003333D02*
X214448095Y-183170000D01*
X214686190Y-183289047D02*
X214186190Y-183289047D01*
X214186190Y-183098571D01*
X214210000Y-183050952D01*
X214233809Y-183027142D01*
X214281428Y-183003333D01*
X214352857Y-183003333D01*
X214400476Y-183027142D01*
X214424285Y-183050952D01*
X214448095Y-183098571D01*
X214448095Y-183289047D01*
X214186190Y-182550952D02*
X214186190Y-182789047D01*
X214424285Y-182812857D01*
X214400476Y-182789047D01*
X214376666Y-182741428D01*
X214376666Y-182622380D01*
X214400476Y-182574761D01*
X214424285Y-182550952D01*
X214471904Y-182527142D01*
X214590952Y-182527142D01*
X214638571Y-182550952D01*
X214662380Y-182574761D01*
X214686190Y-182622380D01*
X214686190Y-182741428D01*
X214662380Y-182789047D01*
X214638571Y-182812857D01*
D12*
X239850476Y-187358095D02*
X239755238Y-187424761D01*
X239850476Y-187472380D02*
X239650476Y-187472380D01*
X239650476Y-187396190D01*
X239660000Y-187377142D01*
X239669523Y-187367619D01*
X239688571Y-187358095D01*
X239717142Y-187358095D01*
X239736190Y-187367619D01*
X239745714Y-187377142D01*
X239755238Y-187396190D01*
X239755238Y-187472380D01*
D13*
X241186190Y-187503333D02*
X240948095Y-187670000D01*
X241186190Y-187789047D02*
X240686190Y-187789047D01*
X240686190Y-187598571D01*
X240710000Y-187550952D01*
X240733809Y-187527142D01*
X240781428Y-187503333D01*
X240852857Y-187503333D01*
X240900476Y-187527142D01*
X240924285Y-187550952D01*
X240948095Y-187598571D01*
X240948095Y-187789047D01*
X240686190Y-187074761D02*
X240686190Y-187170000D01*
X240710000Y-187217619D01*
X240733809Y-187241428D01*
X240805238Y-187289047D01*
X240900476Y-187312857D01*
X241090952Y-187312857D01*
X241138571Y-187289047D01*
X241162380Y-187265238D01*
X241186190Y-187217619D01*
X241186190Y-187122380D01*
X241162380Y-187074761D01*
X241138571Y-187050952D01*
X241090952Y-187027142D01*
X240971904Y-187027142D01*
X240924285Y-187050952D01*
X240900476Y-187074761D01*
X240876666Y-187122380D01*
X240876666Y-187217619D01*
X240900476Y-187265238D01*
X240924285Y-187289047D01*
X240971904Y-187312857D01*
D10*
X223602857Y-168372380D02*
X223602857Y-169181904D01*
X223650476Y-169277142D01*
X223698095Y-169324761D01*
X223793333Y-169372380D01*
X223983809Y-169372380D01*
X224079047Y-169324761D01*
X224126666Y-169277142D01*
X224174285Y-169181904D01*
X224174285Y-168372380D01*
X224412380Y-169467619D02*
X225174285Y-169467619D01*
X225269523Y-168372380D02*
X225840952Y-168372380D01*
X225555238Y-169372380D02*
X225555238Y-168372380D01*
X226174285Y-169372380D02*
X226174285Y-168372380D01*
X226555238Y-168372380D01*
X226650476Y-168420000D01*
X226698095Y-168467619D01*
X226745714Y-168562857D01*
X226745714Y-168705714D01*
X226698095Y-168800952D01*
X226650476Y-168848571D01*
X226555238Y-168896190D01*
X226174285Y-168896190D01*
X227174285Y-169372380D02*
X227174285Y-168372380D01*
X227412380Y-168372380D01*
X227555238Y-168420000D01*
X227650476Y-168515238D01*
X227698095Y-168610476D01*
X227745714Y-168800952D01*
X227745714Y-168943809D01*
X227698095Y-169134285D01*
X227650476Y-169229523D01*
X227555238Y-169324761D01*
X227412380Y-169372380D01*
X227174285Y-169372380D01*
X228602857Y-168705714D02*
X228602857Y-169372380D01*
X228364761Y-168324761D02*
X228126666Y-169039047D01*
X228745714Y-169039047D01*
X229126666Y-168848571D02*
X229460000Y-168848571D01*
X229602857Y-169372380D02*
X229126666Y-169372380D01*
X229126666Y-168372380D01*
X229602857Y-168372380D01*
X230221904Y-168372380D02*
X230317142Y-168372380D01*
X230412380Y-168420000D01*
X230460000Y-168467619D01*
X230507619Y-168562857D01*
X230555238Y-168753333D01*
X230555238Y-168991428D01*
X230507619Y-169181904D01*
X230460000Y-169277142D01*
X230412380Y-169324761D01*
X230317142Y-169372380D01*
X230221904Y-169372380D01*
X230126666Y-169324761D01*
X230079047Y-169277142D01*
X230031428Y-169181904D01*
X229983809Y-168991428D01*
X229983809Y-168753333D01*
X230031428Y-168562857D01*
X230079047Y-168467619D01*
X230126666Y-168420000D01*
X230221904Y-168372380D01*
X231460000Y-168372380D02*
X230983809Y-168372380D01*
X230936190Y-168848571D01*
X230983809Y-168800952D01*
X231079047Y-168753333D01*
X231317142Y-168753333D01*
X231412380Y-168800952D01*
X231460000Y-168848571D01*
X231507619Y-168943809D01*
X231507619Y-169181904D01*
X231460000Y-169277142D01*
X231412380Y-169324761D01*
X231317142Y-169372380D01*
X231079047Y-169372380D01*
X230983809Y-169324761D01*
X230936190Y-169277142D01*
X231936190Y-168372380D02*
X231936190Y-169181904D01*
X231983809Y-169277142D01*
X232031428Y-169324761D01*
X232126666Y-169372380D01*
X232317142Y-169372380D01*
X232412380Y-169324761D01*
X232460000Y-169277142D01*
X232507619Y-169181904D01*
X232507619Y-168372380D01*
X233174285Y-168372380D02*
X233269523Y-168372380D01*
X233364761Y-168420000D01*
X233412380Y-168467619D01*
X233460000Y-168562857D01*
X233507619Y-168753333D01*
X233507619Y-168991428D01*
X233460000Y-169181904D01*
X233412380Y-169277142D01*
X233364761Y-169324761D01*
X233269523Y-169372380D01*
X233174285Y-169372380D01*
X233079047Y-169324761D01*
X233031428Y-169277142D01*
X232983809Y-169181904D01*
X232936190Y-168991428D01*
X232936190Y-168753333D01*
X232983809Y-168562857D01*
X233031428Y-168467619D01*
X233079047Y-168420000D01*
X233174285Y-168372380D01*
X234364761Y-168372380D02*
X234174285Y-168372380D01*
X234079047Y-168420000D01*
X234031428Y-168467619D01*
X233936190Y-168610476D01*
X233888571Y-168800952D01*
X233888571Y-169181904D01*
X233936190Y-169277142D01*
X233983809Y-169324761D01*
X234079047Y-169372380D01*
X234269523Y-169372380D01*
X234364761Y-169324761D01*
X234412380Y-169277142D01*
X234460000Y-169181904D01*
X234460000Y-168943809D01*
X234412380Y-168848571D01*
X234364761Y-168800952D01*
X234269523Y-168753333D01*
X234079047Y-168753333D01*
X233983809Y-168800952D01*
X233936190Y-168848571D01*
X233888571Y-168943809D01*
X234888571Y-169372380D02*
X234888571Y-168372380D01*
X235126666Y-168372380D01*
X235269523Y-168420000D01*
X235364761Y-168515238D01*
X235412380Y-168610476D01*
X235460000Y-168800952D01*
X235460000Y-168943809D01*
X235412380Y-169134285D01*
X235364761Y-169229523D01*
X235269523Y-169324761D01*
X235126666Y-169372380D01*
X234888571Y-169372380D01*
X236555238Y-169467619D02*
X236460000Y-169420000D01*
X236364761Y-169324761D01*
X236221904Y-169181904D01*
X236126666Y-169134285D01*
X236031428Y-169134285D01*
X236079047Y-169372380D02*
X235983809Y-169324761D01*
X235888571Y-169229523D01*
X235840952Y-169039047D01*
X235840952Y-168705714D01*
X235888571Y-168515238D01*
X235983809Y-168420000D01*
X236079047Y-168372380D01*
X236269523Y-168372380D01*
X236364761Y-168420000D01*
X236460000Y-168515238D01*
X236507619Y-168705714D01*
X236507619Y-169039047D01*
X236460000Y-169229523D01*
X236364761Y-169324761D01*
X236269523Y-169372380D01*
X236079047Y-169372380D01*
X236888571Y-169086666D02*
X237364761Y-169086666D01*
X236793333Y-169372380D02*
X237126666Y-168372380D01*
X237460000Y-169372380D01*
X238364761Y-169372380D02*
X238031428Y-168896190D01*
X237793333Y-169372380D02*
X237793333Y-168372380D01*
X238174285Y-168372380D01*
X238269523Y-168420000D01*
X238317142Y-168467619D01*
X238364761Y-168562857D01*
X238364761Y-168705714D01*
X238317142Y-168800952D01*
X238269523Y-168848571D01*
X238174285Y-168896190D01*
X237793333Y-168896190D01*
X230198095Y-169872380D02*
X230198095Y-170681904D01*
X230245714Y-170777142D01*
X230293333Y-170824761D01*
X230388571Y-170872380D01*
X230579047Y-170872380D01*
X230674285Y-170824761D01*
X230721904Y-170777142D01*
X230769523Y-170681904D01*
X230769523Y-169872380D01*
X231769523Y-170872380D02*
X231198095Y-170872380D01*
X231483809Y-170872380D02*
X231483809Y-169872380D01*
X231388571Y-170015238D01*
X231293333Y-170110476D01*
X231198095Y-170158095D01*
X214612380Y-190962857D02*
X215612380Y-190296190D01*
X214612380Y-190296190D02*
X215612380Y-190962857D01*
X214612380Y-190058095D02*
X214612380Y-189486666D01*
X215612380Y-189772380D02*
X214612380Y-189772380D01*
X215326666Y-189200952D02*
X215326666Y-188724761D01*
X215612380Y-189296190D02*
X214612380Y-188962857D01*
X215612380Y-188629523D01*
X215612380Y-187820000D02*
X215612380Y-188296190D01*
X214612380Y-188296190D01*
X215707619Y-187724761D02*
X215707619Y-186962857D01*
X214945714Y-186296190D02*
X215612380Y-186296190D01*
X214564761Y-186534285D02*
X215279047Y-186772380D01*
X215279047Y-186153333D01*
X215612380Y-185296190D02*
X215612380Y-185772380D01*
X214612380Y-185772380D01*
X215564761Y-184581904D02*
X215612380Y-184677142D01*
X215612380Y-184867619D01*
X215564761Y-184962857D01*
X215469523Y-185010476D01*
X215088571Y-185010476D01*
X214993333Y-184962857D01*
X214945714Y-184867619D01*
X214945714Y-184677142D01*
X214993333Y-184581904D01*
X215088571Y-184534285D01*
X215183809Y-184534285D01*
X215279047Y-185010476D01*
X215612380Y-183677142D02*
X215088571Y-183677142D01*
X214993333Y-183724761D01*
X214945714Y-183820000D01*
X214945714Y-184010476D01*
X214993333Y-184105714D01*
X215564761Y-183677142D02*
X215612380Y-183772380D01*
X215612380Y-184010476D01*
X215564761Y-184105714D01*
X215469523Y-184153333D01*
X215374285Y-184153333D01*
X215279047Y-184105714D01*
X215231428Y-184010476D01*
X215231428Y-183772380D01*
X215183809Y-183677142D01*
X215612380Y-182772380D02*
X214612380Y-182772380D01*
X215564761Y-182772380D02*
X215612380Y-182867619D01*
X215612380Y-183058095D01*
X215564761Y-183153333D01*
X215517142Y-183200952D01*
X215421904Y-183248571D01*
X215136190Y-183248571D01*
X215040952Y-183200952D01*
X214993333Y-183153333D01*
X214945714Y-183058095D01*
X214945714Y-182867619D01*
X214993333Y-182772380D01*
X217936190Y-187396190D02*
X218412380Y-187396190D01*
X217412380Y-187729523D02*
X217936190Y-187396190D01*
X217412380Y-187062857D01*
X218412380Y-186205714D02*
X218412380Y-186777142D01*
X218412380Y-186491428D02*
X217412380Y-186491428D01*
X217555238Y-186586666D01*
X217650476Y-186681904D01*
X217698095Y-186777142D01*
X223517142Y-187110476D02*
X223564761Y-187158095D01*
X223612380Y-187300952D01*
X223612380Y-187396190D01*
X223564761Y-187539047D01*
X223469523Y-187634285D01*
X223374285Y-187681904D01*
X223183809Y-187729523D01*
X223040952Y-187729523D01*
X222850476Y-187681904D01*
X222755238Y-187634285D01*
X222660000Y-187539047D01*
X222612380Y-187396190D01*
X222612380Y-187300952D01*
X222660000Y-187158095D01*
X222707619Y-187110476D01*
X221817142Y-187586666D02*
X221864761Y-187634285D01*
X221912380Y-187777142D01*
X221912380Y-187872380D01*
X221864761Y-188015238D01*
X221769523Y-188110476D01*
X221674285Y-188158095D01*
X221483809Y-188205714D01*
X221340952Y-188205714D01*
X221150476Y-188158095D01*
X221055238Y-188110476D01*
X220960000Y-188015238D01*
X220912380Y-187872380D01*
X220912380Y-187777142D01*
X220960000Y-187634285D01*
X221007619Y-187586666D01*
X221912380Y-186634285D02*
X221912380Y-187205714D01*
X221912380Y-186920000D02*
X220912380Y-186920000D01*
X221055238Y-187015238D01*
X221150476Y-187110476D01*
X221198095Y-187205714D01*
X213117142Y-187110476D02*
X213164761Y-187158095D01*
X213212380Y-187300952D01*
X213212380Y-187396190D01*
X213164761Y-187539047D01*
X213069523Y-187634285D01*
X212974285Y-187681904D01*
X212783809Y-187729523D01*
X212640952Y-187729523D01*
X212450476Y-187681904D01*
X212355238Y-187634285D01*
X212260000Y-187539047D01*
X212212380Y-187396190D01*
X212212380Y-187300952D01*
X212260000Y-187158095D01*
X212307619Y-187110476D01*
X214817142Y-187586666D02*
X214864761Y-187634285D01*
X214912380Y-187777142D01*
X214912380Y-187872380D01*
X214864761Y-188015238D01*
X214769523Y-188110476D01*
X214674285Y-188158095D01*
X214483809Y-188205714D01*
X214340952Y-188205714D01*
X214150476Y-188158095D01*
X214055238Y-188110476D01*
X213960000Y-188015238D01*
X213912380Y-187872380D01*
X213912380Y-187777142D01*
X213960000Y-187634285D01*
X214007619Y-187586666D01*
X214007619Y-187205714D02*
X213960000Y-187158095D01*
X213912380Y-187062857D01*
X213912380Y-186824761D01*
X213960000Y-186729523D01*
X214007619Y-186681904D01*
X214102857Y-186634285D01*
X214198095Y-186634285D01*
X214340952Y-186681904D01*
X214912380Y-187253333D01*
X214912380Y-186634285D01*
X224769523Y-180577142D02*
X224721904Y-180624761D01*
X224579047Y-180672380D01*
X224483809Y-180672380D01*
X224340952Y-180624761D01*
X224245714Y-180529523D01*
X224198095Y-180434285D01*
X224150476Y-180243809D01*
X224150476Y-180100952D01*
X224198095Y-179910476D01*
X224245714Y-179815238D01*
X224340952Y-179720000D01*
X224483809Y-179672380D01*
X224579047Y-179672380D01*
X224721904Y-179720000D01*
X224769523Y-179767619D01*
X224293333Y-182277142D02*
X224245714Y-182324761D01*
X224102857Y-182372380D01*
X224007619Y-182372380D01*
X223864761Y-182324761D01*
X223769523Y-182229523D01*
X223721904Y-182134285D01*
X223674285Y-181943809D01*
X223674285Y-181800952D01*
X223721904Y-181610476D01*
X223769523Y-181515238D01*
X223864761Y-181420000D01*
X224007619Y-181372380D01*
X224102857Y-181372380D01*
X224245714Y-181420000D01*
X224293333Y-181467619D01*
X225150476Y-181705714D02*
X225150476Y-182372380D01*
X224912380Y-181324761D02*
X224674285Y-182039047D01*
X225293333Y-182039047D01*
X237769523Y-183477142D02*
X237721904Y-183524761D01*
X237579047Y-183572380D01*
X237483809Y-183572380D01*
X237340952Y-183524761D01*
X237245714Y-183429523D01*
X237198095Y-183334285D01*
X237150476Y-183143809D01*
X237150476Y-183000952D01*
X237198095Y-182810476D01*
X237245714Y-182715238D01*
X237340952Y-182620000D01*
X237483809Y-182572380D01*
X237579047Y-182572380D01*
X237721904Y-182620000D01*
X237769523Y-182667619D01*
X237293333Y-181777142D02*
X237245714Y-181824761D01*
X237102857Y-181872380D01*
X237007619Y-181872380D01*
X236864761Y-181824761D01*
X236769523Y-181729523D01*
X236721904Y-181634285D01*
X236674285Y-181443809D01*
X236674285Y-181300952D01*
X236721904Y-181110476D01*
X236769523Y-181015238D01*
X236864761Y-180920000D01*
X237007619Y-180872380D01*
X237102857Y-180872380D01*
X237245714Y-180920000D01*
X237293333Y-180967619D01*
X238198095Y-180872380D02*
X237721904Y-180872380D01*
X237674285Y-181348571D01*
X237721904Y-181300952D01*
X237817142Y-181253333D01*
X238055238Y-181253333D01*
X238150476Y-181300952D01*
X238198095Y-181348571D01*
X238245714Y-181443809D01*
X238245714Y-181681904D01*
X238198095Y-181777142D01*
X238150476Y-181824761D01*
X238055238Y-181872380D01*
X237817142Y-181872380D01*
X237721904Y-181824761D01*
X237674285Y-181777142D01*
X224769523Y-183577142D02*
X224721904Y-183624761D01*
X224579047Y-183672380D01*
X224483809Y-183672380D01*
X224340952Y-183624761D01*
X224245714Y-183529523D01*
X224198095Y-183434285D01*
X224150476Y-183243809D01*
X224150476Y-183100952D01*
X224198095Y-182910476D01*
X224245714Y-182815238D01*
X224340952Y-182720000D01*
X224483809Y-182672380D01*
X224579047Y-182672380D01*
X224721904Y-182720000D01*
X224769523Y-182767619D01*
X224293333Y-185277142D02*
X224245714Y-185324761D01*
X224102857Y-185372380D01*
X224007619Y-185372380D01*
X223864761Y-185324761D01*
X223769523Y-185229523D01*
X223721904Y-185134285D01*
X223674285Y-184943809D01*
X223674285Y-184800952D01*
X223721904Y-184610476D01*
X223769523Y-184515238D01*
X223864761Y-184420000D01*
X224007619Y-184372380D01*
X224102857Y-184372380D01*
X224245714Y-184420000D01*
X224293333Y-184467619D01*
X225150476Y-184372380D02*
X224960000Y-184372380D01*
X224864761Y-184420000D01*
X224817142Y-184467619D01*
X224721904Y-184610476D01*
X224674285Y-184800952D01*
X224674285Y-185181904D01*
X224721904Y-185277142D01*
X224769523Y-185324761D01*
X224864761Y-185372380D01*
X225055238Y-185372380D01*
X225150476Y-185324761D01*
X225198095Y-185277142D01*
X225245714Y-185181904D01*
X225245714Y-184943809D01*
X225198095Y-184848571D01*
X225150476Y-184800952D01*
X225055238Y-184753333D01*
X224864761Y-184753333D01*
X224769523Y-184800952D01*
X224721904Y-184848571D01*
X224674285Y-184943809D01*
X237769523Y-189977142D02*
X237721904Y-190024761D01*
X237579047Y-190072380D01*
X237483809Y-190072380D01*
X237340952Y-190024761D01*
X237245714Y-189929523D01*
X237198095Y-189834285D01*
X237150476Y-189643809D01*
X237150476Y-189500952D01*
X237198095Y-189310476D01*
X237245714Y-189215238D01*
X237340952Y-189120000D01*
X237483809Y-189072380D01*
X237579047Y-189072380D01*
X237721904Y-189120000D01*
X237769523Y-189167619D01*
X237293333Y-188277142D02*
X237245714Y-188324761D01*
X237102857Y-188372380D01*
X237007619Y-188372380D01*
X236864761Y-188324761D01*
X236769523Y-188229523D01*
X236721904Y-188134285D01*
X236674285Y-187943809D01*
X236674285Y-187800952D01*
X236721904Y-187610476D01*
X236769523Y-187515238D01*
X236864761Y-187420000D01*
X237007619Y-187372380D01*
X237102857Y-187372380D01*
X237245714Y-187420000D01*
X237293333Y-187467619D01*
X237626666Y-187372380D02*
X238293333Y-187372380D01*
X237864761Y-188372380D01*
X227117142Y-192610476D02*
X227164761Y-192658095D01*
X227212380Y-192800952D01*
X227212380Y-192896190D01*
X227164761Y-193039047D01*
X227069523Y-193134285D01*
X226974285Y-193181904D01*
X226783809Y-193229523D01*
X226640952Y-193229523D01*
X226450476Y-193181904D01*
X226355238Y-193134285D01*
X226260000Y-193039047D01*
X226212380Y-192896190D01*
X226212380Y-192800952D01*
X226260000Y-192658095D01*
X226307619Y-192610476D01*
X228817142Y-193086666D02*
X228864761Y-193134285D01*
X228912380Y-193277142D01*
X228912380Y-193372380D01*
X228864761Y-193515238D01*
X228769523Y-193610476D01*
X228674285Y-193658095D01*
X228483809Y-193705714D01*
X228340952Y-193705714D01*
X228150476Y-193658095D01*
X228055238Y-193610476D01*
X227960000Y-193515238D01*
X227912380Y-193372380D01*
X227912380Y-193277142D01*
X227960000Y-193134285D01*
X228007619Y-193086666D01*
X228340952Y-192515238D02*
X228293333Y-192610476D01*
X228245714Y-192658095D01*
X228150476Y-192705714D01*
X228102857Y-192705714D01*
X228007619Y-192658095D01*
X227960000Y-192610476D01*
X227912380Y-192515238D01*
X227912380Y-192324761D01*
X227960000Y-192229523D01*
X228007619Y-192181904D01*
X228102857Y-192134285D01*
X228150476Y-192134285D01*
X228245714Y-192181904D01*
X228293333Y-192229523D01*
X228340952Y-192324761D01*
X228340952Y-192515238D01*
X228388571Y-192610476D01*
X228436190Y-192658095D01*
X228531428Y-192705714D01*
X228721904Y-192705714D01*
X228817142Y-192658095D01*
X228864761Y-192610476D01*
X228912380Y-192515238D01*
X228912380Y-192324761D01*
X228864761Y-192229523D01*
X228817142Y-192181904D01*
X228721904Y-192134285D01*
X228531428Y-192134285D01*
X228436190Y-192181904D01*
X228388571Y-192229523D01*
X228340952Y-192324761D01*
X237769523Y-185977142D02*
X237721904Y-186024761D01*
X237579047Y-186072380D01*
X237483809Y-186072380D01*
X237340952Y-186024761D01*
X237245714Y-185929523D01*
X237198095Y-185834285D01*
X237150476Y-185643809D01*
X237150476Y-185500952D01*
X237198095Y-185310476D01*
X237245714Y-185215238D01*
X237340952Y-185120000D01*
X237483809Y-185072380D01*
X237579047Y-185072380D01*
X237721904Y-185120000D01*
X237769523Y-185167619D01*
X237293333Y-184277142D02*
X237245714Y-184324761D01*
X237102857Y-184372380D01*
X237007619Y-184372380D01*
X236864761Y-184324761D01*
X236769523Y-184229523D01*
X236721904Y-184134285D01*
X236674285Y-183943809D01*
X236674285Y-183800952D01*
X236721904Y-183610476D01*
X236769523Y-183515238D01*
X236864761Y-183420000D01*
X237007619Y-183372380D01*
X237102857Y-183372380D01*
X237245714Y-183420000D01*
X237293333Y-183467619D01*
X237769523Y-184372380D02*
X237960000Y-184372380D01*
X238055238Y-184324761D01*
X238102857Y-184277142D01*
X238198095Y-184134285D01*
X238245714Y-183943809D01*
X238245714Y-183562857D01*
X238198095Y-183467619D01*
X238150476Y-183420000D01*
X238055238Y-183372380D01*
X237864761Y-183372380D01*
X237769523Y-183420000D01*
X237721904Y-183467619D01*
X237674285Y-183562857D01*
X237674285Y-183800952D01*
X237721904Y-183896190D01*
X237769523Y-183943809D01*
X237864761Y-183991428D01*
X238055238Y-183991428D01*
X238150476Y-183943809D01*
X238198095Y-183896190D01*
X238245714Y-183800952D01*
X220912380Y-174705714D02*
X220912380Y-174134285D01*
X221912380Y-174420000D02*
X220912380Y-174420000D01*
X220912380Y-173943809D02*
X221912380Y-173610476D01*
X220912380Y-173277142D01*
X221864761Y-172991428D02*
X221912380Y-172848571D01*
X221912380Y-172610476D01*
X221864761Y-172515238D01*
X221817142Y-172467619D01*
X221721904Y-172420000D01*
X221626666Y-172420000D01*
X221531428Y-172467619D01*
X221483809Y-172515238D01*
X221436190Y-172610476D01*
X221388571Y-172800952D01*
X221340952Y-172896190D01*
X221293333Y-172943809D01*
X221198095Y-172991428D01*
X221102857Y-172991428D01*
X221007619Y-172943809D01*
X220960000Y-172896190D01*
X220912380Y-172800952D01*
X220912380Y-172562857D01*
X220960000Y-172420000D01*
X222007619Y-172229523D02*
X222007619Y-171467619D01*
X220912380Y-171229523D02*
X221721904Y-171229523D01*
X221817142Y-171181904D01*
X221864761Y-171134285D01*
X221912380Y-171039047D01*
X221912380Y-170848571D01*
X221864761Y-170753333D01*
X221817142Y-170705714D01*
X221721904Y-170658095D01*
X220912380Y-170658095D01*
X221245714Y-170181904D02*
X221912380Y-170181904D01*
X221340952Y-170181904D02*
X221293333Y-170134285D01*
X221245714Y-170039047D01*
X221245714Y-169896190D01*
X221293333Y-169800952D01*
X221388571Y-169753333D01*
X221912380Y-169753333D01*
X221912380Y-169277142D02*
X221245714Y-169277142D01*
X220912380Y-169277142D02*
X220960000Y-169324761D01*
X221007619Y-169277142D01*
X220960000Y-169229523D01*
X220912380Y-169277142D01*
X221007619Y-169277142D01*
X221912380Y-168372380D02*
X220912380Y-168372380D01*
X221864761Y-168372380D02*
X221912380Y-168467619D01*
X221912380Y-168658095D01*
X221864761Y-168753333D01*
X221817142Y-168800952D01*
X221721904Y-168848571D01*
X221436190Y-168848571D01*
X221340952Y-168800952D01*
X221293333Y-168753333D01*
X221245714Y-168658095D01*
X221245714Y-168467619D01*
X221293333Y-168372380D01*
X221912380Y-167896190D02*
X221245714Y-167896190D01*
X220912380Y-167896190D02*
X220960000Y-167943809D01*
X221007619Y-167896190D01*
X220960000Y-167848571D01*
X220912380Y-167896190D01*
X221007619Y-167896190D01*
X221912380Y-167420000D02*
X221245714Y-167420000D01*
X221436190Y-167420000D02*
X221340952Y-167372380D01*
X221293333Y-167324761D01*
X221245714Y-167229523D01*
X221245714Y-167134285D01*
X221864761Y-166420000D02*
X221912380Y-166515238D01*
X221912380Y-166705714D01*
X221864761Y-166800952D01*
X221769523Y-166848571D01*
X221388571Y-166848571D01*
X221293333Y-166800952D01*
X221245714Y-166705714D01*
X221245714Y-166515238D01*
X221293333Y-166420000D01*
X221388571Y-166372380D01*
X221483809Y-166372380D01*
X221579047Y-166848571D01*
X221864761Y-165515238D02*
X221912380Y-165610476D01*
X221912380Y-165800952D01*
X221864761Y-165896190D01*
X221817142Y-165943809D01*
X221721904Y-165991428D01*
X221436190Y-165991428D01*
X221340952Y-165943809D01*
X221293333Y-165896190D01*
X221245714Y-165800952D01*
X221245714Y-165610476D01*
X221293333Y-165515238D01*
X221245714Y-165229523D02*
X221245714Y-164848571D01*
X220912380Y-165086666D02*
X221769523Y-165086666D01*
X221864761Y-165039047D01*
X221912380Y-164943809D01*
X221912380Y-164848571D01*
X221912380Y-164515238D02*
X221245714Y-164515238D01*
X220912380Y-164515238D02*
X220960000Y-164562857D01*
X221007619Y-164515238D01*
X220960000Y-164467619D01*
X220912380Y-164515238D01*
X221007619Y-164515238D01*
X221912380Y-163896190D02*
X221864761Y-163991428D01*
X221817142Y-164039047D01*
X221721904Y-164086666D01*
X221436190Y-164086666D01*
X221340952Y-164039047D01*
X221293333Y-163991428D01*
X221245714Y-163896190D01*
X221245714Y-163753333D01*
X221293333Y-163658095D01*
X221340952Y-163610476D01*
X221436190Y-163562857D01*
X221721904Y-163562857D01*
X221817142Y-163610476D01*
X221864761Y-163658095D01*
X221912380Y-163753333D01*
X221912380Y-163896190D01*
X221245714Y-163134285D02*
X221912380Y-163134285D01*
X221340952Y-163134285D02*
X221293333Y-163086666D01*
X221245714Y-162991428D01*
X221245714Y-162848571D01*
X221293333Y-162753333D01*
X221388571Y-162705714D01*
X221912380Y-162705714D01*
X221912380Y-161800952D02*
X221388571Y-161800952D01*
X221293333Y-161848571D01*
X221245714Y-161943809D01*
X221245714Y-162134285D01*
X221293333Y-162229523D01*
X221864761Y-161800952D02*
X221912380Y-161896190D01*
X221912380Y-162134285D01*
X221864761Y-162229523D01*
X221769523Y-162277142D01*
X221674285Y-162277142D01*
X221579047Y-162229523D01*
X221531428Y-162134285D01*
X221531428Y-161896190D01*
X221483809Y-161800952D01*
X221912380Y-161181904D02*
X221864761Y-161277142D01*
X221769523Y-161324761D01*
X220912380Y-161324761D01*
X218912380Y-169586666D02*
X218912380Y-169015238D01*
X219912380Y-169300952D02*
X218912380Y-169300952D01*
X218912380Y-168824761D02*
X219912380Y-168491428D01*
X218912380Y-168158095D01*
X219864761Y-167872380D02*
X219912380Y-167729523D01*
X219912380Y-167491428D01*
X219864761Y-167396190D01*
X219817142Y-167348571D01*
X219721904Y-167300952D01*
X219626666Y-167300952D01*
X219531428Y-167348571D01*
X219483809Y-167396190D01*
X219436190Y-167491428D01*
X219388571Y-167681904D01*
X219340952Y-167777142D01*
X219293333Y-167824761D01*
X219198095Y-167872380D01*
X219102857Y-167872380D01*
X219007619Y-167824761D01*
X218960000Y-167777142D01*
X218912380Y-167681904D01*
X218912380Y-167443809D01*
X218960000Y-167300952D01*
X219912380Y-166348571D02*
X219912380Y-166920000D01*
X219912380Y-166634285D02*
X218912380Y-166634285D01*
X219055238Y-166729523D01*
X219150476Y-166824761D01*
X219198095Y-166920000D01*
X225912380Y-193491428D02*
X226721904Y-193491428D01*
X226817142Y-193443809D01*
X226864761Y-193396190D01*
X226912380Y-193300952D01*
X226912380Y-193110476D01*
X226864761Y-193015238D01*
X226817142Y-192967619D01*
X226721904Y-192920000D01*
X225912380Y-192920000D01*
X227007619Y-192681904D02*
X227007619Y-191920000D01*
X226626666Y-191729523D02*
X226626666Y-191253333D01*
X226912380Y-191824761D02*
X225912380Y-191491428D01*
X226912380Y-191158095D01*
X225912380Y-190967619D02*
X225912380Y-190396190D01*
X226912380Y-190681904D02*
X225912380Y-190681904D01*
X226912380Y-190062857D02*
X226245714Y-190062857D01*
X226340952Y-190062857D02*
X226293333Y-190015238D01*
X226245714Y-189920000D01*
X226245714Y-189777142D01*
X226293333Y-189681904D01*
X226388571Y-189634285D01*
X226912380Y-189634285D01*
X226388571Y-189634285D02*
X226293333Y-189586666D01*
X226245714Y-189491428D01*
X226245714Y-189348571D01*
X226293333Y-189253333D01*
X226388571Y-189205714D01*
X226912380Y-189205714D01*
X226864761Y-188348571D02*
X226912380Y-188443809D01*
X226912380Y-188634285D01*
X226864761Y-188729523D01*
X226769523Y-188777142D01*
X226388571Y-188777142D01*
X226293333Y-188729523D01*
X226245714Y-188634285D01*
X226245714Y-188443809D01*
X226293333Y-188348571D01*
X226388571Y-188300952D01*
X226483809Y-188300952D01*
X226579047Y-188777142D01*
X226245714Y-187443809D02*
X227055238Y-187443809D01*
X227150476Y-187491428D01*
X227198095Y-187539047D01*
X227245714Y-187634285D01*
X227245714Y-187777142D01*
X227198095Y-187872380D01*
X226864761Y-187443809D02*
X226912380Y-187539047D01*
X226912380Y-187729523D01*
X226864761Y-187824761D01*
X226817142Y-187872380D01*
X226721904Y-187920000D01*
X226436190Y-187920000D01*
X226340952Y-187872380D01*
X226293333Y-187824761D01*
X226245714Y-187729523D01*
X226245714Y-187539047D01*
X226293333Y-187443809D01*
X226912380Y-186539047D02*
X226388571Y-186539047D01*
X226293333Y-186586666D01*
X226245714Y-186681904D01*
X226245714Y-186872380D01*
X226293333Y-186967619D01*
X226864761Y-186539047D02*
X226912380Y-186634285D01*
X226912380Y-186872380D01*
X226864761Y-186967619D01*
X226769523Y-187015238D01*
X226674285Y-187015238D01*
X226579047Y-186967619D01*
X226531428Y-186872380D01*
X226531428Y-186634285D01*
X226483809Y-186539047D01*
X225912380Y-186158095D02*
X225912380Y-185539047D01*
X226293333Y-185872380D01*
X226293333Y-185729523D01*
X226340952Y-185634285D01*
X226388571Y-185586666D01*
X226483809Y-185539047D01*
X226721904Y-185539047D01*
X226817142Y-185586666D01*
X226864761Y-185634285D01*
X226912380Y-185729523D01*
X226912380Y-186015238D01*
X226864761Y-186110476D01*
X226817142Y-186158095D01*
X226007619Y-185158095D02*
X225960000Y-185110476D01*
X225912380Y-185015238D01*
X225912380Y-184777142D01*
X225960000Y-184681904D01*
X226007619Y-184634285D01*
X226102857Y-184586666D01*
X226198095Y-184586666D01*
X226340952Y-184634285D01*
X226912380Y-185205714D01*
X226912380Y-184586666D01*
X226245714Y-183729523D02*
X226912380Y-183729523D01*
X226245714Y-184158095D02*
X226769523Y-184158095D01*
X226864761Y-184110476D01*
X226912380Y-184015238D01*
X226912380Y-183872380D01*
X226864761Y-183777142D01*
X226817142Y-183729523D01*
X226245714Y-182824761D02*
X226912380Y-182824761D01*
X225864761Y-183062857D02*
X226579047Y-183300952D01*
X226579047Y-182681904D01*
X226531428Y-182300952D02*
X226531428Y-181539047D01*
X226912380Y-181062857D02*
X225912380Y-181062857D01*
X226626666Y-180729523D01*
X225912380Y-180396190D01*
X226912380Y-180396190D01*
X225912380Y-179920000D02*
X226721904Y-179920000D01*
X226817142Y-179872380D01*
X226864761Y-179824761D01*
X226912380Y-179729523D01*
X226912380Y-179539047D01*
X226864761Y-179443809D01*
X226817142Y-179396190D01*
X226721904Y-179348571D01*
X225912380Y-179348571D01*
X230412380Y-187181904D02*
X231221904Y-187181904D01*
X231317142Y-187134285D01*
X231364761Y-187086666D01*
X231412380Y-186991428D01*
X231412380Y-186800952D01*
X231364761Y-186705714D01*
X231317142Y-186658095D01*
X231221904Y-186610476D01*
X230412380Y-186610476D01*
X230507619Y-186181904D02*
X230460000Y-186134285D01*
X230412380Y-186039047D01*
X230412380Y-185800952D01*
X230460000Y-185705714D01*
X230507619Y-185658095D01*
X230602857Y-185610476D01*
X230698095Y-185610476D01*
X230840952Y-185658095D01*
X231412380Y-186229523D01*
X231412380Y-185610476D01*
M02*
